<svg width="13" height="3" viewBox="0 0 13 3" fill="none" xmlns="http://www.w3.org/2000/svg">
<path d="M2.94494 1.294C2.94494 1.63719 2.8086 1.96633 2.56593 2.209C2.32326 2.45167 1.99413 2.588 1.65093 2.588C1.30774 2.588 0.97861 2.45167 0.735938 2.209C0.493266 1.96633 0.356934 1.63719 0.356934 1.294C0.356934 0.950811 0.493266 0.621677 0.735938 0.379004C0.97861 0.136332 1.30774 0 1.65093 0C1.99413 0 2.32326 0.136332 2.56593 0.379004C2.8086 0.621677 2.94494 0.950811 2.94494 1.294Z" fill="curentColor"/>
<path d="M7.54589 1.294C7.54589 1.46393 7.51242 1.6322 7.44739 1.78919C7.38236 1.94619 7.28704 2.08884 7.16688 2.209C7.04672 2.32916 6.90408 2.42447 6.74708 2.4895C6.59008 2.55453 6.42182 2.588 6.25189 2.588C6.08196 2.588 5.91369 2.55453 5.75669 2.4895C5.5997 2.42447 5.45705 2.32916 5.33689 2.209C5.21673 2.08884 5.12142 1.94619 5.05639 1.78919C4.99136 1.6322 4.95789 1.46393 4.95789 1.294C4.95789 0.950811 5.09422 0.621677 5.33689 0.379004C5.57956 0.136332 5.9087 0 6.25189 0C6.59508 0 6.92421 0.136332 7.16688 0.379004C7.40956 0.621677 7.54589 0.950811 7.54589 1.294Z" fill="curentColor"/>
<path d="M10.8528 2.588C11.0227 2.588 11.191 2.55453 11.348 2.4895C11.505 2.42447 11.6476 2.32916 11.7678 2.209C11.888 2.08884 11.9833 1.94619 12.0483 1.78919C12.1133 1.6322 12.1468 1.46393 12.1468 1.294C12.1468 1.12407 12.1133 0.955804 12.0483 0.798808C11.9833 0.641813 11.888 0.499163 11.7678 0.379004C11.6476 0.258845 11.505 0.16353 11.348 0.0985001C11.191 0.0334705 11.0227 -5.06433e-09 10.8528 0C10.5096 1.02279e-08 10.1805 0.136332 9.93781 0.379004C9.69514 0.621677 9.55881 0.950811 9.55881 1.294C9.55881 1.63719 9.69514 1.96633 9.93781 2.209C10.1805 2.45167 10.5096 2.588 10.8528 2.588Z" fill="curentColor"/>
</svg>
