<svg width="16" height="13" viewBox="0 0 16 13" fill="none" xmlns="http://www.w3.org/2000/svg">
<g clip-path="url(#clip0)">
<path d="M9.19111 6.26377C9.86391 5.97583 10.4167 5.46444 10.756 4.81603C11.0953 4.16761 11.2004 3.42194 11.0534 2.70502C10.9064 1.9881 10.5165 1.3439 9.9494 0.881284C9.38233 0.418671 8.67294 0.166016 7.94111 0.166016C7.20928 0.166016 6.49989 0.418671 5.93283 0.881284C5.36576 1.3439 4.9758 1.9881 4.82883 2.70502C4.68187 3.42194 4.78692 4.16761 5.12623 4.81603C5.46554 5.46444 6.01831 5.97583 6.69111 6.26377C5.44983 6.56513 4.34748 7.27863 3.56424 8.28765C2.781 9.29667 2.3632 10.5415 2.37911 11.8188V12.7638C2.38203 12.8239 2.40663 12.8809 2.44836 12.9243C2.4901 12.9677 2.54614 12.9945 2.60611 12.9998H13.3901C13.4501 12.9945 13.5061 12.9677 13.5479 12.9243C13.5896 12.8809 13.6142 12.8239 13.6171 12.7638V11.8188C13.588 10.5365 13.1396 9.29906 12.3404 8.29584C11.5413 7.29261 10.4354 6.57885 9.19211 6.26377H9.19111ZM5.56011 3.30877C5.55068 2.66469 5.79559 2.04287 6.24171 1.57821C6.68784 1.11356 7.29918 0.843552 7.94311 0.826774C8.58696 0.84381 9.19815 1.1139 9.64422 1.5785C10.0903 2.04309 10.3353 2.66477 10.3261 3.30877C10.3403 3.63015 10.2892 3.95107 10.1757 4.2521C10.0622 4.55312 9.88887 4.82798 9.66607 5.06004C9.44328 5.29209 9.17569 5.4765 8.87954 5.60211C8.58338 5.72772 8.2648 5.7919 7.94311 5.79077C7.29935 5.77348 6.68831 5.50331 6.2423 5.03877C5.79629 4.57423 5.5512 3.9527 5.56011 3.30877ZM12.7091 12.1728H3.17711V11.8178C3.15981 10.5301 3.65016 9.28731 4.54207 8.35834C5.43399 7.42937 6.65576 6.88888 7.94311 6.85377C9.23046 6.88888 10.4522 7.42937 11.3442 8.35834C12.2361 9.28731 12.7264 10.5301 12.7091 11.8178V12.1728ZM3.17711 6.85477C4.19811 6.73677 4.08511 5.90977 3.63111 5.67277C3.29128 5.51793 3.00339 5.26824 2.80205 4.95372C2.6007 4.63919 2.49447 4.27322 2.49611 3.89977C2.46976 3.47194 2.60775 3.05019 2.88189 2.72066C3.15602 2.39114 3.54563 2.17872 3.97111 2.12677C4.42511 1.89077 4.19811 1.29977 3.97111 1.29977C3.35833 1.34767 2.78894 1.63454 2.38579 2.0985C1.98263 2.56246 1.77802 3.16631 1.81611 3.77977C1.79639 4.2038 1.89129 4.6253 2.09085 4.99995C2.2904 5.3746 2.58723 5.68855 2.95011 5.90877C2.07417 6.18139 1.31158 6.73331 0.778873 7.48018C0.246167 8.22705 -0.0273533 9.1278 0.000110945 10.0448C-0.0183604 10.4422 0.0200275 10.8402 0.114111 11.2268C0.341111 11.5818 0.795111 11.3448 0.908111 10.9898C0.814973 10.6839 0.776716 10.364 0.795111 10.0448C0.795111 8.27177 1.93011 6.85377 3.17811 6.85377L3.17711 6.85477ZM13.0491 6.14577C13.392 5.90521 13.6734 5.58731 13.8706 5.21779C14.0677 4.84827 14.1752 4.43752 14.1841 4.01877C14.2225 3.40488 14.0179 2.80051 13.6145 2.33615C13.2111 1.87179 12.6413 1.58467 12.0281 1.53677C11.8011 1.53677 11.5741 2.12777 12.0281 2.36377C12.4536 2.41571 12.8432 2.62814 13.1173 2.95767C13.3915 3.28719 13.5295 3.70894 13.5031 4.13677C13.5049 4.51025 13.3987 4.87627 13.1973 5.19082C12.996 5.50537 12.708 5.75503 12.3681 5.90977C11.8011 6.14577 11.6871 6.97277 12.7081 6.97277C14.0701 6.97277 15.2081 8.50977 15.2081 10.1638C15.2339 10.4832 15.1955 10.8045 15.0951 11.1088C15.2081 11.4638 15.6621 11.6998 15.8891 11.3448C15.9832 10.9582 16.0216 10.5602 16.0031 10.1628C15.8891 8.03577 14.6411 6.38077 13.0531 6.14477L13.0491 6.14577Z" fill="#363636"/>
</g>
<defs>
<clipPath id="clip0">
<rect width="16" height="13" fill="white"/>
</clipPath>
</defs>
</svg>
