<svg xmlns="http://www.w3.org/2000/svg" width="7.999" height="16" viewBox="0 0 7.999 16">
  <path id="attach_file_24px" d="M13.408,5.179v7.693a2.993,2.993,0,0,1-2.625,3.018A2.9,2.9,0,0,1,7.591,13V4.008A1.888,1.888,0,0,1,9.22,2.1a1.818,1.818,0,0,1,2.007,1.811v7.635a.727.727,0,1,1-1.454,0V5.179a.545.545,0,1,0-1.091,0V11.44a1.888,1.888,0,0,0,1.629,1.912,1.818,1.818,0,0,0,2.007-1.811V4.03A2.993,2.993,0,0,0,9.692,1.012,2.907,2.907,0,0,0,6.5,3.906v8.922a4.115,4.115,0,0,0,3.607,4.152A4,4,0,0,0,14.5,13V5.179a.545.545,0,1,0-1.091,0Z" transform="translate(-6.5 -0.998)" fill="currentColor"/>
</svg>
