<svg width="17" height="16" viewBox="0 0 17 16" fill="none" xmlns="http://www.w3.org/2000/svg">
<path d="M7.69028 2.66666H3.02361C2.66999 2.66666 2.33085 2.80713 2.0808 3.05718C1.83075 3.30723 1.69028 3.64637 1.69028 3.99999V13.3333C1.69028 13.6869 1.83075 14.0261 2.0808 14.2761C2.33085 14.5262 2.66999 14.6667 3.02361 14.6667H12.3569C12.7106 14.6667 13.0497 14.5262 13.2998 14.2761C13.5498 14.0261 13.6903 13.6869 13.6903 13.3333V8.66666" stroke="currentColor" stroke-linecap="round" stroke-linejoin="round" />
<path d="M12.6903 1.66665C12.9555 1.40144 13.3152 1.25244 13.6903 1.25244C14.0653 1.25244 14.4251 1.40144 14.6903 1.66665C14.9555 1.93187 15.1045 2.29158 15.1045 2.66665C15.1045 3.04173 14.9555 3.40144 14.6903 3.66665L8.35694 9.99999L5.69028 10.6667L6.35694 7.99999L12.6903 1.66665Z" stroke="currentColor" stroke-linecap="round" stroke-linejoin="round"/>
</svg>
