<svg width="4" height="14" viewBox="0 0 4 14" fill="none" xmlns="http://www.w3.org/2000/svg">
<path d="M2.00039 10.9268C1.59286 10.9268 1.20203 11.0887 0.913859 11.3769C0.625692 11.665 0.463802 12.0559 0.463802 12.4634C0.463802 12.8709 0.625692 13.2618 0.913859 13.5499C1.20203 13.8381 1.59286 14 2.00039 14C2.40792 14 2.79876 13.8381 3.08693 13.5499C3.3751 13.2618 3.53699 12.8709 3.53699 12.4634C3.53699 12.0559 3.3751 11.665 3.08693 11.3769C2.79876 11.0887 2.40792 10.9268 2.00039 10.9268Z" fill="currentColor"/>
<path d="M2.00039 5.46331C1.79861 5.46331 1.59879 5.50306 1.41237 5.58028C1.22594 5.6575 1.05655 5.77069 0.913859 5.91337C0.771174 6.05606 0.657988 6.22545 0.580767 6.41188C0.503546 6.59831 0.463802 6.79812 0.463802 6.99991C0.463802 7.20169 0.503546 7.40151 0.580767 7.58794C0.657989 7.77436 0.771174 7.94376 0.91386 8.08644C1.05655 8.22913 1.22594 8.34231 1.41237 8.41953C1.59879 8.49675 1.79861 8.5365 2.00039 8.5365C2.40792 8.5365 2.79876 8.37461 3.08693 8.08644C3.3751 7.79827 3.53699 7.40744 3.53699 6.99991C3.53699 6.59238 3.3751 6.20154 3.08693 5.91337C2.79876 5.6252 2.40792 5.46331 2.00039 5.46331Z" fill="currentColor"/>
<path d="M0.463802 1.53641C0.463802 1.33462 0.503546 1.1348 0.580767 0.948377C0.657988 0.761948 0.771174 0.592556 0.913859 0.44987C1.05655 0.307185 1.22594 0.193999 1.41237 0.116778C1.59879 0.0395573 1.79861 -0.000187321 2.00039 -0.00018733C2.20218 -0.000187339 2.402 0.0395573 2.58842 0.116778C2.77485 0.193999 2.94424 0.307184 3.08693 0.44987C3.22962 0.592556 3.3428 0.761948 3.42002 0.948376C3.49724 1.1348 3.53699 1.33462 3.53699 1.53641C3.53699 1.94394 3.3751 2.33477 3.08693 2.62294C2.79876 2.91111 2.40792 3.073 2.00039 3.073C1.59286 3.073 1.20203 2.91111 0.91386 2.62294C0.625693 2.33477 0.463802 1.94394 0.463802 1.53641Z" fill="currentColor"/>
</svg>
