<svg xmlns="http://www.w3.org/2000/svg" width="17" height="18" viewBox="0 0 17 18">
  <g id="Group_1295" data-name="Group 1295" transform="translate(-977.218 -588)">
    <path id="Subtraction_1" data-name="Subtraction 1" d="M8.255,16.992H0v-.436a6.726,6.726,0,0,1,1.124-3.7,8.018,8.018,0,0,1,3.04-2.689.414.414,0,0,1,.188-.046.4.4,0,0,1,.133.023.42.42,0,0,1,.244.218.441.441,0,0,1-.188.584A6.5,6.5,0,0,0,.862,16.12h7.3a7.359,7.359,0,0,0,.1.87Zm2.319-6.687h0a8.112,8.112,0,0,0-2.126-.285.2.2,0,0,1-.044,0c-.058,0-.113,0-.167,0A4.941,4.941,0,0,1,3.38,5.011,4.942,4.942,0,0,1,8.237,0a4.942,4.942,0,0,1,4.858,5.011,5.041,5.041,0,0,1-2.525,4.4c.289.071.572.156.841.25a7.372,7.372,0,0,0-.836.649ZM8.237.871a4.083,4.083,0,0,0-4.013,4.14A4.082,4.082,0,0,0,8.237,9.149,4.082,4.082,0,0,0,12.25,5.011,4.082,4.082,0,0,0,8.237.871Z" transform="translate(977.218 588)"/>
    <g id="Class_add" data-name="Class add" transform="translate(983.818 596.4)">
      <path id="Path_1070" data-name="Path 1070" d="M2.844,46.6a.5.5,0,0,1,0-1H9.969a.506.506,0,0,1,0,1Z" transform="translate(0 -40.386)"/>
      <path id="Path_1071" data-name="Path 1071" d="M46.4,2.05a.5.5,0,0,1,1,0V9.135a.5.5,0,0,1-1,0Z" transform="translate(-40.386)" />
    </g>
  </g>
</svg>
