<svg width="24" height="24" viewBox="0 0 24 24" fill="none" xmlns="http://www.w3.org/2000/svg">
<path d="M12 23.5C18.3513 23.5 23.5 18.3513 23.5 12C23.5 5.64873 18.3513 0.5 12 0.5C5.64873 0.5 0.5 5.64873 0.5 12C0.5 18.3513 5.64873 23.5 12 23.5Z" stroke="#DBDBDB"/>
<path d="M12.5 6.541C11.4548 6.54338 10.4531 6.96028 9.71486 7.70023C8.9766 8.44017 8.562 9.44275 8.562 10.488C8.562 12.099 9.325 13.062 11.362 15.623C11.71 16.059 12.085 16.547 12.514 17.088C12.929 16.547 13.314 16.071 13.666 15.623C15.702 13.062 16.466 12.098 16.466 10.488C16.4522 9.44221 16.0293 8.44342 15.288 7.70565C14.5467 6.96787 13.5458 6.5498 12.5 6.541ZM12.5 18L12.272 17.71C11.7633 17.0633 11.308 16.4823 10.906 15.967C8.844 13.366 8 12.3 8 10.5C8 9.30653 8.47411 8.16193 9.31802 7.31802C10.1619 6.47411 11.3065 6 12.5 6C13.6935 6 14.8381 6.47411 15.682 7.31802C16.5259 8.16193 17 9.30653 17 10.5C17 12.3 16.143 13.378 14.094 15.979C13.694 16.494 13.237 17.062 12.728 17.722L12.5 18Z" fill="#363636"/>
<path d="M12.4596 8.68312C12.1206 8.68312 11.7892 8.78364 11.5074 8.97198C11.2255 9.16032 11.0058 9.42801 10.8761 9.7412C10.7464 10.0544 10.7124 10.399 10.7786 10.7315C10.8447 11.064 11.0079 11.3694 11.2476 11.6091C11.4873 11.8488 11.7928 12.012 12.1252 12.0782C12.4577 12.1443 12.8023 12.1104 13.1155 11.9806C13.4287 11.8509 13.6964 11.6312 13.8848 11.3494C14.0731 11.0675 14.1736 10.7361 14.1736 10.3971C14.1726 9.94286 13.9916 9.50751 13.6704 9.1863C13.3492 8.86509 12.9139 8.68417 12.4596 8.68312ZM12.4596 12.6741C12.0093 12.6741 11.569 12.5406 11.1946 12.2904C10.8201 12.0402 10.5283 11.6846 10.3559 11.2685C10.1836 10.8524 10.1385 10.3946 10.2264 9.9529C10.3142 9.5112 10.5311 9.10548 10.8495 8.78704C11.168 8.46859 11.5737 8.25173 12.0154 8.16387C12.4571 8.07601 12.9149 8.1211 13.331 8.29344C13.7471 8.46578 14.1027 8.75763 14.3529 9.13208C14.6031 9.50653 14.7366 9.94677 14.7366 10.3971C14.7369 10.6962 14.6782 10.9924 14.5638 11.2688C14.4495 11.5452 14.2818 11.7963 14.0703 12.0078C13.8588 12.2193 13.6077 12.387 13.3313 12.5013C13.0549 12.6157 12.7587 12.6744 12.4596 12.6741Z" fill="#363636"/>
</svg>