<svg width="40" height="40" viewBox="0 0 40 40" fill="none" xmlns="http://www.w3.org/2000/svg">
<circle cx="20" cy="20" r="19" fill="#2769B1" stroke="#2769B1" stroke-width="2"/>
<path d="M20 10C17.243 10 15 12.243 15 15C15 17.757 17.243 20 20 20C22.757 20 25 17.757 25 15C25 12.243 22.757 10 20 10ZM20 18C18.346 18 17 16.654 17 15C17 13.346 18.346 12 20 12C21.654 12 23 13.346 23 15C23 16.654 21.654 18 20 18ZM29 29V28C29 24.141 25.859 21 22 21H18C14.14 21 11 24.141 11 28V29H13V28C13 25.243 15.243 23 18 23H22C24.757 23 27 25.243 27 28V29H29Z" fill="white"/>
</svg>
