<svg width="24" height="24" viewBox="0 0 24 24" fill="none" xmlns="http://www.w3.org/2000/svg">
<path d="M12 23.5C18.3513 23.5 23.5 18.3513 23.5 12C23.5 5.64873 18.3513 0.5 12 0.5C5.64873 0.5 0.5 5.64873 0.5 12C0.5 18.3513 5.64873 23.5 12 23.5Z" stroke="#DBDBDB"/>
<path d="M17.1688 13.7198L17.1158 13.6668C16.7675 13.3227 16.3357 13.0753 15.8628 12.9488C15.5378 12.8645 15.1956 12.8739 14.8758 12.9758C14.4821 13.1136 14.126 13.3413 13.8358 13.6408C13.7585 13.7335 13.6599 13.8062 13.5485 13.8525C13.437 13.8988 13.316 13.9174 13.1958 13.9068C12.5693 13.8158 11.9885 13.5263 11.5388 13.0808L11.2188 12.7618L11.1918 12.7888L11.1688 12.7618L10.8488 12.4428C10.3979 12.0001 10.106 11.4206 10.0188 10.7948C10.0221 10.5556 10.1178 10.327 10.2858 10.1568C10.5946 9.87509 10.8245 9.51763 10.9528 9.11978C11.0548 8.80057 11.0638 8.45892 10.9788 8.13478C10.8517 7.6625 10.6036 7.23161 10.2588 6.88478L10.2048 6.83478C9.95818 6.56413 9.65866 6.34698 9.32476 6.19678C8.9164 6.00991 8.4604 5.95334 8.01876 6.03478C7.62024 6.14826 7.26051 6.36894 6.97876 6.67278C6.61072 7.09737 6.33793 7.59589 6.17876 8.13478C5.96129 8.86091 5.94298 9.63214 6.12576 10.3678C6.29679 11.0755 6.56607 11.7557 6.92576 12.3888C7.38873 13.1962 7.93397 13.9535 8.55276 14.6488L8.84576 14.9948L8.92576 15.0748L9.00576 15.1548L9.35276 15.4468C10.0503 16.064 10.8096 16.6075 11.6188 17.0688C12.2485 17.4396 12.9325 17.7096 13.6458 17.8688C13.9974 17.9409 14.3542 17.9854 14.7128 18.0018C15.1115 18.0071 15.5082 17.9441 15.8858 17.8158C16.4262 17.6567 16.9264 17.384 17.3528 17.0158C17.6711 16.7295 17.8865 16.3465 17.9658 15.9258C18.0444 15.4862 17.9887 15.0331 17.8058 14.6258C17.6756 14.2737 17.456 13.9614 17.1688 13.7198ZM17.3288 15.8998C17.2682 16.1438 17.1387 16.3653 16.9558 16.5378C16.5398 16.8514 16.0696 17.0856 15.5688 17.2288C14.9862 17.397 14.3692 17.4063 13.7818 17.2558C13.1546 17.0995 12.5522 16.8568 11.9918 16.5348C11.0823 16.0095 10.233 15.3864 9.45876 14.6768L9.40576 14.6498L9.35276 14.5968C8.61446 13.8149 7.97008 12.9493 7.43276 12.0178C7.11531 11.4576 6.8729 10.8581 6.71176 10.2348C6.54999 9.54023 6.57762 8.815 6.79176 8.13478C6.94769 7.70688 7.19316 7.3172 7.51176 6.99178C7.68086 6.8038 7.90473 6.67368 8.15176 6.61978C8.43451 6.59264 8.71982 6.62343 8.99027 6.71025C9.26073 6.79708 9.51064 6.93813 9.72476 7.12478L9.80476 7.20478C10.3378 7.81578 10.8978 8.58778 10.0448 9.46478C9.85976 9.61961 9.70777 9.81005 9.59783 10.0248C9.48788 10.2395 9.42223 10.4742 9.40476 10.7148C9.43474 11.3146 9.64917 11.8904 10.0188 12.3638C10.2475 12.6874 10.5064 12.9888 10.7918 13.2638L10.8188 13.2908L10.8458 13.3178C11.0948 13.5843 11.3706 13.8246 11.6688 14.0348C12.0912 14.3771 12.618 14.5648 13.1618 14.5668H13.1888C13.4152 14.5693 13.6396 14.5232 13.8467 14.4314C14.0537 14.3396 14.2386 14.2043 14.3888 14.0348C15.2688 13.1578 16.1218 13.6628 16.7358 14.1678L16.8158 14.2208C17.1924 14.6939 17.3738 15.2932 17.3228 15.8958L17.3288 15.8998Z" fill="#363636"/>
</svg>
