<svg width="20" height="20" viewBox="0 0 20 20" xmlns="http://www.w3.org/2000/svg" fill="white">
<path d="M10 7.5C8.645 7.5 7.5 8.645 7.5 10C7.5 11.355 8.645 12.5 10 12.5C11.355 12.5 12.5 11.355 12.5 10C12.5 8.645 11.355 7.5 10 7.5Z" fill="white"/>
<path d="M16.6665 4.1665H14.5115L12.2557 1.91067C12.1784 1.83314 12.0866 1.77165 11.9855 1.72974C11.8844 1.68784 11.776 1.66635 11.6665 1.6665H8.33317C8.22372 1.66635 8.11531 1.68784 8.0142 1.72974C7.91309 1.77165 7.82126 1.83314 7.74401 1.91067L5.48817 4.1665H3.33317C2.414 4.1665 1.6665 4.914 1.6665 5.83317V14.9998C1.6665 15.919 2.414 16.6665 3.33317 16.6665H16.6665C17.5857 16.6665 18.3332 15.919 18.3332 14.9998V5.83317C18.3332 4.914 17.5857 4.1665 16.6665 4.1665ZM9.99984 14.1665C7.74151 14.1665 5.83317 12.2582 5.83317 9.99984C5.83317 7.74151 7.74151 5.83317 9.99984 5.83317C12.2582 5.83317 14.1665 7.74151 14.1665 9.99984C14.1665 12.2582 12.2582 14.1665 9.99984 14.1665Z" fill="white"/>
</svg>
