<svg width="20" height="24" viewBox="0 0 20 24" fill="none" xmlns="http://www.w3.org/2000/svg">
<path d="M9.99996 23.6667C11.2833 23.6667 12.3333 22.6167 12.3333 21.3333H7.66663C7.66663 22.6167 8.71663 23.6667 9.99996 23.6667ZM17 16.6667V10.8333C17 7.25167 15.0983 4.25334 11.75 3.46V2.66667C11.75 1.69834 10.9683 0.916672 9.99996 0.916672C9.03162 0.916672 8.24996 1.69834 8.24996 2.66667V3.46C4.91329 4.25334 2.99996 7.24001 2.99996 10.8333V16.6667L0.666626 19V20.1667H19.3333V19L17 16.6667ZM14.6666 17.8333H5.33329V10.8333C5.33329 7.94 7.09496 5.58334 9.99996 5.58334C12.905 5.58334 14.6666 7.94 14.6666 10.8333V17.8333Z" fill="#B0B0B0"/>
</svg>
