<svg width="28" height="28" viewBox="0 0 28 28"  xmlns="http://www.w3.org/2000/svg">
<path d="M8.66252 4.98749C8.57502 5.16249 8.57502 5.24999 8.57502 5.42499V7.26249H6.65002C6.12502 7.34999 5.77502 7.43749 5.42502 7.87499C5.07502 8.31249 4.90002 8.66249 4.90002 9.09999V21.35C4.90002 21.875 5.07502 22.225 5.42502 22.575C5.77502 22.925 6.21252 23.1 6.65002 23.1H21.35C21.875 23.1 22.225 22.925 22.575 22.575C22.925 22.225 23.1 21.7875 23.1 21.35V9.09999C23.1 8.57499 22.925 8.22499 22.575 7.87499C22.225 7.52499 21.7875 7.34999 21.35 7.34999H19.425V5.42499C19.425 5.24999 19.3375 5.16249 19.25 4.98749C18.9875 4.72499 18.6375 4.72499 18.4625 4.98749C18.375 5.16249 18.375 5.24999 18.375 5.42499V7.26249H14.6125V5.42499C14.6125 5.24999 14.525 5.16249 14.4375 4.98749C14.175 4.72499 13.825 4.72499 13.65 4.98749C13.5625 5.07499 13.475 5.24999 13.475 5.42499V7.26249H9.62502V5.42499C9.62502 5.24999 9.62502 5.16249 9.53752 4.98749C9.27502 4.81249 8.92502 4.81249 8.66252 4.98749ZM9.53752 9.53749C9.62502 9.44999 9.71253 9.27499 9.71253 9.09999V8.39999H13.475V9.09999C13.475 9.27499 13.5625 9.36249 13.65 9.53749C13.9125 9.79999 14.2625 9.79999 14.4375 9.53749C14.525 9.44999 14.6125 9.27499 14.6125 9.09999V8.39999H18.375V9.09999C18.375 9.27499 18.4625 9.36249 18.55 9.53749C18.8125 9.79999 19.1625 9.79999 19.3375 9.53749C19.425 9.44999 19.5125 9.27499 19.5125 9.09999V8.39999H22.05V21.9625H6.03752V8.39999H8.57502V9.09999C8.57502 9.27499 8.66252 9.36249 8.75002 9.53749C8.92502 9.71249 9.27502 9.71249 9.53752 9.53749Z" />
<path d="M13.125 19.1625C12.95 19.1625 12.8625 19.075 12.775 18.9875L10.0625 16.275C9.88752 16.1 9.88752 15.75 10.0625 15.4875C10.2375 15.3125 10.5875 15.3125 10.85 15.4875L13.2125 17.85L17.4125 12.775C17.5875 12.5125 17.9375 12.5125 18.2 12.6875C18.4625 12.8625 18.4625 13.2125 18.2875 13.475L13.7375 18.9875C13.3875 19.075 13.3 19.1625 13.125 19.1625Z" />
</svg>
