 <svg class="color" xmlns="http://www.w3.org/2000/svg" width="20" height="20" viewBox="0 0 20 20">
                    <path
                      id="Header_Delete_white"
                      data-name="Header Delete white"
                      d="M11,12.49l8.2,8.2a1.053,1.053,0,0,0,1.49-1.49L12.49,11l8.2-8.2a1.053,1.053,0,0,0-1.49-1.49L11,9.51l-8.2-8.2a1.059,1.059,0,0,0-1.49,0A1.048,1.048,0,0,0,1,2.061a1,1,0,0,0,.306.735L9.51,11l-8.2,8.2a1.035,1.035,0,0,0,0,1.469,1.059,1.059,0,0,0,1.49,0Z"
                      transform="translate(-1 -1)"/>
                    </svg>