<svg width="16" height="16" viewBox="0 0 16 16" fill="none" xmlns="http://www.w3.org/2000/svg">
<path d="M7.99992 1.99967C7.99992 1.82286 7.92968 1.65329 7.80466 1.52827C7.67963 1.40325 7.51006 1.33301 7.33325 1.33301C7.15644 1.33301 6.98687 1.40325 6.86185 1.52827C6.73682 1.65329 6.66659 1.82286 6.66659 1.99967V6.66634H1.99992C1.82311 6.66634 1.65354 6.73658 1.52851 6.8616C1.40349 6.98663 1.33325 7.1562 1.33325 7.33301C1.33325 7.50982 1.40349 7.67939 1.52851 7.80441C1.65354 7.92944 1.82311 7.99967 1.99992 7.99967H6.66659V12.6663C6.66659 12.8432 6.73682 13.0127 6.86185 13.1377C6.98687 13.2628 7.15644 13.333 7.33325 13.333C7.51006 13.333 7.67963 13.2628 7.80466 13.1377C7.92968 13.0127 7.99992 12.8432 7.99992 12.6663V7.99967H12.6666C12.8434 7.99967 13.013 7.92944 13.138 7.80441C13.263 7.67939 13.3333 7.50982 13.3333 7.33301C13.3333 7.1562 13.263 6.98663 13.138 6.8616C13.013 6.73658 12.8434 6.66634 12.6666 6.66634H7.99992V1.99967Z" fill="#6B6B6B"/>
</svg>
