<svg width="16" height="16" viewBox="0 0 16 16"  xmlns="http://www.w3.org/2000/svg">
<path d="M8 2C8.49445 2 8.9778 2.14662 9.38893 2.42133C9.80005 2.69603 10.1205 3.08648 10.3097 3.54329C10.4989 4.00011 10.5484 4.50277 10.452 4.98773C10.3555 5.47268 10.1174 5.91814 9.76777 6.26777C9.41814 6.6174 8.97268 6.8555 8.48773 6.95196C8.00278 7.04843 7.50011 6.99892 7.04329 6.8097C6.58648 6.62048 6.19603 6.30005 5.92133 5.88893C5.64662 5.4778 5.5 4.99445 5.5 4.5C5.5 3.83696 5.76339 3.20107 6.23223 2.73223C6.70108 2.26339 7.33696 2 8 2V2ZM8 1C7.30777 1 6.63108 1.20527 6.05551 1.58986C5.47993 1.97444 5.03133 2.52107 4.76642 3.16061C4.50152 3.80015 4.4322 4.50388 4.56725 5.18282C4.7023 5.86175 5.03564 6.48539 5.52513 6.97487C6.01461 7.46436 6.63825 7.7977 7.31719 7.93275C7.99612 8.0678 8.69985 7.99848 9.33939 7.73358C9.97893 7.46867 10.5256 7.02007 10.9101 6.4445C11.2947 5.86892 11.5 5.19223 11.5 4.5C11.5 3.57174 11.1313 2.6815 10.4749 2.02513C9.8185 1.36875 8.92826 1 8 1V1Z" fill="#6B6B6B"/>
<path d="M9.5 10C9.79274 10 10.0829 10.0514 10.3574 10.1516C10.42 10.1745 10.49 10.1682 10.5455 10.1313L11.1482 9.73073C11.2681 9.65103 11.2665 9.47506 11.1393 9.40762C10.6389 9.14236 10.0768 9 9.5 9H6.5C5.57174 9 4.6815 9.36875 4.02513 10.0251C3.36875 10.6815 3 11.5717 3 12.5V14.8C3 14.9105 3.08954 15 3.2 15H3.8C3.91046 15 4 14.9105 4 14.8V12.5C4 11.837 4.26339 11.2011 4.73223 10.7322C5.20107 10.2634 5.83696 10 6.5 10H9.5Z" fill="#6B6B6B"/>
<path d="M15 12.2C15 12.0895 14.9105 12 14.8 12H13.2C13.0895 12 13 11.9105 13 11.8V10.2C13 10.0895 12.9105 10 12.8 10H12.2C12.0895 10 12 10.0895 12 10.2V11.8C12 11.9105 11.9105 12 11.8 12H10.2C10.0895 12 10 12.0895 10 12.2V12.8C10 12.9105 10.0895 13 10.2 13H11.8C11.9105 13 12 13.0895 12 13.2V14.8C12 14.9105 12.0895 15 12.2 15H12.8C12.9105 15 13 14.9105 13 14.8V13.2C13 13.0895 13.0895 13 13.2 13H14.8C14.9105 13 15 12.9105 15 12.8V12.2Z" fill="#6B6B6B"/>
</svg>