<svg width="28" height="28" viewBox="0 0 28 28"  xmlns="http://www.w3.org/2000/svg">
<path d="M22.4603 23.1107H5.80453C5.56745 23.1107 5.34009 23.0165 5.17245 22.8489C5.00481 22.6812 4.91063 22.4539 4.91063 22.2168V5.561C4.90777 5.47385 4.92246 5.38702 4.95384 5.30566C4.98521 5.22431 5.03263 5.1501 5.09327 5.08744C5.1539 5.02478 5.22652 4.97495 5.3068 4.94093C5.38708 4.9069 5.47338 4.88936 5.56058 4.88936C5.64777 4.88936 5.73408 4.9069 5.81436 4.94093C5.89464 4.97495 5.96725 5.02478 6.02789 5.08744C6.08853 5.1501 6.13594 5.22431 6.16732 5.30566C6.19869 5.38702 6.21339 5.47385 6.21053 5.561V21.8108H22.4603C22.629 21.8163 22.7889 21.8872 22.9063 22.0085C23.0237 22.1298 23.0893 22.292 23.0893 22.4607C23.0893 22.6295 23.0237 22.7917 22.9063 22.913C22.7889 23.0343 22.629 23.1052 22.4603 23.1107Z" />
<path d="M8.886 20.3233C8.80058 20.3234 8.71597 20.3066 8.63704 20.274C8.5581 20.2414 8.48637 20.1934 8.42596 20.133C8.36556 20.0726 8.31766 20.0009 8.28502 19.922C8.25237 19.843 8.23561 19.7584 8.2357 19.673V13.7013C8.23284 13.6142 8.24754 13.5273 8.27892 13.446C8.31029 13.3646 8.3577 13.2904 8.41834 13.2278C8.47897 13.1651 8.5516 13.1153 8.63188 13.0812C8.71216 13.0472 8.79847 13.0297 8.88566 13.0297C8.97285 13.0297 9.05915 13.0472 9.13943 13.0812C9.21971 13.1153 9.29234 13.1651 9.35297 13.2278C9.41361 13.2904 9.46102 13.3646 9.49239 13.446C9.52377 13.5273 9.53847 13.6142 9.53561 13.7013V19.673C9.5357 19.7584 9.51896 19.8429 9.48636 19.9218C9.45375 20.0007 9.40592 20.0724 9.34559 20.1328C9.28526 20.1932 9.21361 20.2411 9.13476 20.2738C9.0559 20.3065 8.97137 20.3233 8.886 20.3233ZM17.0249 20.3233C16.9395 20.3234 16.8549 20.3066 16.7759 20.274C16.697 20.2414 16.6253 20.1934 16.5649 20.133C16.5045 20.0726 16.4566 20.0009 16.4239 19.922C16.3913 19.843 16.3745 19.7584 16.3746 19.673V15.823C16.3718 15.7359 16.3864 15.649 16.4178 15.5677C16.4492 15.4863 16.4966 15.4121 16.5572 15.3495C16.6179 15.2868 16.6905 15.237 16.7708 15.2029C16.8511 15.1689 16.9374 15.1514 17.0246 15.1514C17.1118 15.1514 17.1981 15.1689 17.2783 15.2029C17.3586 15.237 17.4312 15.2868 17.4919 15.3495C17.5525 15.4121 17.5999 15.4863 17.6313 15.5677C17.6627 15.649 17.6774 15.7359 17.6745 15.823V19.673C17.6745 19.8454 17.6061 20.0107 17.4843 20.1326C17.3625 20.2545 17.1973 20.3231 17.0249 20.3233ZM12.9544 20.3233C12.869 20.3234 12.7844 20.3066 12.7054 20.274C12.6265 20.2414 12.5548 20.1934 12.4944 20.133C12.434 20.0726 12.3861 20.0009 12.3534 19.922C12.3208 19.843 12.304 19.7584 12.3041 19.673V11.973C12.3096 11.8043 12.3805 11.6444 12.5018 11.527C12.6231 11.4097 12.7853 11.344 12.9541 11.344C13.1228 11.344 13.285 11.4097 13.4063 11.527C13.5276 11.6444 13.5985 11.8043 13.604 11.973V19.673C13.6041 19.7584 13.5874 19.8429 13.5548 19.9218C13.5222 20.0007 13.4743 20.0724 13.414 20.1328C13.3537 20.1932 13.282 20.2411 13.2032 20.2738C13.1243 20.3065 13.0398 20.3233 12.9544 20.3233ZM21.0933 20.3233C21.0079 20.3234 20.9233 20.3066 20.8443 20.274C20.7654 20.2414 20.6937 20.1934 20.6333 20.133C20.5729 20.0726 20.525 20.0009 20.4923 19.922C20.4597 19.843 20.4429 19.7584 20.443 19.673V13.7013C20.4485 13.5326 20.5194 13.3727 20.6407 13.2553C20.762 13.138 20.9242 13.0723 21.093 13.0723C21.2617 13.0723 21.4239 13.138 21.5452 13.2553C21.6665 13.3727 21.7374 13.5326 21.7429 13.7013V19.673C21.743 19.7584 21.7263 19.8429 21.6937 19.9218C21.661 20.0007 21.6132 20.0724 21.5529 20.1328C21.4926 20.1932 21.4209 20.2411 21.3421 20.2738C21.2632 20.3065 21.1787 20.3233 21.0933 20.3233Z" />
</svg>
