<svg width="40" height="43" viewBox="0 0 40 43" fill="none" xmlns="http://www.w3.org/2000/svg">
<path d="M38.6413 7.3825C37.7728 4.165 31.3086 1 20.0008 1C8.69307 1 2.22807 4.165 1.36032 7.3825C1.29732 7.49275 1.25082 7.6135 1.25082 7.75V8.125V16.75V17.125V17.5V25.75V26.125V26.5V35.5C1.25082 35.6215 1.28307 35.7362 1.33857 35.8382C2.22432 39.5095 10.1488 42.25 20.0008 42.25C29.8303 42.25 37.7421 39.5207 38.6571 35.863C38.7171 35.7557 38.7508 35.632 38.7508 35.5V26.5V26.125V25.75V17.5V17.125V16.75V8.125V7.75C38.7508 7.6135 38.7043 7.49275 38.6413 7.3825ZM37.1916 26.4887C37.1706 26.5795 37.1413 26.6695 37.1046 26.761C37.0746 26.8352 37.0378 26.9095 36.9973 26.9837C36.9471 27.076 36.8908 27.1682 36.8241 27.2605C36.7746 27.3302 36.7183 27.3992 36.6598 27.4682C36.5766 27.5665 36.4881 27.6647 36.3876 27.7622C36.3268 27.8215 36.2601 27.88 36.1926 27.9392C36.0696 28.0465 35.9413 28.153 35.7981 28.2587C35.7366 28.3045 35.6706 28.3487 35.6053 28.3937C35.4358 28.5107 35.2588 28.627 35.0646 28.741C35.0136 28.7717 34.9588 28.801 34.9056 28.831C34.6821 28.957 34.4488 29.0822 34.1968 29.2037C34.1646 29.2195 34.1308 29.2345 34.0978 29.2495C33.8166 29.3822 33.5226 29.5127 33.2083 29.6387C33.1993 29.6425 33.1903 29.6455 33.1813 29.6492C31.4781 30.3295 29.2993 30.9017 26.7606 31.2767C26.7478 31.2782 26.7351 31.2797 26.7223 31.282C26.2288 31.3547 25.7226 31.4192 25.2028 31.4762C25.1181 31.4852 25.0288 31.4912 24.9433 31.5002C24.4896 31.5475 24.0306 31.591 23.5581 31.6255C23.3421 31.6412 23.1156 31.6487 22.8958 31.6622C22.5403 31.6832 22.1886 31.7065 21.8241 31.7192C21.2286 31.738 20.6211 31.75 20.0008 31.75C19.3806 31.75 18.7731 31.738 18.1768 31.717C17.8123 31.7042 17.4606 31.6802 17.1051 31.66C16.8853 31.6472 16.6588 31.639 16.4428 31.6232C15.9703 31.5887 15.5113 31.5452 15.0576 31.498C14.9721 31.489 14.8828 31.483 14.7981 31.474C14.2783 31.417 13.7721 31.3517 13.2786 31.2797C13.2658 31.2782 13.2531 31.2767 13.2403 31.2745C10.7016 30.8995 8.52282 30.3272 6.81957 29.647C6.81057 29.644 6.80157 29.6402 6.79257 29.6365C6.47832 29.5105 6.18357 29.38 5.90307 29.2472C5.87082 29.2315 5.83632 29.2165 5.80407 29.2015C5.55207 29.08 5.31882 28.9555 5.09532 28.8287C5.04282 28.7987 4.98732 28.7695 4.93632 28.7387C4.74207 28.6247 4.56507 28.5085 4.39557 28.3915C4.33107 28.3465 4.26432 28.3022 4.20282 28.2565C4.05957 28.1507 3.93132 28.0442 3.80832 27.937C3.74157 27.8785 3.67407 27.82 3.61332 27.76C3.51282 27.6625 3.42432 27.565 3.34107 27.466C3.28257 27.397 3.22632 27.328 3.17682 27.2582C3.11082 27.166 3.05457 27.0737 3.00357 26.9815C2.96307 26.9072 2.92707 26.833 2.89632 26.7587C2.85957 26.668 2.83032 26.5772 2.80932 26.4865C2.78157 26.3672 2.75082 26.2457 2.75082 26.125C2.75082 26.0402 2.76057 25.9555 2.77407 25.8715C2.79282 25.7582 2.78232 25.645 2.75082 25.5377V19.9697C2.77182 19.9892 2.79807 20.008 2.81982 20.0275C2.98332 20.1715 3.14982 20.3147 3.33732 20.4527C6.16257 22.5895 11.8123 24.25 20.0008 24.25C28.1548 24.25 33.7903 22.603 36.6276 20.479C36.8541 20.314 37.0581 20.1437 37.2501 19.9705L37.2508 19.9697V25.5377C37.2193 25.645 37.2088 25.7582 37.2276 25.8715C37.2418 25.9555 37.2508 26.0402 37.2508 26.125C37.2508 26.2457 37.2201 26.3672 37.1916 26.4887ZM37.2508 10.9697V16.5377C37.2193 16.645 37.2088 16.7582 37.2276 16.8715C37.2418 16.9555 37.2508 17.0402 37.2508 17.125C37.2508 17.2457 37.2201 17.3672 37.1916 17.4887C37.1706 17.5795 37.1413 17.6695 37.1046 17.761C37.0746 17.8352 37.0378 17.9095 36.9973 17.9837C36.9471 18.076 36.8908 18.1682 36.8241 18.2605C36.7746 18.3302 36.7183 18.3992 36.6598 18.4682C36.5766 18.5665 36.4881 18.6647 36.3876 18.7622C36.3268 18.8215 36.2601 18.88 36.1926 18.9392C36.0696 19.0465 35.9413 19.153 35.7981 19.2587C35.7366 19.3045 35.6706 19.3487 35.6053 19.3937C35.4358 19.5107 35.2588 19.627 35.0646 19.741C35.0136 19.7717 34.9588 19.801 34.9056 19.831C34.6821 19.957 34.4488 20.0822 34.1968 20.2037C34.1646 20.2195 34.1308 20.2345 34.0978 20.2495C33.8166 20.3822 33.5226 20.5127 33.2083 20.6387C33.1993 20.6425 33.1903 20.6455 33.1813 20.6492C31.4781 21.3295 29.2993 21.9017 26.7606 22.2767C26.7478 22.2782 26.7351 22.2797 26.7223 22.282C26.2288 22.3547 25.7226 22.4192 25.2028 22.4762C25.1181 22.4852 25.0288 22.4912 24.9433 22.5002C24.4896 22.5475 24.0306 22.591 23.5581 22.6255C23.3421 22.6412 23.1156 22.6487 22.8958 22.6622C22.5403 22.6832 22.1886 22.7065 21.8241 22.7192C21.2286 22.738 20.6211 22.75 20.0008 22.75C19.3806 22.75 18.7731 22.738 18.1768 22.717C17.8123 22.7042 17.4606 22.6802 17.1051 22.66C16.8853 22.6472 16.6588 22.639 16.4428 22.6232C15.9703 22.5887 15.5113 22.5452 15.0576 22.498C14.9721 22.489 14.8828 22.483 14.7981 22.474C14.2783 22.417 13.7721 22.3517 13.2786 22.2797C13.2658 22.2782 13.2531 22.2767 13.2403 22.2745C10.7016 21.8995 8.52282 21.3272 6.81957 20.647C6.81057 20.644 6.80157 20.6402 6.79257 20.6365C6.47832 20.5105 6.18357 20.38 5.90307 20.2472C5.87082 20.2315 5.83632 20.2165 5.80407 20.2015C5.55207 20.08 5.31882 19.9555 5.09532 19.8287C5.04282 19.7987 4.98732 19.7695 4.93632 19.7387C4.74207 19.6247 4.56507 19.5085 4.39557 19.3915C4.33107 19.3465 4.26432 19.3022 4.20282 19.2565C4.05957 19.1507 3.93132 19.0442 3.80832 18.937C3.74157 18.8785 3.67407 18.82 3.61332 18.76C3.51282 18.6625 3.42432 18.565 3.34107 18.466C3.28257 18.397 3.22632 18.328 3.17682 18.2582C3.11082 18.166 3.05457 18.0737 3.00357 17.9815C2.96307 17.9072 2.92707 17.833 2.89632 17.7587C2.85957 17.668 2.83032 17.5772 2.80932 17.4865C2.78157 17.3672 2.75082 17.2457 2.75082 17.125C2.75082 17.0402 2.76057 16.9555 2.77407 16.8715C2.79282 16.7582 2.78232 16.645 2.75082 16.5377V10.9697C2.84082 11.0515 2.94357 11.1317 3.04107 11.2127C3.09507 11.2577 3.14532 11.3027 3.20232 11.3477C3.42732 11.5247 3.67032 11.6995 3.93357 11.8697C3.98832 11.905 4.04982 11.9395 4.10682 11.9747C4.32732 12.112 4.56057 12.2462 4.80582 12.3782C4.89657 12.427 4.98732 12.475 5.08107 12.523C5.35482 12.6625 5.64207 12.7982 5.94432 12.9295C5.99382 12.9512 6.03882 12.9737 6.08907 12.9947C6.44082 13.144 6.81432 13.2865 7.20282 13.4245C7.31007 13.4627 7.42257 13.4987 7.53282 13.5362C7.84182 13.6405 8.16132 13.7402 8.49207 13.837C8.61132 13.8715 8.72832 13.9075 8.85057 13.9405C9.28932 14.062 9.74232 14.1775 10.2178 14.284C10.2831 14.299 10.3536 14.311 10.4196 14.3252C10.8388 14.4167 11.2738 14.5015 11.7208 14.581C11.8723 14.608 12.0261 14.6335 12.1806 14.659C12.6058 14.7287 13.0438 14.7925 13.4931 14.851C13.6086 14.866 13.7188 14.8832 13.8358 14.8975C14.3938 14.965 14.9713 15.0227 15.5646 15.0722C15.7108 15.0842 15.8631 15.0932 16.0116 15.1037C16.4863 15.1382 16.9716 15.1667 17.4681 15.1892C17.6488 15.1975 17.8288 15.2057 18.0133 15.2125C18.6598 15.2342 19.3183 15.25 20.0008 15.25C20.6833 15.25 21.3418 15.2342 21.9883 15.2125C22.1721 15.2057 22.3521 15.1975 22.5336 15.1892C23.0301 15.1667 23.5153 15.1382 23.9901 15.1037C24.1386 15.0925 24.2901 15.0842 24.4371 15.0722C25.0303 15.0235 25.6078 14.965 26.1658 14.8975C26.2828 14.8832 26.3931 14.866 26.5086 14.851C26.9578 14.7925 27.3951 14.7287 27.8211 14.659C27.9756 14.6335 28.1293 14.608 28.2808 14.581C28.7278 14.5015 29.1628 14.4167 29.5821 14.3252C29.6481 14.311 29.7186 14.2982 29.7838 14.284C30.2593 14.1775 30.7123 14.0612 31.1511 13.9405C31.2733 13.9067 31.3903 13.8715 31.5096 13.837C31.8403 13.7402 32.1598 13.6405 32.4688 13.5362C32.5791 13.4987 32.6916 13.4627 32.7988 13.4245C33.1873 13.2865 33.5616 13.144 33.9126 12.9947C33.9628 12.9737 34.0078 12.9512 34.0573 12.9295C34.3596 12.7975 34.6468 12.6625 34.9206 12.523C35.0143 12.475 35.1058 12.427 35.1958 12.3782C35.4411 12.247 35.6743 12.1127 35.8948 11.9747C35.9518 11.9395 36.0133 11.905 36.0681 11.8697C36.3313 11.6995 36.5743 11.5255 36.7993 11.3477C36.8556 11.3027 36.9058 11.2577 36.9606 11.2127C37.0581 11.1317 37.1608 11.0515 37.2508 10.9697ZM20.0008 2.5C30.1671 2.5 37.2508 5.464 37.2508 8.125C37.2508 10.786 30.1671 13.75 20.0008 13.75C9.83457 13.75 2.75082 10.786 2.75082 8.125C2.75082 5.464 9.83457 2.5 20.0008 2.5ZM37.2508 35.2772C37.2403 35.3102 37.2328 35.344 37.2268 35.3785C36.8016 37.9727 29.7778 40.75 20.0008 40.75C10.2238 40.75 3.20007 37.9727 2.77482 35.3785C2.76882 35.3447 2.76057 35.3117 2.75082 35.2802V28.9697C2.77182 28.9892 2.79807 29.008 2.81982 29.0275C2.98332 29.1715 3.14982 29.3147 3.33732 29.4527C6.16257 31.5895 11.8123 33.25 20.0008 33.25C28.1548 33.25 33.7903 31.603 36.6276 29.479C36.8541 29.314 37.0581 29.1437 37.2501 28.9705L37.2508 28.9697V35.2772Z" fill="url(#paint0_linear)" stroke="url(#paint1_linear)"/>
<defs>
<linearGradient id="paint0_linear" x1="20.0008" y1="1" x2="20.0008" y2="42.25" gradientUnits="userSpaceOnUse">
<stop stop-color="#FFB31F"/>
<stop offset="1" stop-color="#EC7121"/>
</linearGradient>
<linearGradient id="paint1_linear" x1="20.0008" y1="1" x2="20.0008" y2="42.25" gradientUnits="userSpaceOnUse">
<stop stop-color="#FFB31F"/>
<stop offset="1" stop-color="#EC7121"/>
</linearGradient>
</defs>
</svg>
