
<svg width="120" height="120" viewBox="0 0 120 120" fill="none" xmlns="http://www.w3.org/2000/svg">
<rect width="120" height="120" fill="#B3BCDD"/>
<path d="M56.526 24.828C57.5405 24.108 58.7537 23.7212 59.9977 23.7212C61.2418 23.7212 62.455 24.108 63.4695 24.828L89.8035 43.512C93.075 45.834 91.437 50.991 87.4275 51H32.5815C28.5585 51 26.9115 45.8385 30.1965 43.512L56.526 24.828ZM60 41.4375C60.9947 41.4375 61.9488 41.0423 62.6522 40.3389C63.3556 39.6355 63.7507 38.6815 63.7507 37.6867C63.7507 36.692 63.3556 35.7379 62.6522 35.0345C61.9488 34.3311 60.9947 33.936 60 33.936C59.0052 33.936 58.0512 34.3311 57.3478 35.0345C56.6444 35.7379 56.2492 36.692 56.2492 37.6867C56.2492 38.6815 56.6444 39.6355 57.3478 40.3389C58.0512 41.0423 59.0052 41.4375 60 41.4375Z" fill="white"/>
<path d="M35.25 55.5V73.5H44.25V55.5H35.25Z" fill="white"/>
<path d="M28.5 87.7515C28.5 82.365 32.865 78 38.247 78H81.7485C87.135 78 91.5 82.365 91.5 87.7515V89.25C91.5 89.8468 91.263 90.419 90.841 90.841C90.4191 91.263 89.8468 91.5 89.25 91.5H30.75C30.1533 91.5 29.581 91.263 29.159 90.841C28.7371 90.419 28.5 89.8468 28.5 89.25V87.7515Z" fill="white"/>
<path d="M84.75 55.5V73.5H75.75V55.5H84.75Z" fill="white"/>
<path d="M71.25 55.5V73.5H62.25V55.5H71.25Z" fill="white"/>
<path d="M57.75 55.5V73.5H48.75V55.5H57.75Z" fill="white"/>
</svg>
