<svg width="16" height="16" viewBox="0 0 16 16" fill="none" xmlns="http://www.w3.org/2000/svg">
<path d="M8 0.000976568C8.64894 0.000934078 9.2733 0.249217 9.74499 0.694892C10.2167 1.14057 10.5 1.74985 10.5367 2.39775L10.5406 2.54158H14.6447C14.7932 2.54163 14.9362 2.59806 15.0447 2.69947C15.1533 2.80088 15.2193 2.93972 15.2294 3.08792C15.2395 3.23612 15.193 3.38264 15.0993 3.49787C15.0056 3.6131 14.8716 3.68845 14.7244 3.7087L14.6447 3.71417H14.0224L13.0218 13.8922C12.9717 14.3997 12.7428 14.8727 12.3761 15.227C12.0094 15.5813 11.5287 15.7936 11.0198 15.8262L10.8822 15.8309H5.11778C4.60767 15.8309 4.1142 15.6495 3.72553 15.3191C3.33687 14.9887 3.07835 14.5309 2.99618 14.0275L2.9782 13.8915L1.97681 3.71417H1.35534C1.21366 3.71417 1.07678 3.66286 0.970001 3.56973C0.863226 3.47661 0.793783 3.34798 0.774515 3.20761L0.769043 3.12788C0.769049 2.9862 0.820357 2.84932 0.91348 2.74254C1.0066 2.63577 1.13524 2.56632 1.2756 2.54706L1.35534 2.54158H5.45939C5.45939 1.86777 5.72707 1.22156 6.20352 0.745103C6.67998 0.268647 7.32619 0.000976568 8 0.000976568ZM12.8444 3.71417H3.15487L4.14531 13.7765C4.16725 14.0011 4.26619 14.2111 4.42535 14.3709C4.58451 14.5308 4.79408 14.6307 5.0185 14.6536L5.11778 14.6583H10.8822C11.3513 14.6583 11.7492 14.3261 11.8398 13.875L11.8555 13.7765L12.8436 3.71417H12.8444ZM9.36802 5.86392C9.5097 5.86392 9.64658 5.91523 9.75336 6.00835C9.86013 6.10148 9.92958 6.23011 9.94884 6.37047L9.95432 6.45021V11.9223C9.95427 12.0708 9.89784 12.2138 9.79643 12.3224C9.69502 12.4309 9.55618 12.4969 9.40798 12.507C9.25978 12.5172 9.11326 12.4707 8.99803 12.3769C8.8828 12.2832 8.80745 12.1492 8.7872 12.002L8.78173 11.9223V6.45021C8.78173 6.29471 8.8435 6.14559 8.95345 6.03564C9.0634 5.92569 9.21253 5.86392 9.36802 5.86392ZM6.63198 5.86392C6.77366 5.86392 6.91054 5.91523 7.01732 6.00835C7.12409 6.10148 7.19354 6.23011 7.2128 6.37047L7.21828 6.45021V11.9223C7.21823 12.0708 7.1618 12.2138 7.06039 12.3224C6.95898 12.4309 6.82015 12.4969 6.67194 12.507C6.52374 12.5172 6.37722 12.4707 6.26199 12.3769C6.14676 12.2832 6.07141 12.1492 6.05116 12.002L6.04569 11.9223V6.45021C6.04569 6.29471 6.10746 6.14559 6.21741 6.03564C6.32736 5.92569 6.47649 5.86392 6.63198 5.86392ZM8 1.17356C7.65668 1.17358 7.32591 1.30268 7.07335 1.53525C6.8208 1.76782 6.66492 2.08685 6.63667 2.42902L6.63198 2.54158H9.36802C9.36802 2.17876 9.22389 1.8308 8.96734 1.57425C8.71078 1.31769 8.36282 1.17356 8 1.17356Z" fill="currentColor"/>
</svg>
