<svg xmlns="http://www.w3.org/2000/svg" width="15.559" height="16.501" viewBox="0 0 15.559 16.501">
  <g id="Group_1295" data-name="Group 1295" transform="translate(-977.218 -588)">
    <path id="Subtraction_1" data-name="Subtraction 1" d="M7.338,15.1H0v-.388a5.979,5.979,0,0,1,1-3.286A7.128,7.128,0,0,1,3.7,9.04.368.368,0,0,1,3.869,9a.356.356,0,0,1,.119.02.374.374,0,0,1,.217.193.392.392,0,0,1-.167.519,5.776,5.776,0,0,0-3.271,4.6H7.253a6.542,6.542,0,0,0,.086.774ZM9.4,9.161h0a7.211,7.211,0,0,0-1.89-.253.174.174,0,0,1-.039,0c-.052,0-.1,0-.148,0A4.392,4.392,0,0,1,3,4.454,4.393,4.393,0,0,1,7.322,0a4.393,4.393,0,0,1,4.318,4.454A4.482,4.482,0,0,1,9.4,8.361c.257.063.508.138.747.222A6.553,6.553,0,0,0,9.4,9.16ZM7.322.774a3.629,3.629,0,0,0-3.568,3.68A3.629,3.629,0,0,0,7.322,8.133a3.628,3.628,0,0,0,3.567-3.679A3.629,3.629,0,0,0,7.322.774Z" transform="translate(977.218 588)"/>
    <path id="Subtraction_2" data-name="Subtraction 2" d="M3.822-1833H3.178a.25.25,0,0,1-.253-.207l-.115-.645a1.826,1.826,0,0,1-.691-.276l-.552.391a.266.266,0,0,1-.157.049.2.2,0,0,1-.166-.072l-.23-.23-.23-.23a.278.278,0,0,1-.023-.322l.391-.53a2.387,2.387,0,0,1-.276-.714l-.668-.115a.269.269,0,0,1-.207-.253v-.645a.25.25,0,0,1,.207-.253l.645-.115a1.912,1.912,0,0,1,.276-.714l-.391-.553a.27.27,0,0,1-.047-.194.19.19,0,0,1,.07-.128l.23-.23.23-.23a.323.323,0,0,1,.189-.065.22.22,0,0,1,.133.042l.53.391a2.393,2.393,0,0,1,.714-.276l.115-.667a.269.269,0,0,1,.253-.207H3.8a.25.25,0,0,1,.253.207l.115.667a2.6,2.6,0,0,1,.737.3l.529-.391a.265.265,0,0,1,.157-.049.2.2,0,0,1,.166.072l.23.23.23.23a.278.278,0,0,1,.023.322l-.391.53a2.391,2.391,0,0,1,.276.714l.668.115A.269.269,0,0,1,7-1836.8v.645a.25.25,0,0,1-.207.253l-.645.115a2.445,2.445,0,0,1-.3.714l.391.53a.246.246,0,0,1-.023.322l-.23.23-.23.23a.323.323,0,0,1-.189.065.22.22,0,0,1-.133-.042l-.529-.391a2.382,2.382,0,0,1-.714.276l-.115.645A.269.269,0,0,1,3.822-1833Zm-.318-4.875a1.4,1.4,0,0,0-.326.039,1.376,1.376,0,0,0-.885.618,1.372,1.372,0,0,0-.174,1.063,1.391,1.391,0,0,0,1.354,1.1,1.4,1.4,0,0,0,.327-.039,1.458,1.458,0,0,0,.9-.657,1.339,1.339,0,0,0,.161-1.024A1.391,1.391,0,0,0,3.5-1837.874Z" transform="translate(985.277 2437)" stroke="rgba(0,0,0,0)" stroke-miterlimit="10" stroke-width="1"/>
  </g>
</svg>
