<svg width="24" height="24" viewBox="0 0 24 24" fill="none" xmlns="http://www.w3.org/2000/svg">
<path d="M12 23.5C18.3513 23.5 23.5 18.3513 23.5 12C23.5 5.64873 18.3513 0.5 12 0.5C5.64873 0.5 0.5 5.64873 0.5 12C0.5 18.3513 5.64873 23.5 12 23.5Z" stroke="#DBDBDB"/>
<path d="M18 8.673V15.06C17.9988 15.1227 17.9908 15.1851 17.976 15.246V15.258C17.9218 15.4725 17.7969 15.6625 17.6215 15.7974C17.446 15.9322 17.2303 16.0039 17.009 16.001H7.18802C7.00315 16.003 6.82021 15.9633 6.6528 15.8849C6.48538 15.8065 6.3378 15.6913 6.22102 15.548C6.07656 15.3665 5.99857 15.141 6.00002 14.909V8.848C6.00206 8.66763 6.06294 8.49286 6.1734 8.35027C6.28387 8.20767 6.43788 8.10504 6.61202 8.058H6.62402C6.76403 8.02079 6.90816 8.00131 7.05302 8H17.4C17.412 8 17.437 8.012 17.449 8.012C17.5811 8.0216 17.7058 8.07666 17.8019 8.16781C17.898 8.25897 17.9595 8.38059 17.976 8.512C17.9892 8.56545 17.9972 8.62003 18 8.675V8.673ZM12 12.8L17.29 8.585C16.519 8.539 6.88202 8.562 6.77202 8.608L12 12.8ZM13.567 12.3L12.233 13.364C12.1712 13.4254 12.0876 13.4598 12.0005 13.4598C11.9134 13.4598 11.8298 13.4254 11.768 13.364L11.2 12.911L10.453 12.311L6.95502 15.4L6.96702 15.423H17.2L13.567 12.3ZM9.99102 11.94L6.61102 9.235V14.92L9.99102 11.936V11.94ZM14.032 11.928L17.399 14.828V9.228L14.033 11.925L14.032 11.928Z" fill="#363636"/>
</svg>
