<svg width="20" height="20" viewBox="0 0 20 20" fill="none" xmlns="http://www.w3.org/2000/svg">
<path d="M18.9888 5.64124C18.9701 5.58346 18.9369 5.53141 18.8925 5.48999L13.8325 0.374988C13.7379 0.289799 13.616 0.241059 13.4888 0.237488H6.40752C6.07358 0.237443 5.74298 0.303869 5.43497 0.432894C5.12697 0.561919 4.84772 0.750962 4.61352 0.989004C4.37932 1.22705 4.19484 1.50933 4.07084 1.81939C3.94684 2.12945 3.8858 2.46109 3.89127 2.79499V6.41124H1.66377C1.35984 6.41486 1.06958 6.53814 0.855938 6.75435C0.642298 6.97057 0.5225 7.26228 0.522522 7.56624V14.6475C0.5225 14.9514 0.642298 15.2432 0.855938 15.4594C1.06958 15.6756 1.35984 15.7989 1.66377 15.8025H3.89127V16.9712C3.89127 17.301 3.95645 17.6276 4.08307 17.9321C4.20969 18.2366 4.39526 18.5131 4.62909 18.7457C4.86293 18.9782 5.14043 19.1623 5.44563 19.2872C5.75084 19.4122 6.07773 19.4756 6.40752 19.4737H11.9763C12.1039 19.4737 12.2263 19.423 12.3166 19.3328C12.4068 19.2425 12.4575 19.1201 12.4575 18.9925C12.4575 18.8649 12.4068 18.7424 12.3166 18.6522C12.2263 18.5619 12.1039 18.5112 11.9763 18.5112H6.40752C5.99781 18.5113 5.60468 18.3494 5.31369 18.061C5.0227 17.7726 4.8574 17.3809 4.85377 16.9712V15.8025H10.3538C10.659 15.7989 10.9507 15.6761 11.1665 15.4602C11.3824 15.2444 11.5052 14.9527 11.5088 14.6475V7.56624C11.5052 7.26102 11.3824 6.96931 11.1665 6.75348C10.9507 6.53764 10.659 6.41481 10.3538 6.41124H4.85377V2.79499C4.8574 2.3853 5.0227 1.99362 5.31369 1.7052C5.60468 1.41678 5.99781 1.25497 6.40752 1.25499H13.0075V4.81624C13.0075 5.21373 13.1654 5.59494 13.4465 5.87601C13.7276 6.15708 14.1088 6.31499 14.5063 6.31499H18.0675V10.9212C18.0675 11.0489 18.1182 11.1713 18.2085 11.2615C18.2987 11.3518 18.4211 11.4025 18.5488 11.4025C18.6764 11.4025 18.7988 11.3518 18.8891 11.2615C18.9793 11.1713 19.03 11.0489 19.03 10.9212V5.87499C19.0379 5.79476 19.0237 5.7139 18.9888 5.64124ZM4.88127 8.83124L5.98127 10.6187L7.09502 8.83124H7.23252H7.71377H7.85127C7.85739 8.84413 7.86056 8.85822 7.86056 8.87249C7.86056 8.88676 7.85739 8.90085 7.85127 8.91374V9.05124L6.47627 11.2925L7.96127 13.6575C7.97311 13.6979 7.97311 13.7408 7.96127 13.7812C7.96739 13.7941 7.97056 13.8082 7.97056 13.8225C7.97056 13.8368 7.96739 13.8508 7.96127 13.8637H7.81002H7.39752H7.24627H7.15002L5.95377 11.8425L4.79877 13.7537H4.70252H4.56502H4.02877C3.9791 13.766 3.9272 13.766 3.87752 13.7537C3.87028 13.7412 3.86647 13.727 3.86647 13.7125C3.86647 13.698 3.87028 13.6838 3.87752 13.6712C3.86568 13.6308 3.86568 13.5879 3.87752 13.5475L5.39002 11.2787L4.01502 9.02374C4.009 8.98271 4.009 8.94102 4.01502 8.89999C4.0061 8.88809 4.00127 8.87361 4.00127 8.85874C4.00127 8.84386 4.0061 8.82939 4.01502 8.81749C4.04774 8.79213 4.08511 8.77345 4.12502 8.76249H4.64752H4.79877L4.88127 8.83124ZM14.5063 5.35249C14.4353 5.35438 14.3648 5.3418 14.2988 5.31553C14.2329 5.28925 14.1731 5.24981 14.1229 5.19964C14.0727 5.14946 14.0333 5.08959 14.007 5.02367C13.9807 4.95775 13.9681 4.88717 13.97 4.81624V1.92874L17.3938 5.35249H14.5063Z" fill="black" fill-opacity="0.56"/>
</svg>
