<svg xmlns="http://www.w3.org/2000/svg" xmlns:xlink="http://www.w3.org/1999/xlink" width="48" height="48" viewBox="0 0 48 48">
  <defs>
    <clipPath id="clip-path">
      <circle id="Ellipse_87" data-name="Ellipse 87" cx="24" cy="24" r="24" transform="translate(9806 -169)" fill="#fff"/>
    </clipPath>
    <linearGradient id="linear-gradient" x1="0.5" y1="-0.059" x2="0.5" y2="1.086" gradientUnits="objectBoundingBox">
      <stop offset="0" stop-color="#32a2fb"/>
      <stop offset="1" stop-color="#175bee"/>
    </linearGradient>
    <linearGradient id="linear-gradient-2" x1="-0.001" y1="0.502" x2="1.002" y2="0.502" gradientUnits="objectBoundingBox">
      <stop offset="0" stop-color="#f6f6f6"/>
      <stop offset="1" stop-color="#ededed"/>
    </linearGradient>
    <linearGradient id="linear-gradient-3" x1="0.003" y1="0.501" x2="0.997" y2="0.501" xlink:href="#linear-gradient-2"/>
  </defs>
  <g id="Mask_Group_1" data-name="Mask Group 1" transform="translate(-9806 169)" clip-path="url(#clip-path)">
    <g id="Post_Emoji_Like" data-name="Post Emoji Like" transform="translate(9806 -169)">
      <g id="Group_479" data-name="Group 479">
        <circle id="Ellipse_88" data-name="Ellipse 88" cx="24" cy="24" r="24" fill="url(#linear-gradient)"/>
      </g>
      <g id="Group_480" data-name="Group 480" transform="translate(12.098 10.58)">
        <path id="Path_406" data-name="Path 406" d="M14.78,17.265H11.6A2.143,2.143,0,0,0,9.441,19.42v8.473A2.143,2.143,0,0,0,11.6,30.049H14.78Z" transform="translate(-9.441 -5.314)" fill="url(#linear-gradient-2)"/>
        <path id="Path_407" data-name="Path 407" d="M31.531,26.327a2.733,2.733,0,0,0-.2-1.029,3.414,3.414,0,0,0,.735-2.057,3.434,3.434,0,0,0-.686-1.812A2.764,2.764,0,0,0,30.7,18.2c-.833-.735-2.253-1.078-4.212-.98a15.761,15.761,0,0,0-2.6.343h0c-.245.049-.539.1-.833.147a10.4,10.4,0,0,1,.637-3.037c.735-2.2.686-3.918-.147-5.094A3.37,3.37,0,0,0,20.9,8.3a1.41,1.41,0,0,0-1.029.441,3.618,3.618,0,0,0-.441,2.5c-.686,1.861-2.645,6.367-4.261,7.641-.049,0-.049.049-.1.049a5.544,5.544,0,0,0-.49.637V32.694l.931.1a50.953,50.953,0,0,0,6.955.392c.637.049,1.224.049,1.763.049a12.09,12.09,0,0,0,2.449-.2,4.508,4.508,0,0,0,3.233-2.008,2.576,2.576,0,0,0,.392-1.959A3.425,3.425,0,0,0,31.531,26.327Z" transform="translate(-7.727 -8.302)" fill="url(#linear-gradient-3)"/>
      </g>
    </g>
  </g>
</svg>
