<svg width="16" height="16" viewBox="0 0 16 16" fill="none" xmlns="http://www.w3.org/2000/svg">
<path d="M11.8194 10.9091H4.12695C2.60735 10.9091 1.25498 9.79636 1.10957 8.28364C1.06977 7.87964 1.115 7.47178 1.24232 7.08632C1.36965 6.70086 1.57626 6.34635 1.84886 6.04559C2.12145 5.74484 2.45398 5.50451 2.82505 5.34009C3.19612 5.17566 3.5975 5.09078 4.00334 5.09091H12.99C13.9425 5.09091 14.8077 5.77455 14.9023 6.72C14.9288 6.97355 14.9017 7.22985 14.8227 7.47225C14.7438 7.71464 14.6148 7.93773 14.444 8.12701C14.2733 8.3163 14.0647 8.46756 13.8318 8.57097C13.5988 8.67438 13.3467 8.72764 13.0918 8.72727H5.4575C5.05761 8.72727 4.73042 8.4 4.73042 8C4.73042 7.6 5.05761 7.27273 5.4575 7.27273H11.8194C12.1176 7.27273 12.3648 7.02546 12.3648 6.72728C12.3648 6.42909 12.1176 6.18182 11.8194 6.18182H5.55929C4.60682 6.18182 3.74159 6.86546 3.64707 7.81091C3.62057 8.06446 3.64766 8.32076 3.72661 8.56316C3.80555 8.80555 3.93457 9.02864 4.10529 9.21792C4.27602 9.40721 4.48463 9.55847 4.71758 9.66188C4.95054 9.76529 5.20264 9.81855 5.4575 9.81818H12.9682C14.4878 9.81818 15.8402 8.70546 15.9856 7.19273C16.026 6.78862 15.9812 6.38053 15.854 5.99482C15.7269 5.60912 15.5204 5.25437 15.2476 4.95349C14.9749 4.65261 14.6422 4.41229 14.2708 4.24805C13.8995 4.08382 13.4979 3.99931 13.0918 4H4.17057C2.08385 4 0.215258 5.52728 0.018947 7.60728C-0.0353297 8.16327 0.0273197 8.72447 0.202867 9.2548C0.378414 9.78513 0.662973 10.2728 1.03825 10.6866C1.41352 11.1003 1.8712 11.4309 2.38186 11.6571C2.89252 11.8833 3.44485 12.0001 4.00334 12H11.8194C12.1176 12 12.3648 11.7527 12.3648 11.4545C12.3648 11.1564 12.1176 10.9091 11.8194 10.9091Z" fill="currentColor"/>
</svg>
