<svg width="16" height="16" viewBox="0 0 16 16" fill="none" xmlns="http://www.w3.org/2000/svg">
<path d="M8.00002 10.6177C7.72833 10.6177 7.46777 10.7256 7.27566 10.9178C7.08355 11.1099 6.97562 11.3704 6.97562 11.6421C6.97562 11.9138 7.08355 12.1744 7.27566 12.3665C7.46777 12.5586 7.72833 12.6665 8.00002 12.6665C8.27171 12.6665 8.53226 12.5586 8.72438 12.3665C8.91649 12.1744 9.02441 11.9138 9.02441 11.6421C9.02441 11.3704 8.91649 11.1099 8.72438 10.9178C8.53226 10.7256 8.27171 10.6177 8.00002 10.6177Z" fill="#6B6B6B"/>
<path d="M8.00051 6.97514C7.86598 6.97514 7.73277 7.00163 7.60849 7.05311C7.4842 7.10459 7.37127 7.18005 7.27615 7.27517C7.18103 7.3703 7.10557 7.48323 7.05409 7.60751C7.00261 7.7318 6.97611 7.86501 6.97611 7.99953C6.97611 8.13406 7.00261 8.26726 7.05409 8.39155C7.10557 8.51584 7.18103 8.62876 7.27615 8.72389C7.37127 8.81901 7.4842 8.89447 7.60849 8.94595C7.73277 8.99743 7.86598 9.02393 8.00051 9.02393C8.27219 9.02393 8.53275 8.916 8.72486 8.72389C8.91698 8.53178 9.0249 8.27122 9.0249 7.99953C9.0249 7.72784 8.91698 7.46729 8.72486 7.27517C8.53275 7.08306 8.27219 6.97514 8.00051 6.97514Z" fill="#6B6B6B"/>
<path d="M6.97611 4.35744C6.97611 4.22292 7.00261 4.08971 7.05409 3.96542C7.10557 3.84114 7.18103 3.72821 7.27615 3.63308C7.37127 3.53796 7.4842 3.4625 7.60849 3.41102C7.73277 3.35954 7.86598 3.33305 8.00051 3.33305C8.13503 3.33305 8.26824 3.35954 8.39253 3.41102C8.51681 3.4625 8.62974 3.53796 8.72486 3.63308C8.81999 3.72821 8.89544 3.84114 8.94692 3.96542C8.99841 4.08971 9.0249 4.22292 9.0249 4.35744C9.0249 4.62913 8.91698 4.88969 8.72486 5.0818C8.53275 5.27391 8.27219 5.38184 8.00051 5.38184C7.72882 5.38184 7.46826 5.27391 7.27615 5.0818C7.08404 4.88969 6.97611 4.62913 6.97611 4.35744Z" fill="#6B6B6B"/>
</svg>
