<svg width="40" height="40" viewBox="0 0 40 40" fill="none" xmlns="http://www.w3.org/2000/svg">
<rect width="40" height="40" rx="4" fill="url(#paint0_linear)"/>
<path d="M20 7.25C17.4783 7.25 15.0132 7.99777 12.9165 9.39876C10.8198 10.7998 9.18556 12.791 8.22054 15.1208C7.25552 17.4505 7.00303 20.0141 7.49499 22.4874C7.98696 24.9607 9.20127 27.2325 10.9844 29.0156C12.7675 30.7987 15.0393 32.0131 17.5126 32.505C19.9859 32.997 22.5495 32.7445 24.8792 31.7795C27.209 30.8144 29.2003 29.1802 30.6012 27.0835C32.0022 24.9868 32.75 22.5217 32.75 20C32.7462 16.6197 31.4017 13.3789 29.0114 10.9886C26.6212 8.59833 23.3804 7.2538 20 7.25ZM20 31.25C17.775 31.25 15.5999 30.5902 13.7498 29.354C11.8998 28.1179 10.4578 26.3609 9.60636 24.3052C8.75488 22.2495 8.53209 19.9875 8.96617 17.8052C9.40026 15.6229 10.4717 13.6184 12.0451 12.045C13.6184 10.4717 15.623 9.40025 17.8052 8.96617C19.9875 8.53208 22.2495 8.75487 24.3052 9.60636C26.3609 10.4578 28.1179 11.8998 29.354 13.7498C30.5902 15.5999 31.25 17.775 31.25 20C31.2466 22.9826 30.0603 25.8422 27.9512 27.9512C25.8422 30.0603 22.9827 31.2466 20 31.25ZM24.75 22.5C24.7491 23.3617 24.4063 24.1878 23.797 24.797C23.1878 25.4063 22.3617 25.749 21.5 25.75H20.75V27C20.75 27.1989 20.671 27.3897 20.5303 27.5303C20.3897 27.671 20.1989 27.75 20 27.75C19.8011 27.75 19.6103 27.671 19.4697 27.5303C19.329 27.3897 19.25 27.1989 19.25 27V25.75H17C16.8011 25.75 16.6103 25.671 16.4697 25.5303C16.329 25.3897 16.25 25.1989 16.25 25C16.25 24.8011 16.329 24.6103 16.4697 24.4697C16.6103 24.329 16.8011 24.25 17 24.25H21.5C21.9641 24.25 22.4093 24.0656 22.7374 23.7374C23.0656 23.4092 23.25 22.9641 23.25 22.5C23.25 22.0359 23.0656 21.5908 22.7374 21.2626C22.4093 20.9344 21.9641 20.75 21.5 20.75H18.5C17.6381 20.75 16.8114 20.4076 16.2019 19.7981C15.5924 19.1886 15.25 18.362 15.25 17.5C15.25 16.638 15.5924 15.8114 16.2019 15.2019C16.8114 14.5924 17.6381 14.25 18.5 14.25H19.25V13C19.25 12.8011 19.329 12.6103 19.4697 12.4697C19.6103 12.329 19.8011 12.25 20 12.25C20.1989 12.25 20.3897 12.329 20.5303 12.4697C20.671 12.6103 20.75 12.8011 20.75 13V14.25H23C23.1989 14.25 23.3897 14.329 23.5303 14.4697C23.671 14.6103 23.75 14.8011 23.75 15C23.75 15.1989 23.671 15.3897 23.5303 15.5303C23.3897 15.671 23.1989 15.75 23 15.75H18.5C18.0359 15.75 17.5908 15.9344 17.2626 16.2626C16.9344 16.5908 16.75 17.0359 16.75 17.5C16.75 17.9641 16.9344 18.4092 17.2626 18.7374C17.5908 19.0656 18.0359 19.25 18.5 19.25H21.5C22.3617 19.251 23.1878 19.5937 23.797 20.203C24.4063 20.8122 24.7491 21.6383 24.75 22.5Z" fill="white"/>
<defs>
<linearGradient id="paint0_linear" x1="20" y1="0" x2="20" y2="40" gradientUnits="userSpaceOnUse">
<stop stop-color="#FACE34"/>
<stop offset="1" stop-color="#F4B000"/>
</linearGradient>
</defs>
</svg>