<svg width="40" height="40" viewBox="0 0 40 40" fill="none" xmlns="http://www.w3.org/2000/svg">
<rect width="40" height="40" rx="4" fill="url(#paint0_linear)"/>
<path d="M30.625 12.9661L30.5677 12.8826V12.811L25.6292 7.21511C25.5743 7.16583 25.5124 7.12559 25.4458 7.09579H25.3885C25.301 7.04235 25.2032 7.00975 25.1021 7.00034H13.3115C12.4473 6.98757 11.6135 7.33204 10.9928 7.95825C10.3721 8.58446 10.0151 9.44136 10 10.3412V29.9088C10.0151 30.8086 10.3721 31.6655 10.9928 32.2917C11.6135 32.918 12.4473 33.2624 13.3115 33.2497H27.3135C28.1777 33.2624 29.0115 32.918 29.6322 32.2917C30.2529 31.6655 30.6099 30.8086 30.625 29.9088V13.1093C30.625 13.1093 30.625 13.0258 30.625 12.9661ZM25.8125 12.453V9.45823L28.4479 12.453H25.8125ZM25.125 13.7894H29.2729V29.885C29.273 30.1507 29.222 30.4138 29.123 30.6587C29.024 30.9036 28.8789 31.1254 28.6963 31.3111C28.5138 31.4967 28.2974 31.6425 28.0599 31.7398C27.8224 31.8371 27.5687 31.8839 27.3135 31.8775H13.3115C13.0587 31.8823 12.8074 31.8351 12.5721 31.7387C12.3368 31.6424 12.1221 31.4987 11.9401 31.3158C11.7582 31.133 11.6126 30.9147 11.5117 30.6732C11.4108 30.4318 11.3566 30.1721 11.3521 29.9088V10.3054C11.3566 10.0421 11.4108 9.78237 11.5117 9.54096C11.6126 9.29954 11.7582 9.08119 11.9401 8.89837C12.1221 8.71555 12.3368 8.57185 12.5721 8.47547C12.8074 8.37909 13.0587 8.33193 13.3115 8.33667H24.449V13.1093C24.4549 13.2918 24.5287 13.4648 24.6549 13.5917C24.781 13.7186 24.9496 13.7895 25.125 13.7894V13.7894Z" fill="white" stroke="white" stroke-width="0.25"/>
<path d="M15.625 21.1125L14.375 22.2625L18.7125 26.25L25.625 19.9L24.375 18.75L18.7125 23.95L15.625 21.1125Z" fill="white" stroke="white" stroke-width="0.25"/>
<defs>
<linearGradient id="paint0_linear" x1="20" y1="0" x2="20" y2="40" gradientUnits="userSpaceOnUse">
<stop stop-color="#8EA1E3"/>
<stop offset="1" stop-color="#395498"/>
</linearGradient>
</defs>
</svg>
