<svg width="40" height="40" viewBox="0 0 40 40" fill="none" xmlns="http://www.w3.org/2000/svg">
<rect width="40" height="40" rx="4" fill="url(#paint0_linear)"/>
<path d="M30.3125 12.8411L30.2552 12.7576V12.686L25.3167 7.09011C25.2618 7.04083 25.1999 7.00059 25.1333 6.97079H25.076C24.9885 6.91735 24.8907 6.88475 24.7896 6.87534H12.999C12.1348 6.86257 11.301 7.20704 10.6803 7.83325C10.0596 8.45946 9.70258 9.31636 9.6875 10.2162V29.7838C9.70258 30.6836 10.0596 31.5405 10.6803 32.1667C11.301 32.793 12.1348 33.1374 12.999 33.1247H27.001C27.8652 33.1374 28.699 32.793 29.3197 32.1667C29.9404 31.5405 30.2974 30.6836 30.3125 29.7838V12.9843C30.3125 12.9843 30.3125 12.9008 30.3125 12.8411ZM25.5 12.328V9.33323L28.1354 12.328H25.5ZM24.8125 13.6644H28.9604V29.76C28.9605 30.0257 28.9095 30.2888 28.8105 30.5337C28.7115 30.7786 28.5664 31.0004 28.3838 31.1861C28.2013 31.3717 27.9849 31.5175 27.7474 31.6148C27.5099 31.7121 27.2562 31.7589 27.001 31.7525H12.999C12.7462 31.7573 12.4949 31.7101 12.2596 31.6137C12.0243 31.5174 11.8096 31.3737 11.6276 31.1908C11.4457 31.008 11.3001 30.7897 11.1992 30.5482C11.0983 30.3068 11.0441 30.0471 11.0396 29.7838V10.1804C11.0441 9.91712 11.0983 9.65737 11.1992 9.41596C11.3001 9.17454 11.4457 8.95619 11.6276 8.77337C11.8096 8.59055 12.0243 8.44685 12.2596 8.35047C12.4949 8.25409 12.7462 8.20693 12.999 8.21167H24.1365V12.9843C24.1424 13.1668 24.2162 13.3398 24.3424 13.4667C24.4685 13.5936 24.6371 13.6645 24.8125 13.6644V13.6644Z" fill="white" stroke="white" stroke-width="0.25"/>
<path d="M23.4125 23.125C23.203 22.8051 22.9087 22.5498 22.5625 22.3875C21.863 22.0927 21.1197 21.9153 20.3625 21.8625C19.7712 21.8299 19.1889 21.7033 18.6375 21.4875C18.4762 21.4123 18.3411 21.2904 18.25 21.1375C18.1507 20.9446 18.1033 20.7292 18.1125 20.5125C18.1141 20.3235 18.1721 20.1393 18.279 19.9834C18.3859 19.8276 18.5368 19.7071 18.7125 19.6375C19.1454 19.4469 19.6146 19.353 20.0875 19.3625V19.3625C20.554 19.3511 21.0179 19.4362 21.45 19.6125C21.8665 19.7851 22.2384 20.0501 22.5375 20.3875L22.675 20.5375L23.75 19.7625L23.6125 19.6125C23.2628 19.2097 22.8383 18.8786 22.3625 18.6375C21.9194 18.4113 21.4423 18.2593 20.95 18.1875V16.875H19.575V18.125C18.8661 18.1688 18.1829 18.4067 17.6 18.8125C17.3358 19.0045 17.121 19.2564 16.9733 19.5476C16.8255 19.8388 16.749 20.161 16.75 20.4875C16.747 20.9254 16.859 21.3565 17.075 21.7375C17.2918 22.0587 17.5893 22.3174 17.9375 22.4875C18.6504 22.7965 19.4119 22.9784 20.1875 23.025C20.7693 23.0586 21.3426 23.1808 21.8875 23.3875C22.0456 23.4617 22.1798 23.5786 22.275 23.725C22.3701 23.9104 22.4174 24.1167 22.4125 24.325C22.4173 24.5557 22.3422 24.7809 22.2 24.9625C22.0673 25.1326 21.8898 25.2625 21.6875 25.3375C21.2324 25.5083 20.7484 25.5889 20.2625 25.575C19.6708 25.6002 19.08 25.5067 18.525 25.3C18.1278 25.1363 17.7762 24.879 17.5 24.55L17.3625 24.4L16.25 25.225L16.3875 25.3875C16.7935 25.8591 17.3024 26.2312 17.875 26.475C18.4 26.7053 18.9644 26.8327 19.5375 26.85V28.1H20.9125V26.85C21.6352 26.8065 22.3298 26.5547 22.9125 26.125C23.1785 25.9213 23.3929 25.6579 23.5384 25.3561C23.6839 25.0543 23.7563 24.7225 23.75 24.3875C23.7619 23.9429 23.6447 23.5043 23.4125 23.125V23.125Z" fill="white" stroke="white" stroke-width="0.25"/>
<defs>
<linearGradient id="paint0_linear" x1="20" y1="0" x2="20" y2="40" gradientUnits="userSpaceOnUse">
<stop stop-color="#B07FCD"/>
<stop offset="1" stop-color="#5F4891"/>
</linearGradient>
</defs>
</svg>
