<svg width="40" height="40" viewBox="0 0 40 40" fill="none" xmlns="http://www.w3.org/2000/svg">
<rect width="40" height="40" rx="4" fill="url(#paint0_linear)"/>
<path d="M29.4266 10.5732C28.1967 9.29973 26.7254 8.28396 25.0987 7.58518C23.472 6.88639 21.7224 6.51857 19.952 6.50319C18.1816 6.4878 16.4259 6.82516 14.7873 7.49557C13.1486 8.16598 11.66 9.15603 10.4081 10.4079C9.15615 11.6598 8.16611 13.1485 7.49569 14.7871C6.82528 16.4258 6.48793 18.1815 6.50331 19.9519C6.5187 21.7223 6.88651 23.4719 7.5853 25.0986C8.28409 26.7253 9.29985 28.1966 10.5733 29.4265C11.8033 30.7 13.2745 31.7158 14.9013 32.4145C16.528 33.1133 18.2776 33.4812 20.048 33.4965C21.8184 33.5119 23.5741 33.1746 25.2127 32.5042C26.8513 31.8337 28.34 30.8437 29.5919 29.5918C30.8438 28.3399 31.8339 26.8512 32.5043 25.2126C33.1747 23.574 33.512 21.8182 33.4967 20.0478C33.4813 18.2775 33.1135 16.5279 32.4147 14.9011C31.7159 13.2744 30.7001 11.8032 29.4266 10.5732V10.5732ZM13.3333 29.7065C13.5981 28.1298 14.4131 26.698 15.6336 25.6653C16.8542 24.6326 18.4012 24.066 20 24.066C21.5988 24.066 23.1458 24.6326 24.3663 25.6653C25.5869 26.698 26.4019 28.1298 26.6666 29.7065C24.7061 31.0579 22.3812 31.7816 20 31.7816C17.6188 31.7816 15.2939 31.0579 13.3333 29.7065V29.7065ZM15.7467 18.3199C15.7467 17.4818 15.995 16.6626 16.4603 15.9656C16.9256 15.2687 17.587 14.7252 18.361 14.4039C19.135 14.0826 19.9868 13.9979 20.8089 14.1604C21.6311 14.3229 22.3866 14.7254 22.9801 15.317C23.5736 15.9087 23.9784 16.6629 24.1435 17.4845C24.3086 18.3061 24.2266 19.1582 23.9077 19.9332C23.5888 20.7082 23.0475 21.3713 22.352 21.8388C21.6564 22.3063 20.838 22.5572 20 22.5599C18.8755 22.5599 17.797 22.1131 17.0018 21.318C16.2067 20.5228 15.76 19.4444 15.76 18.3199H15.7467ZM28 28.6265C27.654 27.4143 27.0391 26.2957 26.2012 25.3539C25.3632 24.412 24.3237 23.6712 23.16 23.1865C24.2087 22.5051 25.0091 21.503 25.4418 20.3295C25.8745 19.1561 25.9163 17.8742 25.561 16.675C25.2056 15.4759 24.4722 14.4237 23.47 13.6755C22.4678 12.9272 21.2507 12.5229 20 12.5229C18.7493 12.5229 17.5321 12.9272 16.53 13.6755C15.5278 14.4237 14.7944 15.4759 14.439 16.675C14.0837 17.8742 14.1254 19.1561 14.5581 20.3295C14.9908 21.503 15.7912 22.5051 16.84 23.1865C15.6763 23.6712 14.6368 24.412 13.7988 25.3539C12.9609 26.2957 12.346 27.4143 12 28.6265C10.2634 27.0182 9.05192 24.9237 8.52363 22.6164C7.99535 20.3092 8.17478 17.8962 9.03853 15.6925C9.90228 13.4887 11.4102 11.5965 13.3656 10.2627C15.321 8.92886 17.633 8.21541 20 8.21541C22.367 8.21541 24.679 8.92886 26.6344 10.2627C28.5897 11.5965 30.0977 13.4887 30.9614 15.6925C31.8252 17.8962 32.0046 20.3092 31.4763 22.6164C30.948 24.9237 29.7366 27.0182 28 28.6265V28.6265Z" fill="white"/>
<defs>
<linearGradient id="paint0_linear" x1="20" y1="0" x2="20" y2="40" gradientUnits="userSpaceOnUse">
<stop stop-color="#FACE34"/>
<stop offset="1" stop-color="#F4B000"/>
</linearGradient>
</defs>
</svg>
