<svg width="40" height="40" viewBox="0 0 40 40" fill="none" xmlns="http://www.w3.org/2000/svg">
<rect width="40" height="40" rx="4" fill="url(#paint0_linear)"/>
<path d="M29.6688 30.412H10.6336C10.3626 30.412 10.1028 30.3044 9.91119 30.1128C9.71961 29.9212 9.61197 29.6614 9.61197 29.3904V10.3552C9.6087 10.2556 9.6255 10.1564 9.66136 10.0634C9.69721 9.97044 9.7514 9.88563 9.8207 9.81402C9.89 9.74241 9.97299 9.68546 10.0647 9.64658C10.1565 9.60769 10.2551 9.58765 10.3548 9.58765C10.4544 9.58765 10.5531 9.60769 10.6448 9.64658C10.7366 9.68546 10.8195 9.74241 10.8888 9.81402C10.9581 9.88563 11.0123 9.97044 11.0482 10.0634C11.084 10.1564 11.1008 10.2556 11.0976 10.3552V28.9264H29.6688C29.8616 28.9328 30.0443 29.0138 30.1785 29.1524C30.3126 29.291 30.3876 29.4763 30.3876 29.6692C30.3876 29.8621 30.3126 30.0474 30.1785 30.1861C30.0443 30.3247 29.8616 30.4057 29.6688 30.412Z" fill="white"/>
<path d="M14.1555 27.2266C14.0578 27.2267 13.9611 27.2076 13.8709 27.1703C13.7807 27.1329 13.6987 27.0782 13.6297 27.0092C13.5607 26.9401 13.5059 26.8582 13.4686 26.768C13.4313 26.6777 13.4122 26.581 13.4123 26.4834V19.6586C13.409 19.559 13.4258 19.4598 13.4617 19.3668C13.4975 19.2738 13.5517 19.189 13.621 19.1174C13.6903 19.0458 13.7733 18.9889 13.865 18.95C13.9568 18.9111 14.0554 18.891 14.1551 18.891C14.2547 18.891 14.3534 18.9111 14.4451 18.95C14.5369 18.9889 14.6198 19.0458 14.6891 19.1174C14.7584 19.189 14.8126 19.2738 14.8485 19.3668C14.8843 19.4598 14.9011 19.559 14.8979 19.6586V26.4834C14.898 26.581 14.8788 26.6776 14.8416 26.7678C14.8043 26.8579 14.7497 26.9399 14.6807 27.0089C14.6118 27.0779 14.5299 27.1327 14.4398 27.17C14.3496 27.2074 14.253 27.2266 14.1555 27.2266ZM23.4571 27.2266C23.3594 27.2267 23.2627 27.2076 23.1725 27.1703C23.0823 27.1329 23.0003 27.0782 22.9313 27.0092C22.8623 26.9401 22.8075 26.8582 22.7702 26.768C22.7329 26.6777 22.7138 26.581 22.7139 26.4834V22.0834C22.7106 21.9838 22.7274 21.8846 22.7633 21.7916C22.7991 21.6986 22.8533 21.6138 22.9226 21.5422C22.9919 21.4706 23.0749 21.4137 23.1666 21.3748C23.2584 21.3359 23.357 21.3158 23.4567 21.3158C23.5563 21.3158 23.655 21.3359 23.7467 21.3748C23.8384 21.4137 23.9214 21.4706 23.9907 21.5422C24.06 21.6138 24.1142 21.6986 24.1501 21.7916C24.1859 21.8846 24.2027 21.9838 24.1995 22.0834V26.4834C24.1995 26.6804 24.1213 26.8693 23.9821 27.0087C23.8429 27.148 23.654 27.2264 23.4571 27.2266ZM18.8051 27.2266C18.7074 27.2267 18.6108 27.2076 18.5205 27.1703C18.4303 27.1329 18.3484 27.0782 18.2793 27.0092C18.2103 26.9401 18.1555 26.8582 18.1182 26.768C18.0809 26.6777 18.0618 26.581 18.0619 26.4834V17.6834C18.0682 17.4906 18.1492 17.3079 18.2878 17.1737C18.4264 17.0396 18.6118 16.9646 18.8047 16.9646C18.9976 16.9646 19.1829 17.0396 19.3215 17.1737C19.4601 17.3079 19.5411 17.4906 19.5475 17.6834V26.4834C19.5476 26.581 19.5284 26.6776 19.4912 26.7678C19.4539 26.8579 19.3993 26.9399 19.3303 27.0089C19.2614 27.0779 19.1795 27.1327 19.0894 27.17C18.9992 27.2074 18.9026 27.2266 18.8051 27.2266ZM28.1067 27.2266C28.009 27.2267 27.9124 27.2076 27.8221 27.1703C27.7319 27.1329 27.65 27.0782 27.5809 27.0092C27.5119 26.9401 27.4571 26.8582 27.4198 26.768C27.3825 26.6777 27.3634 26.581 27.3635 26.4834V19.6586C27.3698 19.4658 27.4508 19.2831 27.5894 19.1489C27.728 19.0148 27.9134 18.9398 28.1063 18.9398C28.2992 18.9398 28.4845 19.0148 28.6231 19.1489C28.7617 19.2831 28.8427 19.4658 28.8491 19.6586V26.4834C28.8492 26.581 28.83 26.6776 28.7928 26.7678C28.7555 26.8579 28.7009 26.9399 28.6319 27.0089C28.563 27.0779 28.4811 27.1327 28.391 27.17C28.3008 27.2074 28.2042 27.2266 28.1067 27.2266Z" fill="white"/>
<defs>
<linearGradient id="paint0_linear" x1="20" y1="0" x2="20" y2="40" gradientUnits="userSpaceOnUse">
<stop stop-color="#66E6D6"/>
<stop offset="1" stop-color="#27A394"/>
</linearGradient>
</defs>
</svg>
