<svg width="40" height="40" viewBox="0 0 40 40" fill="none" xmlns="http://www.w3.org/2000/svg">
<path d="M36 0H4C1.79086 0 0 1.79086 0 4V36C0 38.2091 1.79086 40 4 40H36C38.2091 40 40 38.2091 40 36V4C40 1.79086 38.2091 0 36 0Z" fill="url(#paint0_linear)"/>
<path d="M31.2712 20.3367C31.1666 20.1226 31.1666 19.8772 31.2712 19.6632L32.2409 17.6794C32.7808 16.5749 32.353 15.2584 31.267 14.6822L29.3166 13.6473C29.1061 13.5357 28.9619 13.3371 28.9207 13.1025L28.5392 10.9276C28.3268 9.71674 27.2067 8.90304 25.9896 9.07523L23.8034 9.38448C23.5674 9.4178 23.3341 9.34193 23.1629 9.17634L21.576 7.64115C20.6923 6.78631 19.3081 6.78626 18.4245 7.64115L16.8375 9.17649C16.6663 9.34213 16.4329 9.41785 16.197 9.38464L14.0108 9.07538C12.7933 8.90309 11.6736 9.71689 11.4612 10.9278L11.0797 13.1026C11.0385 13.3372 10.8943 13.5358 10.6839 13.6474L8.73342 14.6823C7.64743 15.2585 7.21965 16.5751 7.75955 17.6796L8.7292 19.6633C8.83381 19.8773 8.83381 20.1228 8.7292 20.3368L7.7595 22.3205C7.2196 23.425 7.64738 24.7415 8.73336 25.3177L10.6838 26.3526C10.8943 26.4642 11.0385 26.6628 11.0797 26.8974L11.4612 29.0723C11.6546 30.1746 12.5998 30.9477 13.6861 30.9476C13.7931 30.9476 13.9017 30.9401 14.0108 30.9246L16.1971 30.6154C16.4328 30.5819 16.6663 30.6579 16.8375 30.8235L18.4245 32.3587C18.8664 32.7862 19.4332 32.9999 20.0002 32.9998C20.5671 32.9998 21.1342 32.7861 21.5759 32.3587L23.1629 30.8235C23.3341 30.6579 23.5675 30.5823 23.8034 30.6154L25.9896 30.9246C27.2072 31.0969 28.3268 30.2831 28.5392 29.0722L28.9207 26.8974C28.9619 26.6628 29.1062 26.4642 29.3166 26.3526L31.267 25.3177C32.353 24.7415 32.7808 23.4249 32.2409 22.3204L31.2712 20.3367ZM30.5642 23.993L28.6137 25.0279C27.9918 25.3579 27.5653 25.9448 27.4437 26.6383L27.0623 28.8131C26.9904 29.2228 26.6116 29.498 26.1997 29.4398L24.0134 29.1306C23.3162 29.0318 22.6263 29.2562 22.1203 29.7457L20.5333 31.2808C20.2344 31.5699 19.766 31.5699 19.4671 31.2808L17.8801 29.7456C17.4524 29.3319 16.8934 29.1077 16.3097 29.1077C16.2027 29.1077 16.0949 29.1152 15.987 29.1305L13.8007 29.4398C13.3891 29.498 13.01 29.2227 12.9381 28.813L12.5566 26.6382C12.4349 25.9447 12.0085 25.3577 11.3866 25.0278L9.43611 23.9929C9.06867 23.798 8.92394 23.3526 9.1066 22.9789L10.0763 20.9951C10.3855 20.3626 10.3855 19.6372 10.0763 19.0047L9.1066 17.0209C8.92394 16.6472 9.06867 16.2018 9.43611 16.0069L11.3866 14.972C12.0084 14.642 12.4349 14.0551 12.5566 13.3616L12.938 11.1868C13.0099 10.7771 13.3886 10.5019 13.8006 10.56L15.9869 10.8693C16.6838 10.968 17.374 10.7437 17.88 10.2542L19.467 8.71901C19.7659 8.42987 20.2342 8.42987 20.5332 8.71901L22.1202 10.2542C22.6262 10.7437 23.3162 10.968 24.0133 10.8693L26.1996 10.56C26.6112 10.5018 26.9903 10.7771 27.0622 11.1868L27.4436 13.3616C27.5653 14.0551 27.9917 14.6421 28.6136 14.972L30.5641 16.0069C30.9316 16.2018 31.0763 16.6472 30.8936 17.0209L29.9239 19.0046C29.6148 19.6371 29.6148 20.3626 29.9239 20.9951L30.8936 22.9788C31.0763 23.3526 30.9316 23.798 30.5642 23.993Z" fill="white"/>
<path d="M25.4782 14.5214C25.1855 14.2286 24.7107 14.2286 24.4179 14.5214L14.5214 24.4179C14.2286 24.7107 14.2286 25.1855 14.5214 25.4783C14.6678 25.6247 14.8597 25.6979 15.0515 25.6979C15.2434 25.6979 15.4353 25.6247 15.5817 25.4783L25.4782 15.5818C25.7711 15.2889 25.7711 14.8142 25.4782 14.5214Z" fill="white"/>
<path d="M17.0011 13.252C15.4853 13.252 14.252 14.4853 14.252 16.0011C14.252 17.517 15.4853 18.7503 17.0011 18.7503C18.517 18.7503 19.7503 17.517 19.7503 16.0011C19.7503 14.4853 18.517 13.252 17.0011 13.252ZM17.0011 17.2507C16.3121 17.2507 15.7515 16.6902 15.7515 16.0011C15.7515 15.3121 16.3121 14.7515 17.0011 14.7515C17.6902 14.7515 18.2508 15.3121 18.2508 16.0011C18.2508 16.6902 17.6902 17.2507 17.0011 17.2507Z" fill="white"/>
<path d="M22.9992 21.2495C21.4833 21.2495 20.25 22.4828 20.25 23.9987C20.25 25.5146 21.4833 26.7479 22.9992 26.7479C24.5151 26.7479 25.7484 25.5146 25.7484 23.9987C25.7484 22.4828 24.5151 21.2495 22.9992 21.2495ZM22.9992 25.2483C22.3102 25.2483 21.7495 24.6877 21.7495 23.9987C21.7495 23.3097 22.3101 22.7491 22.9992 22.7491C23.6882 22.7491 24.2488 23.3097 24.2488 23.9987C24.2488 24.6877 23.6882 25.2483 22.9992 25.2483Z" fill="white"/>
<defs>
<linearGradient id="paint0_linear" x1="20" y1="0" x2="20" y2="40" gradientUnits="userSpaceOnUse">
<stop stop-color="#FFB31F"/>
<stop offset="1" stop-color="#EC7121"/>
</linearGradient>
</defs>
</svg>
