<svg width="40" height="40" viewBox="0 0 40 40" fill="none" xmlns="http://www.w3.org/2000/svg">
<path d="M36 0H4C1.79086 0 0 1.79086 0 4V36C0 38.2091 1.79086 40 4 40H36C38.2091 40 40 38.2091 40 36V4C40 1.79086 38.2091 0 36 0Z" fill="url(#paint0_linear)"/>
<path d="M29.4266 10.5734C28.1967 9.29997 26.7254 8.2842 25.0987 7.58542C23.472 6.88663 21.7224 6.51881 19.952 6.50343C18.1816 6.48804 16.4259 6.8254 14.7873 7.49581C13.1486 8.16622 11.66 9.15627 10.4081 10.4081C9.15615 11.66 8.16611 13.1487 7.49569 14.7873C6.82528 16.426 6.48793 18.1817 6.50331 19.9521C6.5187 21.7225 6.88651 23.4721 7.5853 25.0988C8.28409 26.7255 9.29985 28.1968 10.5733 29.4267C11.8033 30.7002 13.2745 31.716 14.9013 32.4147C16.528 33.1135 18.2776 33.4814 20.048 33.4967C21.8184 33.5121 23.5741 33.1748 25.2127 32.5044C26.8513 31.8339 28.34 30.8439 29.5919 29.592C30.8438 28.3401 31.8339 26.8514 32.5043 25.2128C33.1747 23.5742 33.512 21.8184 33.4967 20.048C33.4813 18.2777 33.1135 16.5281 32.4147 14.9013C31.7159 13.2746 30.7001 11.8034 29.4266 10.5734ZM13.3333 29.7067C13.5981 28.13 14.4131 26.6982 15.6336 25.6655C16.8542 24.6328 18.4012 24.0662 20 24.0662C21.5988 24.0662 23.1458 24.6328 24.3663 25.6655C25.5869 26.6982 26.4019 28.13 26.6666 29.7067C24.7061 31.0581 22.3812 31.7818 20 31.7818C17.6188 31.7818 15.2939 31.0581 13.3333 29.7067ZM15.7467 18.3201C15.7467 17.482 15.995 16.6628 16.4603 15.9658C16.9256 15.2689 17.587 14.7254 18.361 14.4041C19.135 14.0828 19.9868 13.9981 20.8089 14.1606C21.6311 14.3231 22.3866 14.7256 22.9801 15.3172C23.5736 15.9089 23.9784 16.6631 24.1435 17.4847C24.3086 18.3063 24.2266 19.1584 23.9077 19.9334C23.5888 20.7084 23.0475 21.3715 22.352 21.839C21.6564 22.3065 20.838 22.5574 20 22.5601C18.8755 22.5601 17.797 22.1133 17.0018 21.3182C16.2067 20.523 15.76 19.4446 15.76 18.3201H15.7467ZM28 28.6267C27.654 27.4145 27.0391 26.2959 26.2012 25.3541C25.3632 24.4122 24.3237 23.6714 23.16 23.1867C24.2087 22.5053 25.0091 21.5032 25.4418 20.3297C25.8745 19.1563 25.9163 17.8744 25.561 16.6752C25.2056 15.4761 24.4722 14.4239 23.47 13.6757C22.4678 12.9274 21.2507 12.5231 20 12.5231C18.7493 12.5231 17.5321 12.9274 16.53 13.6757C15.5278 14.4239 14.7944 15.4761 14.439 16.6752C14.0837 17.8744 14.1254 19.1563 14.5581 20.3297C14.9908 21.5032 15.7912 22.5053 16.84 23.1867C15.6763 23.6714 14.6368 24.4122 13.7988 25.3541C12.9609 26.2959 12.346 27.4145 12 28.6267C10.2634 27.0184 9.05192 24.9239 8.52363 22.6166C7.99535 20.3094 8.17478 17.8964 9.03853 15.6927C9.90228 13.4889 11.4102 11.5967 13.3656 10.2629C15.321 8.9291 17.633 8.21565 20 8.21565C22.367 8.21565 24.679 8.9291 26.6344 10.2629C28.5897 11.5967 30.0977 13.4889 30.9614 15.6927C31.8252 17.8964 32.0046 20.3094 31.4763 22.6166C30.948 24.9239 29.7366 27.0184 28 28.6267Z" fill="white"/>
<defs>
<linearGradient id="paint0_linear" x1="20" y1="0" x2="20" y2="40" gradientUnits="userSpaceOnUse">
<stop stop-color="#FACE34"/>
<stop offset="1" stop-color="#F4B000"/>
</linearGradient>
</defs>
</svg>
