<svg width="24" height="24" viewBox="0 0 24 24" fill="none" xmlns="http://www.w3.org/2000/svg">
<path d="M12 23.5C18.3513 23.5 23.5 18.3513 23.5 12C23.5 5.64873 18.3513 0.5 12 0.5C5.64873 0.5 0.5 5.64873 0.5 12C0.5 18.3513 5.64873 23.5 12 23.5Z" stroke="#DBDBDB"/>
<path d="M17.04 7.864H14.463V6.964C14.4617 6.70822 14.3593 6.46333 14.1781 6.28275C13.997 6.10216 13.7518 6.00052 13.496 6H10.51C10.2537 6.00053 10.008 6.10258 9.82681 6.28381C9.64558 6.46505 9.54353 6.7107 9.543 6.967V7.867H6.967C6.71102 7.86857 6.46597 7.97096 6.28497 8.15197C6.10396 8.33298 6.00157 8.57802 6 8.834V16.1C6.00053 16.3563 6.10258 16.602 6.28381 16.7832C6.46505 16.9644 6.7107 17.0665 6.967 17.067H17.033C17.2893 17.0665 17.535 16.9644 17.7162 16.7832C17.8974 16.602 17.9995 16.3563 18 16.1V8.83C18.0004 8.70354 17.9759 8.57824 17.9278 8.46125C17.8798 8.34426 17.8092 8.23788 17.7201 8.14818C17.6309 8.05848 17.525 7.98721 17.4083 7.93845C17.2916 7.88969 17.1665 7.86439 17.04 7.864ZM10.179 6.964C10.179 6.87409 10.2147 6.78786 10.2783 6.72429C10.3419 6.66071 10.4281 6.625 10.518 6.625H13.503C13.5929 6.625 13.6791 6.66071 13.7427 6.72429C13.8063 6.78786 13.842 6.87409 13.842 6.964V7.864H10.178V6.964H10.179ZM10.133 12.925C10.1748 12.9253 10.2163 12.9172 10.255 12.9013C10.2937 12.8854 10.3289 12.862 10.3585 12.8325C10.388 12.8029 10.4114 12.7677 10.4273 12.729C10.4432 12.6903 10.4513 12.6488 10.451 12.607V12.134H13.551V12.607C13.5486 12.6502 13.555 12.6934 13.5699 12.7341C13.5847 12.7747 13.6077 12.8119 13.6374 12.8433C13.6671 12.8747 13.703 12.8998 13.7427 12.9169C13.7824 12.934 13.8252 12.9428 13.8685 12.9428C13.9118 12.9428 13.9546 12.934 13.9943 12.9169C14.034 12.8998 14.0699 12.8747 14.0996 12.8433C14.1293 12.8119 14.1523 12.7747 14.1672 12.7341C14.182 12.6934 14.1884 12.6502 14.186 12.607V12.134H17.377V16.108C17.377 16.1979 17.3413 16.2841 17.2777 16.3477C17.2141 16.4113 17.1279 16.447 17.038 16.447H6.967C6.87709 16.447 6.79087 16.4113 6.72729 16.3477C6.66372 16.2841 6.628 16.1979 6.628 16.108V12.134H9.819V12.607C9.81976 12.6904 9.85296 12.7703 9.91158 12.8296C9.97019 12.889 10.0496 12.9232 10.133 12.925ZM13.87 10.8C13.8282 10.7997 13.7867 10.8078 13.748 10.8237C13.7093 10.8395 13.6741 10.863 13.6445 10.8925C13.615 10.9221 13.5916 10.9573 13.5757 10.996C13.5598 11.0347 13.5517 11.0762 13.552 11.118V11.5H10.452V11.119C10.4544 11.0758 10.448 11.0326 10.4332 10.9919C10.4183 10.9513 10.3953 10.9141 10.3656 10.8827C10.3359 10.8513 10.3 10.8262 10.2603 10.8091C10.2206 10.792 10.1778 10.7832 10.1345 10.7832C10.0912 10.7832 10.0484 10.792 10.0087 10.8091C9.96897 10.8262 9.93314 10.8513 9.90342 10.8827C9.8737 10.9141 9.85071 10.9513 9.83585 10.9919C9.82099 11.0326 9.81458 11.0758 9.817 11.119V11.5H6.633V8.831C6.633 8.74109 6.66872 8.65487 6.73229 8.59129C6.79587 8.52772 6.88209 8.492 6.972 8.492H17.04C17.1299 8.492 17.2161 8.52772 17.2797 8.59129C17.3433 8.65487 17.379 8.74109 17.379 8.831V11.5H14.188V11.119C14.1875 11.0347 14.1538 10.954 14.0943 10.8944C14.0348 10.8347 13.9543 10.8008 13.87 10.8Z" fill="#363636"/>
</svg>