<svg width="40" height="40" viewBox="0 0 40 40" fill="none" xmlns="http://www.w3.org/2000/svg">
<circle cx="20" cy="20" r="19.5" fill="white" stroke="#DBDBDB"/>
<path d="M14.8077 12.5C13.5356 12.5 12.5 13.5356 12.5 14.8077V25.1923C12.5 26.4644 13.5356 27.5 14.8077 27.5H22.3077C22.921 27.5 23.7725 26.6144 24.7596 25.6071C24.8981 25.4663 25.0308 25.3342 25.1744 25.1923C25.3163 25.0492 25.4663 24.8981 25.6071 24.7596C26.615 23.7719 27.5 22.921 27.5 22.3077V14.8077C27.5 13.5356 26.4644 12.5 25.1923 12.5H14.8077ZM14.8077 13.6538H25.1923C25.4983 13.6538 25.7918 13.7754 26.0082 13.9918C26.2246 14.2082 26.3462 14.5017 26.3462 14.8077V22.3077C26.3462 22.8817 25.7681 22.8846 25.1923 22.8846H23.4615C23.1437 22.8846 22.8846 23.1437 22.8846 23.4615V25.2287C22.8846 25.7404 22.8858 26.24 22.4698 26.3462H14.8077C14.5017 26.3462 14.2082 26.2246 13.9918 26.0082C13.7754 25.7918 13.6538 25.4983 13.6538 25.1923V14.8077C13.6538 14.5017 13.7754 14.2082 13.9918 13.9918C14.2082 13.7754 14.5017 13.6538 14.8077 13.6538ZM16.4306 17.1154C16.2776 17.1297 16.1365 17.2042 16.0384 17.3225C15.9404 17.4408 15.8933 17.5932 15.9076 17.7463C15.9219 17.8993 15.9964 18.0403 16.1147 18.1384C16.233 18.2365 16.3855 18.2835 16.5385 18.2692H23.4615C23.6145 18.2692 23.7613 18.2084 23.8695 18.1003C23.9777 17.9921 24.0385 17.8453 24.0385 17.6923C24.0385 17.5393 23.9777 17.3926 23.8695 17.2844C23.7613 17.1762 23.6145 17.1154 23.4615 17.1154H16.5385C16.5204 17.1145 16.5023 17.1145 16.4842 17.1154C16.4664 17.1146 16.4485 17.1146 16.4306 17.1154ZM16.4306 20C16.3548 20.0071 16.2812 20.029 16.2139 20.0646C16.1466 20.1001 16.087 20.1485 16.0384 20.2071C15.9404 20.3254 15.8933 20.4779 15.9076 20.6309C15.9219 20.7839 15.9964 20.9249 16.1147 21.023C16.233 21.1211 16.3855 21.1682 16.5385 21.1538H22.3077C22.4607 21.1538 22.6074 21.0931 22.7156 20.9849C22.8238 20.8767 22.8846 20.7299 22.8846 20.5769C22.8846 20.4239 22.8238 20.2772 22.7156 20.169C22.6074 20.0608 22.4607 20 22.3077 20H16.5385C16.5204 19.9992 16.5023 19.9992 16.4842 20C16.4664 19.9992 16.4485 19.9992 16.4306 20Z" fill="#6B6B6B"/>
</svg>
