<svg width="40" height="40" viewBox="0 0 40 40" fill="none" xmlns="http://www.w3.org/2000/svg">
<circle cx="20" cy="20" r="19.5" fill="white" stroke="#DBDBDB"/>
<g clip-path="url(#clip0)">
<path d="M24.9974 22.6287C24.9961 23.0688 24.907 23.5043 24.7353 23.9095C24.5636 24.3148 24.3127 24.6817 23.9974 24.9887C23.3511 25.626 22.4783 25.9808 21.5707 25.9754H20.784V27.3087C20.7839 27.5138 20.7024 27.7104 20.5574 27.8554C20.4078 28.0019 20.2068 28.084 19.9974 28.084C19.788 28.084 19.5869 28.0019 19.4374 27.8554C19.2923 27.7104 19.2108 27.5138 19.2107 27.3087V25.9754H16.8374C16.7337 25.9763 16.6308 25.9568 16.5347 25.9179C16.4386 25.879 16.3512 25.8215 16.2774 25.7487C16.1324 25.6037 16.051 25.407 16.051 25.202C16.051 24.997 16.1324 24.8004 16.2774 24.6554C16.3512 24.5825 16.4386 24.525 16.5347 24.4861C16.6308 24.4472 16.7337 24.4277 16.8374 24.4287H21.5707C21.8173 24.4337 22.0625 24.3891 22.2915 24.2975C22.5206 24.2058 22.7289 24.0691 22.904 23.8954C23.0763 23.731 23.2134 23.5334 23.307 23.3146C23.4007 23.0957 23.449 22.8601 23.449 22.622C23.449 22.3839 23.4007 22.1484 23.307 21.9295C23.2134 21.7106 23.0763 21.513 22.904 21.3487C22.7289 21.1749 22.5206 21.0382 22.2915 20.9466C22.0625 20.855 21.8173 20.8103 21.5707 20.8154H18.424C17.5164 20.8208 16.6436 20.466 15.9974 19.8287C15.6817 19.5207 15.4308 19.1526 15.2595 18.7461C15.0882 18.3397 15 17.9031 15 17.462C15 17.021 15.0882 16.5843 15.2595 16.1779C15.4308 15.7715 15.6817 15.4034 15.9974 15.0954C16.6436 14.4581 17.5164 14.1032 18.424 14.1087H19.2107V12.7754C19.2108 12.5703 19.2923 12.3736 19.4374 12.2287C19.5869 12.0821 19.788 12 19.9974 12C20.2068 12 20.4078 12.0821 20.5574 12.2287C20.7024 12.3736 20.7839 12.5703 20.784 12.7754V14.1087H23.1574C23.261 14.1077 23.3639 14.1272 23.46 14.1661C23.5561 14.205 23.6436 14.2625 23.7174 14.3354C23.8623 14.4804 23.9437 14.677 23.9437 14.882C23.9437 15.087 23.8623 15.2837 23.7174 15.4287C23.6436 15.5015 23.5561 15.559 23.46 15.5979C23.3639 15.6368 23.261 15.6563 23.1574 15.6554H18.424C18.1774 15.6503 17.9322 15.695 17.7032 15.7866C17.4741 15.8782 17.2658 16.0149 17.0907 16.1887C16.9184 16.353 16.7813 16.5506 16.6877 16.7695C16.594 16.9884 16.5457 17.2239 16.5457 17.462C16.5457 17.7001 16.594 17.9357 16.6877 18.1546C16.7813 18.3734 16.9184 18.571 17.0907 18.7354C17.2658 18.9091 17.4741 19.0458 17.7032 19.1375C17.9322 19.2291 18.1774 19.2737 18.424 19.2687H21.5707C22.4769 19.2704 23.3471 19.6241 23.9974 20.2554C24.3137 20.5644 24.5651 20.9335 24.7369 21.3411C24.9086 21.7487 24.9971 22.1864 24.9974 22.6287Z" fill="#6B6B6B"/>
</g>
<defs>
<clipPath id="clip0">
<rect width="16" height="16" fill="white" transform="translate(12 12)"/>
</clipPath>
</defs>
</svg>
