<svg width="40" height="40" viewBox="0 0 40 40"  xmlns="http://www.w3.org/2000/svg">
<path d="M35.3772 32.7559C37.4301 30.2878 38.8579 27.3618 39.5398 24.2256C40.2217 21.0895 40.1377 17.8353 39.2949 14.7384C38.452 11.6415 36.8752 8.79307 34.6978 6.43396C32.5203 4.07485 29.8063 2.27451 26.7852 1.18524C23.7642 0.0959722 20.5251 -0.250184 17.3419 0.176056C14.1587 0.602296 11.1251 1.78839 8.49762 3.63401C5.87016 5.47963 3.72619 7.93047 2.24707 10.7792C0.767949 13.6279 -0.00280541 16.7908 7.67273e-06 20.0001C0.00108715 24.6656 1.64636 29.1817 4.64712 32.7559L4.61853 32.7802C4.71859 32.9002 4.83295 33.003 4.93587 33.1216C5.06452 33.2687 5.20317 33.4073 5.33611 33.5501C5.73635 33.9843 6.14803 34.4014 6.57972 34.7928C6.71123 34.9128 6.84703 35.0242 6.97997 35.1385C7.43739 35.5328 7.90767 35.907 8.39511 36.2555C8.45801 36.2984 8.51519 36.3541 8.57808 36.3984V36.3812C11.926 38.7355 15.9198 39.999 20.0136 39.999C24.1074 39.999 28.1012 38.7355 31.4491 36.3812V36.3984C31.512 36.3541 31.5678 36.2984 31.6321 36.2555C32.1181 35.9056 32.5898 35.5328 33.0472 35.1385C33.1802 35.0242 33.316 34.9114 33.4475 34.7928C33.8792 34.4 34.2909 33.9843 34.6911 33.5501C34.824 33.4073 34.9613 33.2687 35.0913 33.1216C35.1928 33.003 35.3086 32.9002 35.4087 32.7788L35.3772 32.7559ZM20.0122 8.57276C21.2844 8.57276 22.5281 8.94975 23.5859 9.65606C24.6437 10.3624 25.4682 11.3663 25.955 12.5408C26.4419 13.7153 26.5693 15.0078 26.3211 16.2547C26.0729 17.5016 25.4602 18.6469 24.5606 19.5459C23.661 20.4448 22.5149 21.057 21.2671 21.305C20.0193 21.5531 18.726 21.4258 17.5506 20.9392C16.3752 20.4527 15.3706 19.6289 14.6638 18.5718C13.957 17.5147 13.5797 16.272 13.5797 15.0007C13.5797 13.2959 14.2574 11.6609 15.4637 10.4554C16.67 9.24999 18.3062 8.57276 20.0122 8.57276V8.57276ZM8.58666 32.7559C8.61145 30.8803 9.3742 29.09 10.7099 27.7721C12.0456 26.4542 13.8468 25.7148 15.7239 25.7138H24.3005C26.1776 25.7148 27.9788 26.4542 29.3145 27.7721C30.6502 29.09 31.4129 30.8803 31.4377 32.7559C28.3027 35.5789 24.2323 37.1413 20.0122 37.1413C15.7921 37.1413 11.7216 35.5789 8.58666 32.7559V32.7559Z" fill="#B3BCDD"/>
</svg>