<svg width="20" height="20" viewBox="0 0 20 20" fill="none" xmlns="http://www.w3.org/2000/svg">
<path d="M10 7.5C8.645 7.5 7.5 8.645 7.5 10C7.5 11.355 8.645 12.5 10 12.5C11.355 12.5 12.5 11.355 12.5 10C12.5 8.645 11.355 7.5 10 7.5Z" fill="#B0B0B0"/>
<path d="M16.6667 4.1665H14.5117L12.2558 1.91067C12.1786 1.83314 12.0867 1.77165 11.9856 1.72974C11.8845 1.68784 11.7761 1.66635 11.6667 1.6665H8.33332C8.22387 1.66635 8.11547 1.68784 8.01435 1.72974C7.91324 1.77165 7.82141 1.83314 7.74416 1.91067L5.48832 4.1665H3.33332C2.41416 4.1665 1.66666 4.914 1.66666 5.83317V14.9998C1.66666 15.919 2.41416 16.6665 3.33332 16.6665H16.6667C17.5858 16.6665 18.3333 15.919 18.3333 14.9998V5.83317C18.3333 4.914 17.5858 4.1665 16.6667 4.1665ZM9.99999 14.1665C7.74166 14.1665 5.83332 12.2582 5.83332 9.99984C5.83332 7.74151 7.74166 5.83317 9.99999 5.83317C12.2583 5.83317 14.1667 7.74151 14.1667 9.99984C14.1667 12.2582 12.2583 14.1665 9.99999 14.1665Z" fill="#B0B0B0"/>
</svg>
