<svg width="14" height="14" viewBox="0 0 14 14" fill="none" xmlns="http://www.w3.org/2000/svg">
<path d="M9.80545 2.69966L11.3005 4.19403L9.80545 2.69966ZM10.7669 1.38318L6.72424 5.42581C6.51536 5.6344 6.3729 5.90016 6.31482 6.18958L5.94141 8.05878L7.8106 7.68466C8.10002 7.62678 8.36543 7.48489 8.57437 7.27595L12.617 3.23332C12.7385 3.11183 12.8348 2.96761 12.9006 2.80889C12.9663 2.65017 13.0002 2.48005 13.0002 2.30825C13.0002 2.13644 12.9663 1.96633 12.9006 1.8076C12.8348 1.64888 12.7385 1.50466 12.617 1.38318C12.4955 1.26169 12.3513 1.16533 12.1926 1.09958C12.0339 1.03384 11.8637 1 11.6919 1C11.5201 1 11.35 1.03384 11.1913 1.09958C11.0326 1.16533 10.8883 1.26169 10.7669 1.38318V1.38318Z" stroke="currentColor" stroke-linecap="round" stroke-linejoin="round"/>
<path d="M11.5883 9.47016V11.5878C11.5883 11.9623 11.4396 12.3214 11.1748 12.5861C10.9101 12.8509 10.551 12.9996 10.1766 12.9996H2.41178C2.03735 12.9996 1.67826 12.8509 1.4135 12.5861C1.14874 12.3214 1 11.9623 1 11.5878V3.82304C1 3.44861 1.14874 3.08952 1.4135 2.82476C1.67826 2.56 2.03735 2.41125 2.41178 2.41125H4.52945" stroke="currentColor" stroke-linecap="round" stroke-linejoin="round"/>
</svg>
