<svg width="32" height="32" viewBox="0 0 32 32" fill="none" xmlns="http://www.w3.org/2000/svg">
<path d="M27 8.36384L26.9389 8.27475V8.19839L21.6711 2.22945C21.6125 2.17689 21.5466 2.13397 21.4756 2.10218H21.4144C21.3211 2.04518 21.2167 2.0104 21.1089 2.00037H8.53222C7.61044 1.98675 6.72107 2.35417 6.05898 3.02213C5.39689 3.6901 5.01608 4.60411 5 5.56391V26.4361C5.01608 27.3959 5.39689 28.3099 6.05898 28.9779C6.72107 29.6458 7.61044 30.0133 8.53222 29.9996H23.4678C24.3896 30.0133 25.2789 29.6458 25.941 28.9779C26.6031 28.3099 26.9839 27.3959 27 26.4361V8.51656C27 8.51656 27 8.42747 27 8.36384ZM21.8667 7.81658V4.62212L24.6778 7.81658H21.8667ZM21.1333 9.24199H25.5578V26.4106C25.5579 26.6941 25.5035 26.9747 25.3979 27.2359C25.2922 27.4972 25.1375 27.7338 24.9428 27.9318C24.748 28.1299 24.5172 28.2853 24.2639 28.3891C24.0106 28.4929 23.7399 28.5428 23.4678 28.536H8.53222C8.26256 28.5411 7.99459 28.4908 7.7436 28.388C7.49262 28.2852 7.26355 28.1319 7.06946 27.9369C6.87538 27.7419 6.72009 27.509 6.61247 27.2515C6.50484 26.994 6.44699 26.7169 6.44222 26.4361V5.52573C6.44699 5.24493 6.50484 4.96787 6.61247 4.71035C6.72009 4.45284 6.87538 4.21993 7.06946 4.02493C7.26355 3.82992 7.49262 3.67664 7.7436 3.57383C7.99459 3.47103 8.26256 3.42072 8.53222 3.42578H20.4122V8.51656C20.4186 8.71126 20.4973 8.89578 20.6319 9.03114C20.7664 9.1665 20.9462 9.24211 21.1333 9.24199V9.24199Z" fill="currentColor"/>
<path d="M19.64 19.3327C19.4165 18.9915 19.1026 18.7191 18.7333 18.546C17.9872 18.2315 17.1944 18.0423 16.3867 17.986C15.756 17.9512 15.1349 17.8162 14.5467 17.586C14.3746 17.5058 14.2306 17.3758 14.1333 17.2127C14.0274 17.007 13.9769 16.7772 13.9867 16.546C13.9884 16.3444 14.0502 16.1479 14.1642 15.9817C14.2782 15.8154 14.4393 15.6869 14.6267 15.6127C15.0884 15.4093 15.5889 15.3092 16.0933 15.3193V15.3193C16.591 15.3072 17.0858 15.398 17.5467 15.586C17.991 15.7701 18.3876 16.0528 18.7067 16.4127L18.8533 16.5727L20 15.746L19.8533 15.586C19.4803 15.1564 19.0275 14.8032 18.52 14.546C18.0474 14.3047 17.5384 14.1426 17.0133 14.066V12.666H15.5467V13.9993C14.7905 14.0461 14.0617 14.2998 13.44 14.7327C13.1582 14.9375 12.9291 15.2062 12.7715 15.5168C12.6138 15.8274 12.5322 16.171 12.5333 16.5193C12.5301 16.9865 12.6497 17.4463 12.88 17.8527C13.1113 18.1953 13.4286 18.4712 13.8 18.6527C14.5604 18.9823 15.3727 19.1763 16.2 19.226C16.8206 19.2619 17.4321 19.3922 18.0133 19.6127C18.182 19.6918 18.3251 19.8165 18.4267 19.9727C18.5281 20.1705 18.5786 20.3905 18.5733 20.6127C18.5785 20.8587 18.4984 21.0989 18.3467 21.2927C18.2051 21.4742 18.0158 21.6127 17.8 21.6927C17.3145 21.8748 16.7983 21.9609 16.28 21.946C15.6488 21.9729 15.0187 21.8732 14.4267 21.6527C14.003 21.4781 13.6279 21.2036 13.3333 20.8527L13.1867 20.6927L12 21.5727L12.1467 21.746C12.5797 22.2491 13.1226 22.646 13.7333 22.906C14.2934 23.1517 14.8954 23.2875 15.5067 23.306V24.6393H16.9733V23.306C17.7442 23.2596 18.4851 22.991 19.1067 22.5327C19.3904 22.3154 19.6191 22.0344 19.7743 21.7125C19.9294 21.3906 20.0068 21.0367 20 20.6793C20.0127 20.2051 19.8877 19.7373 19.64 19.3327V19.3327Z" fill="currentColor"/>
</svg>
