<svg width="40" height="40" viewBox="0 0 40 40" fill="none" xmlns="http://www.w3.org/2000/svg">
<path d="M36 0H4C1.79086 0 0 1.79086 0 4V36C0 38.2091 1.79086 40 4 40H36C38.2091 40 40 38.2091 40 36V4C40 1.79086 38.2091 0 36 0Z" fill="url(#paint0_linear)"/>
<path d="M21.5117 33.7143H18.6286C18.2066 33.7143 18.041 33.7143 16.5577 29.9714L15.4099 29.4861C12.3031 30.9145 11.9392 30.9145 11.7999 30.9145H11.5752L11.379 30.7426L9.33555 28.7382C9.02751 28.4217 8.91357 28.3099 10.5108 24.6239L10.035 23.5099C6.28571 22.1426 6.28571 21.9717 6.28571 21.5139V18.6286C6.28571 18.1718 6.28571 18.0284 10.036 16.543L10.5118 15.429C8.83234 11.8 8.94417 11.686 9.28069 11.3717L11.4961 9.1721H11.7714C13.039 9.49761 14.2683 9.95736 15.4384 10.5435L16.5862 10.0583C17.9007 6.28577 18.0684 6.28577 18.4883 6.28577H21.3714C21.7934 6.28577 21.959 6.28577 23.4423 10.0287L24.5901 10.4855C27.6969 9.05711 28.0608 9.05711 28.2001 9.05711H28.4237L28.6199 9.22801L30.6634 11.2567C30.9714 11.5732 31.0854 11.685 29.4882 15.371L29.9639 16.5135C33.7143 17.8902 33.7143 18.0284 33.7143 18.4862V21.3715C33.7143 21.7998 33.7143 21.9717 29.9639 23.4571L29.5167 24.5711C31.1961 28.2001 31.0843 28.3141 30.7763 28.6285L28.5377 30.8565H28.2581C26.9905 30.531 25.7612 30.0712 24.5911 29.4851L23.4433 29.9703C22.0993 33.7143 21.9316 33.7143 21.5117 33.7143ZM18.9092 32.5149H21.1763C21.4284 31.9716 21.9875 30.5432 22.4633 29.2867L22.5477 29.0293L24.6185 28.1727L24.8422 28.2582C26.0733 28.8015 27.5291 29.4007 28.1125 29.5726L29.7076 27.9723C29.5114 27.4005 28.8963 26.0006 28.3362 24.8011L28.2243 24.5722L29.0915 22.4866L29.3152 22.4011C30.5748 21.9158 32.0021 21.3156 32.5338 21.0297V18.8006C31.9736 18.5432 30.5463 17.9724 29.3152 17.5431L29.0725 17.4576L28.2054 15.372L28.3172 15.1431C28.8447 13.9141 29.4365 12.4857 29.6327 11.8854L28.0323 10.2861C27.5281 10.4581 26.0733 11.1143 24.8422 11.686L24.6185 11.8L22.5477 10.9423L22.4633 10.7134C21.959 9.45588 21.344 7.999 21.0919 7.48524H18.8248C18.5727 8.02854 18.0135 9.45693 17.5377 10.7134L17.4534 10.9423L15.3825 11.8L15.1578 11.7145C13.9267 11.1712 12.4708 10.572 11.8832 10.4001L10.2882 12.0004C10.4844 12.5722 11.0994 13.9721 11.6596 15.1716L11.7714 15.4005L10.9043 17.4861L10.6806 17.5716C9.44949 18.0568 7.99366 18.6571 7.46197 18.943V21.2006C8.02215 21.458 9.44949 22.0287 10.6806 22.4866L10.9327 22.572L11.7999 24.6576L11.6881 24.8581C11.1606 26.0871 10.5688 27.5155 10.3726 28.0862L11.9676 29.6866C12.4719 29.4861 13.9267 28.8584 15.1578 28.2866L15.3814 28.1727L17.4523 29.0304L17.5367 29.2593C18.041 30.5432 18.6581 32.0001 18.9092 32.5149ZM20 24.8001C19.0501 24.8028 18.1207 24.5236 17.3295 23.9978C16.5384 23.472 15.921 22.7233 15.5556 21.8465C15.1902 20.9696 15.0932 20.0041 15.2768 19.0721C15.4605 18.14 15.9166 17.2835 16.5873 16.6108C17.2581 15.9382 18.1133 15.4796 19.0448 15.2933C19.9763 15.107 20.9421 15.2012 21.82 15.5641C22.6979 15.927 23.4483 16.5422 23.9764 17.3319C24.5044 18.1215 24.7863 19.0501 24.7863 20.0001C24.7871 21.271 24.2836 22.4903 23.3862 23.3902C22.4888 24.2902 21.2709 24.7973 20 24.8001ZM20 16.4006C19.0422 16.4022 18.1236 16.7807 17.4427 17.4543C16.7618 18.1278 16.3734 19.0424 16.3615 20.0001C16.3565 20.7174 16.5645 21.4202 16.9591 22.0193C17.3537 22.6184 17.9173 23.0869 18.5784 23.3656C19.2394 23.6442 19.9683 23.7204 20.6728 23.5845C21.3772 23.4486 22.0254 23.1068 22.5354 22.6022C23.0455 22.0977 23.3943 21.4532 23.5378 20.7503C23.6812 20.0473 23.6129 19.3177 23.3414 18.6536C23.0699 17.9896 22.6075 17.421 22.0127 17.0199C21.4178 16.6189 20.7174 16.4033 20 16.4006Z" fill="white"/>
<defs>
<linearGradient id="paint0_linear" x1="20" y1="0" x2="20" y2="40" gradientUnits="userSpaceOnUse">
<stop stop-color="#8EA1E3"/>
<stop offset="1" stop-color="#395498"/>
</linearGradient>
</defs>
</svg>
