<svg width="18" height="23" viewBox="0 0 18 23" xmlns="http://www.w3.org/2000/svg">
<path d="M4.66004 11.1122V12.6829H13.27V11.1122H4.66004ZM4.66004 15.6195V17.1902H13.27V15.6195H4.66004ZM4.66004 11.1122V12.6829H13.27V11.1122H4.66004ZM4.66004 15.6195V17.1902H13.27V15.6195H4.66004ZM4.66004 15.6195V17.1902H13.27V15.6195H4.66004ZM4.66004 11.1122V12.6829H13.27V11.1122H4.66004ZM4.66004 11.1122V12.6829H13.27V11.1122H4.66004ZM4.66004 11.1122V12.6829H13.27V11.1122H4.66004ZM4.66004 15.6195V17.1902H13.27V15.6195H4.66004ZM4.66004 11.1122V12.6829H13.27V11.1122H4.66004ZM4.66004 11.1122V12.6829H13.27V11.1122H4.66004ZM4.66004 11.1122V12.6829H13.27V11.1122H4.66004ZM4.66004 15.6195V17.1902H13.27V15.6195H4.66004ZM4.66004 11.1122V12.6829H13.27V11.1122H4.66004ZM4.66004 11.1122V12.6829H13.27V11.1122H4.66004ZM4.66004 11.1122V12.6829H13.27V11.1122H4.66004ZM4.66004 11.1122V12.6829H13.27V11.1122H4.66004ZM4.66004 11.1122V12.6829H13.27V11.1122H4.66004ZM4.66004 11.1122V12.6829H13.27V11.1122H4.66004ZM4.66004 15.6195V17.1902H13.27V15.6195H4.66004ZM4.66004 17.2585H13.27V15.6878H4.66004V17.2585ZM4.66004 11.1122V12.6829H13.27V11.1122H4.66004ZM13.55 0.868286H2.00004C1.44004 0.868286 0.950039 1.07316 0.600039 1.41463C0.250039 1.75609 0.0400391 2.23414 0.0400391 2.78048V21.0146C0.0400391 21.561 0.250039 22.039 0.600039 22.3805C0.950039 22.7219 1.51004 22.9268 2.00004 22.9268H16C16.56 22.9268 17.05 22.7219 17.4 22.3805C17.75 22.039 17.96 21.561 17.96 21.0146V5.17073L13.55 0.868286ZM16.35 21.3561H1.65004V2.43902H12.85V5.85365H16.35V21.3561ZM4.66004 17.2585H13.27V15.6878H4.66004V17.2585ZM4.66004 12.6829H13.27V11.1122H4.66004V12.6829ZM4.66004 11.1122V12.6829H13.27V11.1122H4.66004ZM4.66004 15.6195V17.1902H13.27V15.6195H4.66004ZM4.66004 11.1122V12.6829H13.27V11.1122H4.66004ZM4.66004 11.1122V12.6829H13.27V11.1122H4.66004ZM4.66004 11.1122V12.6829H13.27V11.1122H4.66004ZM4.66004 11.1122V12.6829H13.27V11.1122H4.66004ZM4.66004 11.1122V12.6829H13.27V11.1122H4.66004ZM4.66004 15.6195V17.1902H13.27V15.6195H4.66004ZM4.66004 11.1122V12.6829H13.27V11.1122H4.66004ZM4.66004 11.1122V12.6829H13.27V11.1122H4.66004ZM4.66004 15.6195V17.1902H13.27V15.6195H4.66004Z"/>
<path d="M4.66004 11.1122V12.6829H13.27V11.1122H4.66004ZM4.66004 15.6195V17.1902H13.27V15.6195H4.66004ZM4.66004 15.6195V17.1902H13.27V15.6195H4.66004ZM4.66004 11.1122V12.6829H13.27V11.1122H4.66004ZM4.66004 11.1122V12.6829H13.27V11.1122H4.66004ZM4.66004 11.1122V12.6829H13.27V11.1122H4.66004ZM4.66004 15.6195V17.1902H13.27V15.6195H4.66004ZM4.66004 11.1122V12.6829H13.27V11.1122H4.66004ZM4.66004 11.1122V12.6829H13.27V11.1122H4.66004ZM4.66004 11.1122V12.6829H13.27V11.1122H4.66004ZM4.66004 15.6195V17.1902H13.27V15.6195H4.66004ZM4.66004 11.1122V12.6829H13.27V11.1122H4.66004ZM4.66004 11.1122V12.6829H13.27V11.1122H4.66004ZM4.66004 11.1122V12.6829H13.27V11.1122H4.66004ZM4.66004 11.1122V12.6829H13.27V11.1122H4.66004ZM4.66004 11.1122V12.6829H13.27V11.1122H4.66004ZM4.66004 11.1122V12.6829H13.27V11.1122H4.66004ZM4.66004 15.6195V17.1902H13.27V15.6195H4.66004ZM4.66004 17.2585H13.27V15.6878H4.66004V17.2585ZM4.66004 11.1122V12.6829H13.27V11.1122H4.66004ZM13.55 0.868286H2.00004C1.44004 0.868286 0.950039 1.07316 0.600039 1.41463C0.250039 1.75609 0.0400391 2.23414 0.0400391 2.78048V21.0146C0.0400391 21.561 0.250039 22.039 0.600039 22.3805C0.950039 22.7219 1.51004 22.9268 2.00004 22.9268H16C16.56 22.9268 17.05 22.7219 17.4 22.3805C17.75 22.039 17.96 21.561 17.96 21.0146V5.17073L13.55 0.868286ZM16.35 21.3561H1.65004V2.43902H12.85V5.85365H16.35V21.3561ZM4.66004 17.2585H13.27V15.6878H4.66004V17.2585ZM4.66004 12.6829H13.27V11.1122H4.66004V12.6829ZM4.66004 11.1122V12.6829H13.27V11.1122H4.66004ZM4.66004 15.6195V17.1902H13.27V15.6195H4.66004ZM4.66004 11.1122V12.6829H13.27V11.1122H4.66004ZM4.66004 11.1122V12.6829H13.27V11.1122H4.66004ZM4.66004 11.1122V12.6829H13.27V11.1122H4.66004ZM4.66004 11.1122V12.6829H13.27V11.1122H4.66004ZM4.66004 11.1122V12.6829H13.27V11.1122H4.66004ZM4.66004 15.6195V17.1902H13.27V15.6195H4.66004ZM4.66004 11.1122V12.6829H13.27V11.1122H4.66004ZM4.66004 11.1122V12.6829H13.27V11.1122H4.66004ZM4.66004 15.6195V17.1902H13.27V15.6195H4.66004ZM4.66004 15.6195V17.1902H13.27V15.6195H4.66004ZM4.66004 11.1122V12.6829H13.27V11.1122H4.66004ZM4.66004 11.1122V12.6829H13.27V11.1122H4.66004ZM4.66004 11.1122V12.6829H13.27V11.1122H4.66004ZM4.66004 15.6195V17.1902H13.27V15.6195H4.66004ZM4.66004 11.1122V12.6829H13.27V11.1122H4.66004ZM4.66004 11.1122V12.6829H13.27V11.1122H4.66004ZM4.66004 15.6195V17.1902H13.27V15.6195H4.66004ZM4.66004 15.6195V17.1902H13.27V15.6195H4.66004ZM4.66004 11.1122V12.6829H13.27V11.1122H4.66004ZM4.66004 11.1122V12.6829H13.27V11.1122H4.66004ZM4.66004 11.1122V12.6829H13.27V11.1122H4.66004ZM4.66004 15.6195V17.1902H13.27V15.6195H4.66004ZM4.66004 11.1122V12.6829H13.27V11.1122H4.66004ZM4.66004 11.1122V12.6829H13.27V11.1122H4.66004ZM4.66004 15.6195V17.1902H13.27V15.6195H4.66004ZM4.66004 15.6195V17.1902H13.27V15.6195H4.66004ZM4.66004 11.1122V12.6829H13.27V11.1122H4.66004Z"/>
<path d="M13.55 0.868286H2.00004C1.44004 0.868286 0.950039 1.07316 0.600039 1.41463C0.250039 1.75609 0.0400391 2.23414 0.0400391 2.78048V21.0146C0.0400391 21.561 0.250039 22.039 0.600039 22.3805C0.950039 22.7219 1.51004 22.9268 2.00004 22.9268H16C16.56 22.9268 17.05 22.7219 17.4 22.3805C17.75 22.039 17.96 21.561 17.96 21.0146V5.17073L13.55 0.868286ZM16.35 21.3561H1.65004V2.43902H12.85V5.85365H16.35V21.3561Z"/>
</svg>
