<svg width="16" height="17" viewBox="0 0 16 17" fill="none" xmlns="http://www.w3.org/2000/svg">
<g clip-path="url(#clip0)">
<path d="M7.99981 16.5002C6.41751 16.5003 4.87074 16.0311 3.55509 15.1521C2.23945 14.273 1.21402 13.0236 0.608495 11.5617C0.00297034 10.0999 -0.155457 8.49129 0.153249 6.9394C0.461955 5.38752 1.22393 3.96203 2.34281 2.84321C3.84314 1.34288 5.87802 0.5 7.99981 0.5C10.1216 0.5 12.1565 1.34288 13.6568 2.84321C15.1571 4.34354 16 6.37842 16 8.50021C16 10.622 15.1571 12.6569 13.6568 14.1572C12.9157 14.9024 12.034 15.4932 11.063 15.8954C10.092 16.2976 9.05083 16.5031 7.99981 16.5002ZM7.99981 1.50021C6.61534 1.50021 5.26196 1.91075 4.11082 2.67992C2.95967 3.44909 2.06246 4.54234 1.53265 5.82142C1.00284 7.1005 0.864213 8.50797 1.13431 9.86584C1.40441 11.2237 2.07109 12.471 3.05006 13.45C4.02903 14.4289 5.27631 15.0956 6.63417 15.3657C7.99204 15.6358 9.39951 15.4972 10.6786 14.9674C11.9577 14.4375 13.0509 13.5403 13.8201 12.3892C14.5893 11.2381 14.9998 9.88468 14.9998 8.50021C14.9977 6.64434 14.2595 4.86509 12.9472 3.5528C11.6349 2.2405 9.85567 1.50232 7.99981 1.50021Z" fill="#363636"/>
<path d="M8.16466 7.88889C6.90355 7.56111 6.49799 7.22222 6.49799 6.69444C6.49799 6.08889 7.0591 5.66667 7.99799 5.66667C8.78688 5.66667 9.18133 5.96667 9.32577 6.44444C9.39244 6.66667 9.57577 6.83333 9.8091 6.83333H9.97577C10.3424 6.83333 10.6035 6.47222 10.4758 6.12778C10.2424 5.47222 9.69799 4.92778 8.83133 4.71667V4.33333C8.83133 3.87222 8.4591 3.5 7.99799 3.5C7.53688 3.5 7.16466 3.87222 7.16466 4.33333V4.7C6.08688 4.93333 5.22021 5.63333 5.22021 6.70556C5.22021 7.98889 6.28133 8.62778 7.83133 9C9.22021 9.33333 9.49799 9.82222 9.49799 10.3389C9.49799 10.7222 9.22577 11.3333 7.99799 11.3333C7.08133 11.3333 6.6091 11.0056 6.42577 10.5389C6.34244 10.3222 6.15355 10.1667 5.92577 10.1667H5.77021C5.39799 10.1667 5.13688 10.5444 5.27577 10.8889C5.59244 11.6611 6.33133 12.1167 7.16466 12.2944V12.6667C7.16466 13.1278 7.53688 13.5 7.99799 13.5C8.4591 13.5 8.83133 13.1278 8.83133 12.6667V12.3056C9.91466 12.1 10.7758 11.4722 10.7758 10.3333C10.7758 8.75556 9.42577 8.21667 8.16466 7.88889Z" fill="#363636"/>
</g>
<defs>
<clipPath id="clip0">
<rect width="16" height="16" fill="white" transform="translate(0 0.5)"/>
</clipPath>
</defs>
</svg>
