<svg width="17" height="16" viewBox="0 0 17 16" fill="none" xmlns="http://www.w3.org/2000/svg">
<path d="M4.94494 8.294C4.94494 8.63719 4.8086 8.96633 4.56593 9.209C4.32326 9.45167 3.99413 9.588 3.65093 9.588C3.30774 9.588 2.97861 9.45167 2.73594 9.209C2.49327 8.96633 2.35693 8.63719 2.35693 8.294C2.35693 7.95081 2.49327 7.62168 2.73594 7.379C2.97861 7.13633 3.30774 7 3.65093 7C3.99413 7 4.32326 7.13633 4.56593 7.379C4.8086 7.62168 4.94494 7.95081 4.94494 8.294Z" fill="black" fill-opacity="0.56"/>
<path d="M9.54589 8.294C9.54589 8.46393 9.51242 8.6322 9.44739 8.78919C9.38236 8.94619 9.28704 9.08884 9.16688 9.209C9.04672 9.32916 8.90408 9.42447 8.74708 9.4895C8.59008 9.55453 8.42182 9.588 8.25189 9.588C8.08196 9.588 7.91369 9.55453 7.75669 9.4895C7.5997 9.42447 7.45705 9.32916 7.33689 9.209C7.21673 9.08884 7.12142 8.94619 7.05639 8.78919C6.99136 8.6322 6.95789 8.46393 6.95789 8.294C6.95789 7.95081 7.09422 7.62168 7.33689 7.379C7.57956 7.13633 7.9087 7 8.25189 7C8.59508 7 8.92421 7.13633 9.16688 7.379C9.40956 7.62168 9.54589 7.95081 9.54589 8.294Z" fill="black" fill-opacity="0.56"/>
<path d="M12.8528 9.588C13.0227 9.588 13.191 9.55453 13.348 9.4895C13.505 9.42447 13.6476 9.32916 13.7678 9.209C13.888 9.08884 13.9833 8.94619 14.0483 8.78919C14.1133 8.6322 14.1468 8.46393 14.1468 8.294C14.1468 8.12407 14.1133 7.9558 14.0483 7.79881C13.9833 7.64181 13.888 7.49916 13.7678 7.379C13.6476 7.25885 13.505 7.16353 13.348 7.0985C13.191 7.03347 13.0227 7 12.8528 7C12.5096 7 12.1805 7.13633 11.9378 7.379C11.6951 7.62168 11.5588 7.95081 11.5588 8.294C11.5588 8.63719 11.6951 8.96633 11.9378 9.209C12.1805 9.45167 12.5096 9.588 12.8528 9.588Z" fill="black" fill-opacity="0.56"/>
</svg>
