<svg width="20" height="20" viewBox="0 0 20 20"  xmlns="http://www.w3.org/2000/svg">
<path d="M9.98297 4.13237e-05C9.07932 0.00651773 8.19781 0.282209 7.44957 0.792355C6.70133 1.3025 6.11988 2.02426 5.77851 2.86664C5.43715 3.70901 5.35116 4.63428 5.53139 5.52578C5.71162 6.41728 6.15 7.2351 6.79126 7.87613C7.43251 8.51716 8.24794 8.95268 9.13471 9.12781C10.0215 9.30293 10.9399 9.2098 11.7742 8.86016C12.6085 8.51052 13.3212 7.92003 13.8226 7.16314C14.324 6.40625 14.5916 5.51684 14.5916 4.60706C14.5899 3.99979 14.4693 3.39881 14.2367 2.83851C14.0041 2.27821 13.664 1.76957 13.236 1.34169C12.8079 0.913802 12.3003 0.575068 11.7421 0.344857C11.1839 0.114645 10.5862 -0.00252698 9.98297 4.13237e-05ZM9.98297 8.28955C9.25997 8.28924 8.55329 8.07313 7.95227 7.66855C7.35125 7.26397 6.88286 6.68907 6.60632 6.01653C6.32978 5.34399 6.25751 4.60401 6.39863 3.89012C6.53976 3.17624 6.88795 2.5205 7.39919 2.00581C7.91042 1.49112 8.56176 1.14057 9.27085 0.998495C9.97995 0.856416 10.715 0.92918 11.383 1.20759C12.051 1.48599 12.622 1.95755 13.0239 2.56263C13.4258 3.16772 13.6404 3.87917 13.6407 4.60706C13.6389 5.58315 13.2529 6.51872 12.5674 7.20892C11.8818 7.89912 10.9525 8.28769 9.98297 8.28955V8.28955Z" fill="#6B6B6B"/>
<path d="M10.0164 9.99102C2.64265 9.99102 0.737751 16.672 0.553931 17.4146C0.0932194 19.982 2.73572 19.982 2.73572 19.982H17.3885C17.6724 20.022 17.9616 19.9952 18.2335 19.9037C18.5054 19.8122 18.7525 19.6585 18.9554 19.4547C19.1583 19.2508 19.3115 19.0024 19.403 18.7289C19.4945 18.4554 19.5218 18.1643 19.4827 17.8784C17.6988 9.52954 10.0164 9.99102 10.0164 9.99102ZM17.0829 19.0848H2.98004C2.98004 19.0848 1.38228 18.9919 1.47458 17.8472C1.86631 15.922 2.89314 14.1868 4.38824 12.9235C5.88333 11.6601 7.75883 10.9428 9.71 10.8882C9.71 10.8882 16.8991 10.5173 18.4969 17.9409C18.4961 18.3118 18.3115 19.0848 17.0829 19.0848Z" fill="#6B6B6B"/>
</svg>