<svg width="32" height="32" viewBox="0 0 32 32" fill="none" xmlns="http://www.w3.org/2000/svg">
<path d="M21 18.5877C20.9987 19.0278 20.9097 19.4633 20.7379 19.8685C20.5662 20.2738 20.3153 20.6406 20 20.9477C19.3537 21.585 18.481 21.9398 17.5733 21.9343H16.7866V23.2677C16.7866 23.4727 16.705 23.6694 16.56 23.8143C16.4104 23.9609 16.2094 24.043 16 24.043C15.7906 24.043 15.5895 23.9609 15.44 23.8143C15.2949 23.6694 15.2134 23.4727 15.2133 23.2677V21.9343H12.84C12.7363 21.9353 12.6335 21.9158 12.5374 21.8769C12.4412 21.838 12.3538 21.7805 12.28 21.7077C12.135 21.5627 12.0536 21.366 12.0536 21.161C12.0536 20.956 12.135 20.7594 12.28 20.6143C12.3538 20.5415 12.4412 20.484 12.5374 20.4451C12.6335 20.4062 12.7363 20.3867 12.84 20.3877H17.5733C17.82 20.3927 18.0651 20.3481 18.2942 20.2564C18.5232 20.1648 18.7315 20.0281 18.9066 19.8543C19.0789 19.69 19.216 19.4924 19.3097 19.2735C19.4033 19.0547 19.4516 18.8191 19.4516 18.581C19.4516 18.3429 19.4033 18.1073 19.3097 17.8885C19.216 17.6696 19.0789 17.472 18.9066 17.3077C18.7315 17.1339 18.5232 16.9972 18.2942 16.9056C18.0651 16.8139 17.82 16.7693 17.5733 16.7743H14.4266C13.519 16.7798 12.6463 16.425 12 15.7877C11.6843 15.4796 11.4334 15.1116 11.2621 14.7051C11.0909 14.2987 11.0026 13.8621 11.0026 13.421C11.0026 12.9799 11.0909 12.5433 11.2621 12.1369C11.4334 11.7304 11.6843 11.3624 12 11.0543C12.6463 10.417 13.519 10.0622 14.4266 10.0677H15.2133V8.73434C15.2134 8.52927 15.2949 8.33263 15.44 8.18767C15.5895 8.04109 15.7906 7.95898 16 7.95898C16.2094 7.95898 16.4104 8.04109 16.56 8.18767C16.705 8.33263 16.7866 8.52927 16.7866 8.73434V10.0677H19.16C19.2637 10.0667 19.3665 10.0862 19.4626 10.1251C19.5587 10.164 19.6462 10.2215 19.72 10.2943C19.8649 10.4394 19.9463 10.636 19.9463 10.841C19.9463 11.046 19.8649 11.2427 19.72 11.3877C19.6462 11.4605 19.5587 11.518 19.4626 11.5569C19.3665 11.5958 19.2637 11.6153 19.16 11.6143H14.4266C14.18 11.6093 13.9349 11.6539 13.7058 11.7456C13.4767 11.8372 13.2685 11.9739 13.0933 12.1477C12.9211 12.312 12.784 12.5096 12.6903 12.7285C12.5966 12.9473 12.5483 13.1829 12.5483 13.421C12.5483 13.6591 12.5966 13.8947 12.6903 14.1135C12.784 14.3324 12.9211 14.53 13.0933 14.6943C13.2685 14.8681 13.4767 15.0048 13.7058 15.0964C13.9349 15.1881 14.18 15.2327 14.4266 15.2277H17.5733C18.4796 15.2293 19.3497 15.5831 20 16.2143C20.3163 16.5234 20.5678 16.8925 20.7395 17.3001C20.9112 17.7076 20.9998 18.1454 21 18.5877V18.5877Z" fill="currentColor"/>
<path d="M25.4267 6.57376C23.2451 4.39283 20.3748 3.03581 17.3048 2.73394C14.2348 2.43207 11.1552 3.20401 8.59057 4.91825C6.02596 6.63249 4.13509 9.18294 3.24014 12.135C2.3452 15.0871 2.50155 18.2582 3.68256 21.108C4.86357 23.9577 6.99617 26.3098 9.71697 27.7634C12.4378 29.2171 15.5784 29.6823 18.6038 29.0799C21.6292 28.4775 24.3521 26.8447 26.3086 24.4597C28.265 22.0748 29.334 19.0852 29.3334 16.0004C29.3326 12.4645 27.9273 9.07366 25.4267 6.57376V6.57376ZM24.32 24.3204C22.3941 26.2521 19.8577 27.4559 17.1435 27.7267C14.4292 27.9975 11.705 27.3185 9.43538 25.8054C7.16575 24.2924 5.49117 22.0389 4.69713 19.4293C3.90309 16.8197 4.03876 14.0155 5.081 11.4947C6.12325 8.9739 8.00754 6.89265 10.4126 5.60576C12.8177 4.31886 15.5947 3.90599 18.2702 4.43753C20.9456 4.96908 23.3539 6.41213 25.0844 8.52067C26.8149 10.6292 27.7605 13.2727 27.76 16.0004C27.758 19.1194 26.5212 22.1107 24.32 24.3204Z" fill="currentColor"/>
</svg>
