<svg width="32" height="32" viewBox="0 0 32 32" fill="none" xmlns="http://www.w3.org/2000/svg">
<path d="M25.4266 6.57246C24.1966 5.29899 22.7254 4.28323 21.0986 3.58444C19.4719 2.88566 17.7223 2.51784 15.9519 2.50246C14.1815 2.48707 12.4258 2.82443 10.7872 3.49484C9.14858 4.16525 7.65989 5.15529 6.40799 6.4072C5.15609 7.6591 4.16605 9.14779 3.49563 10.7864C2.82522 12.425 2.48787 14.1808 2.50325 15.9511C2.51863 17.7215 2.88645 19.4711 3.58524 21.0979C4.28402 22.7246 5.29979 24.1958 6.57326 25.4258C7.80321 26.6993 9.27448 27.715 10.9012 28.4138C12.5279 29.1126 14.2775 29.4804 16.0479 29.4958C17.8183 29.5112 19.574 29.1738 21.2126 28.5034C22.8513 27.833 24.34 26.843 25.5919 25.5911C26.8438 24.3392 27.8338 22.8505 28.5042 21.2118C29.1746 19.5732 29.512 17.8175 29.4966 16.0471C29.4812 14.2767 29.1134 12.5271 28.4146 10.9004C27.7158 9.27368 26.7001 7.80242 25.4266 6.57246V6.57246ZM9.33326 25.7058C9.59801 24.1291 10.413 22.6972 11.6336 21.6646C12.8541 20.6319 14.4011 20.0652 15.9999 20.0652C17.5987 20.0652 19.1457 20.6319 20.3663 21.6646C21.5868 22.6972 22.4018 24.1291 22.6666 25.7058C20.7061 27.0572 18.3811 27.7809 15.9999 27.7809C13.6187 27.7809 11.2938 27.0572 9.33326 25.7058V25.7058ZM11.7466 14.3191C11.7466 13.4811 11.9949 12.6619 12.4602 11.9649C12.9256 11.2679 13.587 10.7245 14.3609 10.4032C15.1349 10.0819 15.9868 9.99713 16.8089 10.1596C17.631 10.3222 18.3865 10.7247 18.98 11.3163C19.5735 11.908 19.9784 12.6622 20.1435 13.4838C20.3086 14.3054 20.2265 15.1575 19.9077 15.9325C19.5888 16.7075 19.0474 17.3706 18.3519 17.8381C17.6564 18.3056 16.8379 18.5565 15.9999 18.5591C14.8754 18.5591 13.7969 18.1124 13.0018 17.3173C12.2066 16.5221 11.7599 15.4436 11.7599 14.3191H11.7466ZM23.9999 24.6258C23.6539 23.4136 23.039 22.295 22.2011 21.3531C21.3631 20.4113 20.3237 19.6705 19.1599 19.1858C20.2087 18.5044 21.0091 17.5022 21.4418 16.3288C21.8745 15.1553 21.9162 13.8734 21.5609 12.6743C21.2055 11.4752 20.4721 10.423 19.4699 9.67475C18.4678 8.92649 17.2506 8.52222 15.9999 8.52222C14.7492 8.52222 13.5321 8.92649 12.5299 9.67475C11.5277 10.423 10.7943 11.4752 10.439 12.6743C10.0836 13.8734 10.1254 15.1553 10.5581 16.3288C10.9908 17.5022 11.7912 18.5044 12.8399 19.1858C11.6762 19.6705 10.6367 20.4113 9.79874 21.3531C8.96079 22.295 8.34594 23.4136 7.99992 24.6258C6.26333 23.0174 5.05186 20.923 4.52357 18.6157C3.99529 16.3084 4.17472 13.8955 5.03847 11.6917C5.90221 9.48799 7.41016 7.59575 9.36554 6.26194C11.3209 4.92813 13.6329 4.21467 15.9999 4.21467C18.3669 4.21467 20.6789 4.92813 22.6343 6.26194C24.5897 7.59575 26.0976 9.48799 26.9614 11.6917C27.8251 13.8955 28.0046 16.3084 27.4763 18.6157C26.948 20.923 25.7365 23.0174 23.9999 24.6258V24.6258Z" fill="currentColor"/>
</svg>
