<svg width="28" height="28" viewBox="0 0 28 28"  xmlns="http://www.w3.org/2000/svg">
<path d="M15.5117 27.7142H12.6285C12.2065 27.7142 12.0409 27.7142 10.5576 23.9713L9.40986 23.486C6.30305 24.9144 5.9391 24.9144 5.79984 24.9144H5.57514L5.37892 24.7424L3.33549 22.738C3.02745 22.4216 2.91351 22.3097 4.5107 18.6238L4.03492 17.5097C0.285645 16.1425 0.285645 15.9716 0.285645 15.5138V12.6285C0.285645 12.1717 0.285645 12.0282 4.03597 10.5429L4.51175 9.42885C2.83228 5.79984 2.94411 5.68591 3.28063 5.37153L5.49602 3.17197H5.77136C7.03896 3.49749 8.26823 3.95723 9.43835 4.5434L10.5861 4.05813C11.9006 0.285645 12.0683 0.285645 12.4882 0.285645H15.3714C15.7933 0.285645 15.959 0.285644 17.4422 4.02859L18.59 4.48538C21.6968 3.05699 22.0608 3.05699 22.2 3.05699H22.4237L22.6199 3.22789L24.6633 5.25655C24.9714 5.57303 25.0853 5.68485 23.4881 9.37083L23.9639 10.5133C27.7142 11.89 27.7142 12.0282 27.7142 12.4861V15.3714C27.7142 15.7997 27.7142 15.9716 23.9639 17.457L23.5166 18.571C25.1961 22.2 25.0842 22.314 24.7762 22.6283L22.5376 24.8564H22.258C20.9904 24.5309 19.7612 24.0711 18.5911 23.4849L17.4433 23.9702C16.0993 27.7142 15.9315 27.7142 15.5117 27.7142ZM12.9091 26.5147H15.1762C15.4283 25.9714 15.9874 24.5431 16.4632 23.2866L16.5476 23.0292L18.6185 22.1726L18.8421 22.258C20.0732 22.8013 21.5291 23.4005 22.1125 23.5725L23.7075 21.9721C23.5113 21.4004 22.8963 20.0005 22.3361 18.801L22.2243 18.5721L23.0914 16.4864L23.3151 16.401C24.5747 15.9157 26.002 15.3154 26.5337 15.0296V12.8005C25.9736 12.5431 24.5462 11.9723 23.3151 11.543L23.0725 11.4575L22.2053 9.37189L22.3171 9.14296C22.8446 7.91395 23.4364 6.48556 23.6326 5.88529L22.0323 4.286C21.528 4.45795 20.0732 5.11413 18.8421 5.68591L18.6185 5.79984L16.5476 4.94217L16.4632 4.71325C15.959 3.45575 15.3439 1.99888 15.0918 1.48512H12.8247C12.5726 2.02841 12.0135 3.45681 11.5377 4.71325L11.4533 4.94217L9.38243 5.79984L9.15773 5.71439C7.92661 5.1711 6.47079 4.57189 5.88318 4.39993L4.28811 6.00028C4.48433 6.57206 5.09936 7.97197 5.65953 9.17145L5.77136 9.40037L4.90419 11.486L4.68055 11.5714C3.44942 12.0567 1.9936 12.657 1.46191 12.9429V15.2005C2.02208 15.4579 3.44942 16.0286 4.68055 16.4864L4.93268 16.5719L5.79984 18.6575L5.68802 18.858C5.16055 20.087 4.56872 21.5154 4.3725 22.0861L5.96758 23.6864C6.47184 23.486 7.92661 22.8583 9.15773 22.2865L9.38138 22.1726L11.4522 23.0303L11.5366 23.2592C12.0409 24.5431 12.658 25.9999 12.9091 26.5147ZM13.9999 18.7999C13.05 18.8026 12.1206 18.5234 11.3295 17.9977C10.5383 17.4719 9.92095 16.7232 9.55554 15.8463C9.19014 14.9695 9.09312 14.0039 9.27678 13.0719C9.46044 12.1399 9.91651 11.2834 10.5873 10.6107C11.258 9.93803 12.1132 9.47951 13.0447 9.29319C13.9762 9.10687 14.942 9.20112 15.8199 9.56401C16.6978 9.92691 17.4483 10.5421 17.9763 11.3318C18.5043 12.1214 18.7862 13.05 18.7862 13.9999C18.7871 15.2709 18.2835 16.4902 17.3861 17.3901C16.4887 18.2901 15.2709 18.7971 13.9999 18.7999ZM13.9999 10.4005C13.0422 10.402 12.1235 10.7806 11.4426 11.4541C10.7617 12.1277 10.3733 13.0422 10.3614 13.9999C10.3564 14.7173 10.5644 15.4201 10.959 16.0192C11.3537 16.6183 11.9172 17.0868 12.5783 17.3654C13.2394 17.6441 13.9683 17.7203 14.6727 17.5844C15.3771 17.4485 16.0254 17.1067 16.5354 16.6021C17.0454 16.0976 17.3942 15.4531 17.5377 14.7501C17.6812 14.0472 17.6128 13.3175 17.3413 12.6535C17.0699 11.9894 16.6074 11.4209 16.0126 11.0198C15.4178 10.6187 14.7173 10.4032 13.9999 10.4005Z" />
</svg>
