<svg width="32" height="32" viewBox="0 0 32 32" fill="none" xmlns="http://www.w3.org/2000/svg">
<path d="M17.5117 29.7137H14.6286C14.2066 29.7137 14.041 29.7137 12.5577 25.9708L11.4099 25.4855C8.30311 26.9139 7.93916 26.9139 7.7999 26.9139H7.5752L7.37898 26.7419L5.33555 24.7376C5.02751 24.4211 4.91357 24.3092 6.51076 20.6233L6.03498 19.5092C2.28571 18.142 2.28571 17.9711 2.28571 17.5133V14.628C2.28571 14.1712 2.28571 14.0277 6.03604 12.5424L6.51182 11.4284C4.83234 7.79935 4.94417 7.68542 5.28069 7.37105L7.49608 5.17149H7.77142C9.03902 5.497 10.2683 5.95675 11.4384 6.54291L12.5862 6.05764C13.9007 2.28516 14.0684 2.28516 14.4883 2.28516H17.3714C17.7934 2.28516 17.959 2.28516 19.4423 6.0281L20.5901 6.48489C23.6969 5.0565 24.0608 5.0565 24.2001 5.0565H24.4237L24.6199 5.2274L26.6634 7.25606C26.9714 7.57254 27.0854 7.68437 25.4882 11.3703L25.9639 12.5128C29.7143 13.8896 29.7143 14.0278 29.7143 14.4856V17.3709C29.7143 17.7992 29.7143 17.9711 25.9639 19.4565L25.5167 20.5705C27.1961 24.1995 27.0843 24.3135 26.7763 24.6278L24.5377 26.8559H24.2581C22.9905 26.5304 21.7612 26.0706 20.5911 25.4845L19.4433 25.9697C18.0993 29.7137 17.9316 29.7137 17.5117 29.7137ZM14.9092 28.5143H17.1763C17.4284 27.971 17.9875 26.5426 18.4633 25.2861L18.5477 25.0287L20.6185 24.1721L20.8422 24.2576C22.0733 24.8008 23.5291 25.4001 24.1125 25.572L25.7076 23.9717C25.5114 23.3999 24.8963 22 24.3362 20.8005L24.2243 20.5716L25.0915 18.4859L25.3152 18.4005C26.5748 17.9152 28.0021 17.315 28.5338 17.0291V14.8C27.9736 14.5426 26.5463 13.9718 25.3152 13.5425L25.0725 13.457L24.2054 11.3714L24.3172 11.1425C24.8447 9.91346 25.4365 8.48507 25.6327 7.88481L24.0323 6.28551C23.5281 6.45746 22.0733 7.11364 20.8422 7.68542L20.6185 7.79935L18.5477 6.94168L18.4633 6.71276C17.959 5.45527 17.344 3.99839 17.0919 3.48463H14.8248C14.5727 4.02793 14.0135 5.45632 13.5377 6.71276L13.4534 6.94168L11.3825 7.79935L11.1578 7.7139C9.92667 7.17061 8.47085 6.5714 7.88324 6.39944L6.28817 7.99979C6.48439 8.57157 7.09942 9.97149 7.6596 11.171L7.77142 11.3999L6.90426 13.4855L6.68061 13.571C5.44949 14.0562 3.99366 14.6565 3.46197 14.9424V17.2C4.02215 17.4574 5.44949 18.0281 6.68061 18.4859L6.93274 18.5714L7.7999 20.657L7.68808 20.8575C7.16061 22.0865 6.56878 23.5149 6.37256 24.0856L7.96764 25.6859C8.4719 25.4855 9.92667 24.8578 11.1578 24.286L11.3814 24.1721L13.4523 25.0298L13.5367 25.2587C14.041 26.5426 14.6581 27.9994 14.9092 28.5143ZM16 20.7994C15.0501 20.8022 14.1207 20.523 13.3295 19.9972C12.5384 19.4714 11.921 18.7227 11.5556 17.8458C11.1902 16.969 11.0932 16.0035 11.2768 15.0714C11.4605 14.1394 11.9166 13.2829 12.5873 12.6102C13.2581 11.9375 14.1133 11.479 15.0448 11.2927C15.9763 11.1064 16.9421 11.2006 17.82 11.5635C18.6979 11.9264 19.4483 12.5416 19.9764 13.3313C20.5044 14.1209 20.7863 15.0495 20.7863 15.9994C20.7871 17.2704 20.2836 18.4897 19.3862 19.3896C18.4888 20.2896 17.2709 20.7966 16 20.7994ZM16 12.4C15.0422 12.4016 14.1236 12.7801 13.4427 13.4537C12.7618 14.1272 12.3734 15.0417 12.3615 15.9994C12.3565 16.7168 12.5645 17.4196 12.9591 18.0187C13.3537 18.6178 13.9173 19.0863 14.5784 19.365C15.2394 19.6436 15.9683 19.7198 16.6728 19.5839C17.3772 19.448 18.0254 19.1062 18.5354 18.6016C19.0455 18.0971 19.3943 17.4526 19.5378 16.7497C19.6812 16.0467 19.6129 15.3171 19.3414 14.653C19.0699 13.989 18.6075 13.4204 18.0127 13.0193C17.4178 12.6183 16.7174 12.4027 16 12.4Z" fill="currentColor"/>
</svg>
