<svg width="40" height="40" viewBox="0 0 40 40" fill="none" xmlns="http://www.w3.org/2000/svg">
<rect width="40" height="40" rx="4" fill="url(#paint0_linear)"/>
<path d="M28.8889 7.55542H17.2178L11.1111 13.6532V17.3332H12.8889V16.0976H19.6533V9.3332H28.8889V30.6665H11.1111C11.1111 31.138 11.2984 31.5902 11.6318 31.9236C11.9652 32.257 12.4174 32.4443 12.8889 32.4443H28.8889C29.3604 32.4443 29.8125 32.257 30.1459 31.9236C30.4793 31.5902 30.6666 31.138 30.6666 30.6665V9.3332C30.6666 8.8617 30.4793 8.40952 30.1459 8.07612C29.8125 7.74272 29.3604 7.55542 28.8889 7.55542ZM18.2222 14.6665H12.8889V14.3821L17.9555 9.3332H18.2222V14.6665Z" fill="white"/>
<path d="M14.6134 27.36C14.5204 27.4397 14.4448 27.5378 14.3915 27.6481C14.3381 27.7583 14.3081 27.8785 14.3034 28.0009C14.2987 28.1233 14.3193 28.2454 14.364 28.3594C14.4087 28.4735 14.4765 28.5771 14.5631 28.6637C14.6497 28.7504 14.7533 28.8181 14.8674 28.8628C14.9815 28.9075 15.1035 28.9281 15.2259 28.9234C15.3484 28.9187 15.4685 28.8887 15.5788 28.8354C15.689 28.782 15.7871 28.7064 15.8668 28.6134L20.889 23.5556L15.8401 18.5067C15.6701 18.3611 15.4513 18.285 15.2276 18.2936C15.0039 18.3023 14.7917 18.395 14.6334 18.5533C14.4751 18.7116 14.3823 18.9238 14.3737 19.1476C14.3651 19.3713 14.4412 19.59 14.5868 19.76L17.5112 22.6667H6.66678C6.43103 22.6667 6.20494 22.7604 6.03824 22.9271C5.87154 23.0938 5.77789 23.3198 5.77789 23.5556C5.77789 23.7913 5.87154 24.0174 6.03824 24.1841C6.20494 24.3508 6.43103 24.4445 6.66678 24.4445H17.5379L14.6134 27.36Z" fill="white"/>
<defs>
<linearGradient id="paint0_linear" x1="20" y1="0" x2="20" y2="40" gradientUnits="userSpaceOnUse">
<stop stop-color="#FFB31F"/>
<stop offset="1" stop-color="#EC7121"/>
</linearGradient>
</defs>
</svg>
