<svg width="40" height="40" viewBox="0 0 40 40" fill="none" xmlns="http://www.w3.org/2000/svg">
<circle cx="20" cy="20" r="19.5" fill="white" stroke="#DBDBDB"/>
<g clip-path="url(#clip0)">
<path d="M26.55 13.012H25.645V13.965H26.311C26.534 13.9631 26.7552 14.0056 26.9617 14.0898C27.1682 14.174 27.3559 14.2983 27.514 14.4556C27.6721 14.6129 27.7975 14.8 27.8828 15.006C27.9681 15.2121 28.0117 15.433 28.011 15.656V25.35C28.0106 25.5727 27.9663 25.7932 27.8806 25.9987C27.7949 26.2043 27.6696 26.391 27.5117 26.548C27.3538 26.7051 27.1664 26.8295 26.9604 26.9141C26.7544 26.9987 26.5337 27.0418 26.311 27.041H13.68C13.23 27.0421 12.7979 26.8647 12.4785 26.5477C12.1591 26.2307 11.9784 25.8 11.976 25.35V15.655C11.9784 15.2057 12.1585 14.7756 12.4771 14.4587C12.7956 14.1419 13.2267 13.964 13.676 13.964H14.4V13.012H13.441C13.1217 13.0107 12.8052 13.0723 12.5097 13.1933C12.2142 13.3143 11.9454 13.4924 11.7187 13.7173C11.4921 13.9422 11.3119 14.2096 11.1886 14.5041C11.0653 14.7987 11.0012 15.1147 11 15.434V25.578C11.0012 25.8973 11.0653 26.2133 11.1886 26.5079C11.3119 26.8024 11.4921 27.0698 11.7187 27.2947C11.9454 27.5196 12.2142 27.6977 12.5097 27.8187C12.8052 27.9397 13.1217 28.0013 13.441 28H26.559C26.8783 28.0013 27.1948 27.9397 27.4903 27.8187C27.7858 27.6977 28.0546 27.5196 28.2813 27.2947C28.5079 27.0698 28.6881 26.8024 28.8114 26.5079C28.9347 26.2133 28.9988 25.8973 29 25.578V15.434C28.9939 14.7887 28.733 14.1719 28.274 13.7182C27.8151 13.2645 27.1954 13.0107 26.55 13.012ZM22 13.012H17.985V13.988H22V13.012ZM16.334 15.005H16.662C16.7517 15.0045 16.8375 14.9686 16.9008 14.9051C16.9641 14.8416 16.9997 14.7557 17 14.666V12.34C16.9997 12.2504 16.9643 12.1645 16.9012 12.1009C16.8381 12.0373 16.7526 12.0011 16.663 12H16.334C16.2897 12.0003 16.2459 12.0093 16.2051 12.0265C16.1643 12.0438 16.1273 12.0689 16.0963 12.1005C16.0652 12.1321 16.0408 12.1696 16.0242 12.2107C16.0077 12.2517 15.9995 12.2957 16 12.34V14.666C15.9995 14.7105 16.0078 14.7547 16.0245 14.7959C16.0413 14.8371 16.066 14.8746 16.0974 14.9062C16.1288 14.9377 16.1661 14.9627 16.2073 14.9797C16.2484 14.9967 16.2925 15.0053 16.337 15.005H16.334ZM23.334 15.005H23.662C23.7517 15.0045 23.8375 14.9686 23.9008 14.9051C23.9641 14.8416 23.9997 14.7557 24 14.666V12.34C23.9997 12.2504 23.9642 12.1645 23.9012 12.1009C23.8381 12.0373 23.7526 12.0011 23.663 12H23.335C23.2906 12.0001 23.2467 12.009 23.2058 12.0262C23.1649 12.0434 23.1278 12.0686 23.0966 12.1002C23.0655 12.1318 23.0409 12.1693 23.0243 12.2104C23.0077 12.2516 22.9995 12.2956 23 12.34V14.666C22.9995 14.7105 23.0078 14.7547 23.0245 14.7959C23.0413 14.8371 23.066 14.8746 23.0974 14.9062C23.1288 14.9377 23.1661 14.9627 23.2073 14.9797C23.2484 14.9967 23.2925 15.0053 23.337 15.005H23.334ZM15.47 20.005H16.521C16.5841 20.0051 16.6466 19.9928 16.7049 19.9686C16.7632 19.9445 16.8162 19.909 16.8607 19.8643C16.9052 19.8196 16.9405 19.7665 16.9644 19.7081C16.9883 19.6497 17.0004 19.5871 17 19.524V18.491C17.0003 18.428 16.9881 18.3655 16.9641 18.3072C16.9401 18.2489 16.9049 18.196 16.8604 18.1514C16.8158 18.1067 16.7629 18.0714 16.7047 18.0473C16.6465 18.0232 16.584 18.0109 16.521 18.011H15.473C15.41 18.0109 15.3475 18.0232 15.2893 18.0473C15.2311 18.0714 15.1782 18.1067 15.1336 18.1514C15.0891 18.196 15.0539 18.2489 15.0299 18.3072C15.0059 18.3655 14.9937 18.428 14.994 18.491V19.524C14.9931 19.5872 15.0048 19.65 15.0285 19.7086C15.0523 19.7672 15.0875 19.8204 15.1321 19.8652C15.1768 19.9099 15.23 19.9452 15.2885 19.9691C15.3471 19.9929 15.4098 20.0048 15.473 20.004L15.47 20.005ZM20.994 18.491C20.9943 18.428 20.9821 18.3655 20.9581 18.3072C20.9341 18.2489 20.8989 18.196 20.8544 18.1514C20.8098 18.1067 20.7569 18.0714 20.6987 18.0473C20.6405 18.0232 20.578 18.0109 20.515 18.011H19.467C19.3402 18.0123 19.219 18.0633 19.1294 18.1531C19.0398 18.2429 18.989 18.3642 18.988 18.491V19.524C18.9893 19.6507 19.0401 19.7719 19.1297 19.8616C19.2192 19.9513 19.3403 20.0024 19.467 20.004H20.515C20.578 20.0041 20.6405 19.9918 20.6987 19.9677C20.7569 19.9436 20.8098 19.9083 20.8544 19.8636C20.8989 19.819 20.9341 19.7661 20.9581 19.7078C20.9821 19.6495 20.9943 19.587 20.994 19.524V18.491ZM23.47 20.004H24.508C24.571 20.0041 24.6335 19.9918 24.6917 19.9677C24.7499 19.9436 24.8028 19.9083 24.8474 19.8636C24.8919 19.819 24.9271 19.7661 24.9511 19.7078C24.9751 19.6495 24.9873 19.587 24.987 19.524V18.491C24.9873 18.428 24.9751 18.3655 24.9511 18.3072C24.9271 18.2489 24.8919 18.196 24.8474 18.1514C24.8028 18.1067 24.7499 18.0714 24.6917 18.0473C24.6335 18.0232 24.571 18.0109 24.508 18.011H23.47C23.407 18.0109 23.3445 18.0232 23.2863 18.0473C23.2281 18.0714 23.1752 18.1067 23.1306 18.1514C23.0861 18.196 23.0509 18.2489 23.0269 18.3072C23.0029 18.3655 22.9907 18.428 22.991 18.491V19.524C22.9907 19.587 23.0029 19.6495 23.0269 19.7078C23.0509 19.7661 23.0861 19.819 23.1306 19.8636C23.1752 19.9083 23.2281 19.9436 23.2863 19.9677C23.3445 19.9918 23.407 20.0041 23.47 20.004ZM15.47 23.996H16.521C16.5839 23.9961 16.6463 23.9838 16.7045 23.9598C16.7626 23.9358 16.8155 23.9005 16.86 23.856C16.9045 23.8115 16.9398 23.7586 16.9638 23.7005C16.9878 23.6423 17.0001 23.5799 17 23.517V22.476C17.0003 22.413 16.9881 22.3505 16.9641 22.2922C16.9401 22.2339 16.9049 22.181 16.8604 22.1364C16.8158 22.0917 16.7629 22.0564 16.7047 22.0323C16.6465 22.0082 16.584 21.9959 16.521 21.996H15.473C15.41 21.9959 15.3475 22.0082 15.2893 22.0323C15.2311 22.0564 15.1782 22.0917 15.1336 22.1364C15.0891 22.181 15.0539 22.2339 15.0299 22.2922C15.0059 22.3505 14.9937 22.413 14.994 22.476V23.517C14.9929 23.5802 15.0046 23.6431 15.0282 23.7017C15.0519 23.7604 15.0871 23.8137 15.1318 23.8585C15.1765 23.9032 15.2297 23.9386 15.2883 23.9624C15.347 23.9862 15.4098 23.9979 15.473 23.997L15.47 23.996ZM20.511 22.003H19.467C19.3402 22.0043 19.219 22.0553 19.1294 22.1451C19.0398 22.2349 18.989 22.3562 18.988 22.483V23.524C18.989 23.6508 19.0398 23.7721 19.1294 23.8619C19.219 23.9517 19.3402 24.0027 19.467 24.004H20.515C20.578 24.0041 20.6405 23.9918 20.6987 23.9677C20.7569 23.9436 20.8098 23.9083 20.8544 23.8636C20.8989 23.819 20.9341 23.7661 20.9581 23.7078C20.9821 23.6495 20.9943 23.587 20.994 23.524V22.483C20.9943 22.42 20.9821 22.3575 20.9581 22.2992C20.9341 22.2409 20.8989 22.188 20.8544 22.1434C20.8098 22.0987 20.7569 22.0634 20.6987 22.0393C20.6405 22.0152 20.578 22.0029 20.515 22.003H20.511ZM23.467 23.996H24.505C24.568 23.9961 24.6305 23.9838 24.6887 23.9597C24.7469 23.9356 24.7998 23.9003 24.8444 23.8556C24.8889 23.811 24.9241 23.7581 24.9481 23.6998C24.9721 23.6415 24.9843 23.579 24.984 23.516V22.476C24.9843 22.413 24.9721 22.3505 24.9481 22.2922C24.9241 22.2339 24.8889 22.181 24.8444 22.1364C24.7998 22.0917 24.7469 22.0564 24.6887 22.0323C24.6305 22.0082 24.568 21.9959 24.505 21.996H23.47C23.407 21.9959 23.3445 22.0082 23.2863 22.0323C23.2281 22.0564 23.1752 22.0917 23.1306 22.1364C23.0861 22.181 23.0509 22.2339 23.0269 22.2922C23.0029 22.3505 22.9907 22.413 22.991 22.476V23.517C22.9907 23.58 23.0029 23.6425 23.0269 23.7008C23.0509 23.7591 23.0861 23.812 23.1306 23.8566C23.1752 23.9013 23.2281 23.9366 23.2863 23.9607C23.3445 23.9848 23.407 23.9971 23.47 23.997L23.467 23.996Z" fill="#6B6B6B"/>
</g>
<defs>
<clipPath id="clip0">
<rect width="18" height="16" fill="white" transform="translate(11 12)"/>
</clipPath>
</defs>
</svg>
