<svg width="40" height="40" viewBox="0 0 40 40" fill="none" xmlns="http://www.w3.org/2000/svg">
<circle cx="20" cy="20" r="19.5" fill="white" stroke="#DBDBDB"/>
<path d="M23.8194 22.9091H16.1269C14.6074 22.9091 13.255 21.7964 13.1096 20.2836C13.0698 19.8796 13.115 19.4718 13.2423 19.0863C13.3697 18.7009 13.5763 18.3463 13.8489 18.0456C14.1214 17.7448 14.454 17.5045 14.8251 17.3401C15.1961 17.1757 15.5975 17.0908 16.0033 17.0909H24.99C25.9425 17.0909 26.8077 17.7745 26.9023 18.72C26.9288 18.9736 26.9017 19.2298 26.8227 19.4722C26.7438 19.7146 26.6148 19.9377 26.444 20.127C26.2733 20.3163 26.0647 20.4676 25.8318 20.571C25.5988 20.6744 25.3467 20.7276 25.0918 20.7273H17.4575C17.0576 20.7273 16.7304 20.4 16.7304 20C16.7304 19.6 17.0576 19.2727 17.4575 19.2727H23.8194C24.1176 19.2727 24.3648 19.0255 24.3648 18.7273C24.3648 18.4291 24.1176 18.1818 23.8194 18.1818H17.5593C16.6068 18.1818 15.7416 18.8655 15.6471 19.8109C15.6206 20.0645 15.6477 20.3208 15.7266 20.5632C15.8055 20.8056 15.9346 21.0286 16.1053 21.2179C16.276 21.4072 16.4846 21.5585 16.7176 21.6619C16.9505 21.7653 17.2026 21.8185 17.4575 21.8182H24.9682C26.4878 21.8182 27.8402 20.7055 27.9856 19.1927C28.026 18.7886 27.9812 18.3805 27.854 17.9948C27.7269 17.6091 27.5204 17.2544 27.2476 16.9535C26.9749 16.6526 26.6422 16.4123 26.2708 16.2481C25.8995 16.0838 25.4979 15.9993 25.0918 16H16.1706C14.0839 16 12.2153 17.5273 12.0189 19.6073C11.9647 20.1633 12.0273 20.7245 12.2029 21.2548C12.3784 21.7851 12.663 22.2728 13.0382 22.6866C13.4135 23.1003 13.8712 23.4309 14.3819 23.6571C14.8925 23.8833 15.4449 24.0001 16.0033 24H23.8194C24.1176 24 24.3648 23.7527 24.3648 23.4545C24.3648 23.1564 24.1176 22.9091 23.8194 22.9091Z" fill="#6B6B6B"/>
</svg>
