<svg width="40" height="40" viewBox="0 0 40 40" fill="none" xmlns="http://www.w3.org/2000/svg">
<rect width="40" height="40" rx="4" fill="url(#paint0_linear)"/>
<path d="M15.04 18.9854V20.7805H24.88V18.9854H15.04ZM15.04 24.1366V25.9317H24.88V24.1366H15.04ZM15.04 18.9854V20.7805H24.88V18.9854H15.04ZM15.04 24.1366V25.9317H24.88V24.1366H15.04ZM15.04 24.1366V25.9317H24.88V24.1366H15.04ZM15.04 18.9854V20.7805H24.88V18.9854H15.04ZM15.04 18.9854V20.7805H24.88V18.9854H15.04ZM15.04 18.9854V20.7805H24.88V18.9854H15.04ZM15.04 24.1366V25.9317H24.88V24.1366H15.04ZM15.04 18.9854V20.7805H24.88V18.9854H15.04ZM15.04 18.9854V20.7805H24.88V18.9854H15.04ZM15.04 18.9854V20.7805H24.88V18.9854H15.04ZM15.04 24.1366V25.9317H24.88V24.1366H15.04ZM15.04 18.9854V20.7805H24.88V18.9854H15.04ZM15.04 18.9854V20.7805H24.88V18.9854H15.04ZM15.04 18.9854V20.7805H24.88V18.9854H15.04ZM15.04 18.9854V20.7805H24.88V18.9854H15.04ZM15.04 18.9854V20.7805H24.88V18.9854H15.04ZM15.04 18.9854V20.7805H24.88V18.9854H15.04ZM15.04 24.1366V25.9317H24.88V24.1366H15.04ZM15.04 26.0098H24.88V24.2146H15.04V26.0098ZM15.04 18.9854V20.7805H24.88V18.9854H15.04ZM25.2 7.27805H12C11.36 7.27805 10.8 7.51219 10.4 7.90244C10 8.29268 9.76001 8.83902 9.76001 9.46341V30.3024C9.76001 30.9268 10 31.4732 10.4 31.8634C10.8 32.2537 11.44 32.4878 12 32.4878H28C28.64 32.4878 29.2 32.2537 29.6 31.8634C30 31.4732 30.24 30.9268 30.24 30.3024V12.1951L25.2 7.27805ZM28.4 30.6927H11.6V9.07317H24.4V12.9756H28.4V30.6927ZM15.04 26.0098H24.88V24.2146H15.04V26.0098ZM15.04 20.7805H24.88V18.9854H15.04V20.7805ZM15.04 18.9854V20.7805H24.88V18.9854H15.04ZM15.04 24.1366V25.9317H24.88V24.1366H15.04ZM15.04 18.9854V20.7805H24.88V18.9854H15.04ZM15.04 18.9854V20.7805H24.88V18.9854H15.04ZM15.04 18.9854V20.7805H24.88V18.9854H15.04ZM15.04 18.9854V20.7805H24.88V18.9854H15.04ZM15.04 18.9854V20.7805H24.88V18.9854H15.04ZM15.04 24.1366V25.9317H24.88V24.1366H15.04ZM15.04 18.9854V20.7805H24.88V18.9854H15.04ZM15.04 18.9854V20.7805H24.88V18.9854H15.04ZM15.04 24.1366V25.9317H24.88V24.1366H15.04Z" fill="white"/>
<path d="M15.04 18.9854V20.7805H24.88V18.9854H15.04ZM15.04 24.1366V25.9317H24.88V24.1366H15.04ZM15.04 24.1366V25.9317H24.88V24.1366H15.04ZM15.04 18.9854V20.7805H24.88V18.9854H15.04ZM15.04 18.9854V20.7805H24.88V18.9854H15.04ZM15.04 18.9854V20.7805H24.88V18.9854H15.04ZM15.04 24.1366V25.9317H24.88V24.1366H15.04ZM15.04 18.9854V20.7805H24.88V18.9854H15.04ZM15.04 18.9854V20.7805H24.88V18.9854H15.04ZM15.04 18.9854V20.7805H24.88V18.9854H15.04ZM15.04 24.1366V25.9317H24.88V24.1366H15.04ZM15.04 18.9854V20.7805H24.88V18.9854H15.04ZM15.04 18.9854V20.7805H24.88V18.9854H15.04ZM15.04 18.9854V20.7805H24.88V18.9854H15.04ZM15.04 18.9854V20.7805H24.88V18.9854H15.04ZM15.04 18.9854V20.7805H24.88V18.9854H15.04ZM15.04 18.9854V20.7805H24.88V18.9854H15.04ZM15.04 24.1366V25.9317H24.88V24.1366H15.04ZM15.04 26.0098H24.88V24.2146H15.04V26.0098ZM15.04 18.9854V20.7805H24.88V18.9854H15.04ZM25.2 7.27805H12C11.36 7.27805 10.8 7.51219 10.4 7.90244C10 8.29268 9.76001 8.83902 9.76001 9.46341V30.3024C9.76001 30.9268 10 31.4732 10.4 31.8634C10.8 32.2537 11.44 32.4878 12 32.4878H28C28.64 32.4878 29.2 32.2537 29.6 31.8634C30 31.4732 30.24 30.9268 30.24 30.3024V12.1951L25.2 7.27805ZM28.4 30.6927H11.6V9.07317H24.4V12.9756H28.4V30.6927ZM15.04 26.0098H24.88V24.2146H15.04V26.0098ZM15.04 20.7805H24.88V18.9854H15.04V20.7805ZM15.04 18.9854V20.7805H24.88V18.9854H15.04ZM15.04 24.1366V25.9317H24.88V24.1366H15.04ZM15.04 18.9854V20.7805H24.88V18.9854H15.04ZM15.04 18.9854V20.7805H24.88V18.9854H15.04ZM15.04 18.9854V20.7805H24.88V18.9854H15.04ZM15.04 18.9854V20.7805H24.88V18.9854H15.04ZM15.04 18.9854V20.7805H24.88V18.9854H15.04ZM15.04 24.1366V25.9317H24.88V24.1366H15.04ZM15.04 18.9854V20.7805H24.88V18.9854H15.04ZM15.04 18.9854V20.7805H24.88V18.9854H15.04ZM15.04 24.1366V25.9317H24.88V24.1366H15.04ZM15.04 24.1366V25.9317H24.88V24.1366H15.04ZM15.04 18.9854V20.7805H24.88V18.9854H15.04ZM15.04 18.9854V20.7805H24.88V18.9854H15.04ZM15.04 18.9854V20.7805H24.88V18.9854H15.04ZM15.04 24.1366V25.9317H24.88V24.1366H15.04ZM15.04 18.9854V20.7805H24.88V18.9854H15.04ZM15.04 18.9854V20.7805H24.88V18.9854H15.04ZM15.04 24.1366V25.9317H24.88V24.1366H15.04ZM15.04 24.1366V25.9317H24.88V24.1366H15.04ZM15.04 18.9854V20.7805H24.88V18.9854H15.04ZM15.04 18.9854V20.7805H24.88V18.9854H15.04ZM15.04 18.9854V20.7805H24.88V18.9854H15.04ZM15.04 24.1366V25.9317H24.88V24.1366H15.04ZM15.04 18.9854V20.7805H24.88V18.9854H15.04ZM15.04 18.9854V20.7805H24.88V18.9854H15.04ZM15.04 24.1366V25.9317H24.88V24.1366H15.04ZM15.04 24.1366V25.9317H24.88V24.1366H15.04ZM15.04 18.9854V20.7805H24.88V18.9854H15.04Z" fill="white"/>
<path d="M25.2 7.27805H12C11.36 7.27805 10.8 7.51219 10.4 7.90244C10 8.29268 9.76001 8.83902 9.76001 9.46341V30.3024C9.76001 30.9268 10 31.4732 10.4 31.8634C10.8 32.2537 11.44 32.4878 12 32.4878H28C28.64 32.4878 29.2 32.2537 29.6 31.8634C30 31.4732 30.24 30.9268 30.24 30.3024V12.1951L25.2 7.27805ZM28.4 30.6927H11.6V9.07317H24.4V12.9756H28.4V30.6927Z" fill="white"/>
<defs>
<linearGradient id="paint0_linear" x1="20" y1="0" x2="20" y2="40" gradientUnits="userSpaceOnUse">
<stop stop-color="#B07FCD"/>
<stop offset="1" stop-color="#5F4891"/>
</linearGradient>
</defs>
</svg>
