<svg width="16" height="16" viewBox="0 0 16 16" fill="none" xmlns="http://www.w3.org/2000/svg">
<path d="M7.99988 0.00109864C8.64882 0.00105615 9.27318 0.249339 9.74487 0.695014C10.2166 1.14069 10.4998 1.74997 10.5366 2.39787L10.5405 2.54171H14.6445C14.7931 2.54175 14.9361 2.59818 15.0446 2.69959C15.1532 2.801 15.2192 2.93984 15.2293 3.08804C15.2394 3.23624 15.1929 3.38276 15.0992 3.49799C15.0054 3.61322 14.8714 3.68857 14.7243 3.70882L14.6445 3.71429H14.0223L13.0217 13.8924C12.9716 14.3998 12.7427 14.8729 12.376 15.2271C12.0092 15.5814 11.5285 15.7938 11.0197 15.8263L10.8821 15.831H5.11766C4.60755 15.831 4.11407 15.6496 3.72541 15.3192C3.33675 14.9889 3.07823 14.531 2.99606 14.0276L2.97808 13.8916L1.97669 3.71429H1.35521C1.21354 3.71429 1.07665 3.66298 0.969879 3.56986C0.863104 3.47673 0.793661 3.3481 0.774393 3.20774L0.768921 3.128C0.768927 2.98632 0.820235 2.84944 0.913358 2.74266C1.00648 2.63589 1.13512 2.56645 1.27548 2.54718L1.35521 2.54171H5.45927C5.45927 1.86789 5.72694 1.22168 6.2034 0.745225C6.67986 0.268769 7.32607 0.00109864 7.99988 0.00109864ZM12.8442 3.71429H3.15475L4.14519 13.7767C4.16712 14.0012 4.26607 14.2112 4.42523 14.3711C4.58438 14.5309 4.79396 14.6308 5.01838 14.6538L5.11766 14.6584H10.8821C11.3511 14.6584 11.749 14.3262 11.8397 13.8752L11.8553 13.7767L12.8434 3.71429H12.8442ZM9.3679 5.86404C9.50958 5.86404 9.64646 5.91535 9.75324 6.00847C9.86001 6.1016 9.92945 6.23023 9.94872 6.3706L9.95419 6.45033V11.9224C9.95415 12.071 9.89772 12.2139 9.79631 12.3225C9.69489 12.431 9.55606 12.497 9.40786 12.5072C9.25966 12.5173 9.11314 12.4708 8.99791 12.377C8.88268 12.2833 8.80733 12.1493 8.78708 12.0021L8.78161 11.9224V6.45033C8.78161 6.29484 8.84338 6.14571 8.95333 6.03576C9.06328 5.92581 9.21241 5.86404 9.3679 5.86404ZM6.63186 5.86404C6.77354 5.86404 6.91042 5.91535 7.0172 6.00847C7.12397 6.1016 7.19341 6.23023 7.21268 6.3706L7.21815 6.45033V11.9224C7.21811 12.071 7.16168 12.2139 7.06027 12.3225C6.95886 12.431 6.82002 12.497 6.67182 12.5072C6.52362 12.5173 6.3771 12.4708 6.26187 12.377C6.14664 12.2833 6.07129 12.1493 6.05104 12.0021L6.04557 11.9224V6.45033C6.04557 6.29484 6.10734 6.14571 6.21729 6.03576C6.32724 5.92581 6.47637 5.86404 6.63186 5.86404ZM7.99988 1.17369C7.65655 1.1737 7.32578 1.3028 7.07323 1.53537C6.82068 1.76795 6.6648 2.08698 6.63655 2.42914L6.63186 2.54171H9.3679C9.3679 2.17888 9.22377 1.83092 8.96722 1.57437C8.71066 1.31782 8.3627 1.17369 7.99988 1.17369Z" fill="#6B6B6B"/>
</svg>
