
<svg id="Layer_1" data-name="Layer 1" xmlns="http://www.w3.org/2000/svg" viewBox="0 0 32 32"><defs></defs><path class="cls-1" d="M27,8.36l-.06-.09V8.2l-5.27-6a.8.8,0,0,0-.19-.13h-.07a.76.76,0,0,0-.3-.1H8.53A3.41,3.41,0,0,0,6.06,3,3.73,3.73,0,0,0,5,5.56V26.44A3.73,3.73,0,0,0,6.06,29a3.41,3.41,0,0,0,2.47,1H23.47a3.41,3.41,0,0,0,2.47-1A3.73,3.73,0,0,0,27,26.44V8.36Zm-5.13-.54V4.62l2.81,3.2Zm-.74,1.42h4.43V26.41a2.4,2.4,0,0,1-.16.83,2.14,2.14,0,0,1-.46.69,1.86,1.86,0,0,1-.68.46,2.13,2.13,0,0,1-.79.15H8.53a2.13,2.13,0,0,1-.79-.15,2,2,0,0,1-.67-.45,2.31,2.31,0,0,1-.46-.69,2.26,2.26,0,0,1-.17-.81V5.53a2.27,2.27,0,0,1,.17-.82A2.31,2.31,0,0,1,7.07,4a2.19,2.19,0,0,1,.67-.45,1.94,1.94,0,0,1,.79-.14H20.41V8.52a.79.79,0,0,0,.22.51.7.7,0,0,0,.5.21Z"/><path class="cls-1" d="M21.87,16.11H10.13a.6.6,0,1,1,0-1.2H21.87a.6.6,0,0,1,0,1.2Z"/><path class="cls-1" d="M21.87,20.32H10.13a.6.6,0,0,1,0-1.2H21.87a.6.6,0,0,1,0,1.2Z"/><path class="cls-1" d="M21.87,24.54H10.13a.6.6,0,1,1,0-1.2H21.87a.6.6,0,1,1,0,1.2Z"/></svg>