<svg width="32" height="32" viewBox="0 0 32 32" fill="none" xmlns="http://www.w3.org/2000/svg">
<path d="M27 8.36384L26.9389 8.27475V8.19839L21.6711 2.22945C21.6125 2.17689 21.5466 2.13397 21.4756 2.10218H21.4144C21.3211 2.04518 21.2167 2.0104 21.1089 2.00037H8.53222C7.61044 1.98675 6.72107 2.35417 6.05898 3.02213C5.39689 3.6901 5.01608 4.60411 5 5.56391V26.4361C5.01608 27.3959 5.39689 28.3099 6.05898 28.9779C6.72107 29.6458 7.61044 30.0133 8.53222 29.9996H23.4678C24.3896 30.0133 25.2789 29.6458 25.941 28.9779C26.6031 28.3099 26.9839 27.3959 27 26.4361V8.51656C27 8.51656 27 8.42747 27 8.36384ZM21.8667 7.81658V4.62212L24.6778 7.81658H21.8667ZM21.1333 9.24199H25.5578V26.4106C25.5579 26.6941 25.5035 26.9747 25.3979 27.2359C25.2922 27.4972 25.1375 27.7338 24.9428 27.9318C24.748 28.1299 24.5172 28.2853 24.2639 28.3891C24.0106 28.4929 23.7399 28.5428 23.4678 28.536H8.53222C8.26256 28.5411 7.99459 28.4908 7.7436 28.388C7.49262 28.2852 7.26355 28.1319 7.06946 27.9369C6.87538 27.7419 6.72009 27.509 6.61247 27.2515C6.50484 26.994 6.44699 26.7169 6.44222 26.4361V5.52573C6.44699 5.24493 6.50484 4.96787 6.61247 4.71035C6.72009 4.45284 6.87538 4.21993 7.06946 4.02493C7.26355 3.82992 7.49262 3.67664 7.7436 3.57383C7.99459 3.47103 8.26256 3.42072 8.53222 3.42578H20.4122V8.51656C20.4186 8.71126 20.4973 8.89578 20.6319 9.03114C20.7664 9.1665 20.9462 9.24211 21.1333 9.24199V9.24199Z" fill="currentColor"/>
<path d="M11.3333 17.186L10 18.4127L14.6267 22.666L22 15.8927L20.6667 14.666L14.6267 20.2127L11.3333 17.186Z" fill="currentColor"/>
</svg>
