<svg width="32" height="32" viewBox="0 0 32 32" fill="none" xmlns="http://www.w3.org/2000/svg">
<path d="M27.1734 27.9993H5.1867C5.03067 28.0002 4.87601 27.9701 4.73178 27.9105C4.58754 27.851 4.45663 27.7633 4.3467 27.6526C4.23574 27.5456 4.14777 27.4171 4.08816 27.275C4.02855 27.1328 3.99857 26.98 4.00003 26.8259V4.87925C3.98086 4.76897 3.98086 4.6562 4.00003 4.54592C4.0417 4.44041 4.10533 4.34496 4.1867 4.26592C4.26134 4.17635 4.35776 4.10748 4.4667 4.06592C4.57701 4.04701 4.68973 4.04701 4.80003 4.06592C4.91471 4.04574 5.03202 4.04574 5.1467 4.06592C5.25387 4.11071 5.34957 4.17907 5.4267 4.26592C5.50425 4.34546 5.56341 4.44104 5.60003 4.54592C5.62515 4.65561 5.62515 4.76956 5.60003 4.87925V26.2926H27.1734C27.2837 26.2943 27.3926 26.3178 27.4938 26.3616C27.5951 26.4054 27.6867 26.4688 27.7635 26.548C27.8402 26.6273 27.9006 26.7208 27.9412 26.8234C27.9818 26.926 28.0018 27.0356 28 27.1459C28.0006 27.2547 27.9797 27.3625 27.9385 27.4632C27.8973 27.5638 27.8367 27.6554 27.76 27.7326C27.603 27.8893 27.3947 27.984 27.1734 27.9993V27.9993Z" fill="currentColor"/>
<path d="M9.25329 24.3326C9.13903 24.331 9.02605 24.3084 8.91995 24.2659C8.81508 24.223 8.7198 24.1597 8.63968 24.0796C8.55956 23.9994 8.49619 23.9042 8.45329 23.7993C8.43329 23.6891 8.43329 23.5762 8.45329 23.4659V15.5993C8.42817 15.4896 8.42817 15.3756 8.45329 15.2659C8.48991 15.1611 8.54907 15.0655 8.62662 14.9859C8.71342 14.9045 8.81239 14.837 8.91995 14.7859C9.02178 14.7238 9.13519 14.6829 9.25329 14.6659C9.36742 14.6687 9.4802 14.6913 9.58662 14.7326C9.69016 14.7837 9.78473 14.8512 9.86662 14.9326C9.94799 15.0117 10.0116 15.1071 10.0533 15.2126C10.0725 15.3229 10.0725 15.4357 10.0533 15.5459V23.4126C10.0733 23.5228 10.0733 23.6357 10.0533 23.7459C10.0104 23.8508 9.94702 23.9461 9.86689 24.0262C9.78677 24.1063 9.69149 24.1697 9.58662 24.2126C9.48479 24.2538 9.37641 24.2763 9.26662 24.2793L9.25329 24.3326ZM20 24.3326C19.8857 24.331 19.7727 24.3084 19.6666 24.2659C19.5617 24.223 19.4665 24.1597 19.3863 24.0796C19.3062 23.9994 19.2429 23.9042 19.2 23.7993C19.1575 23.6932 19.1349 23.5802 19.1333 23.4659V18.3993C19.113 18.2891 19.113 18.1761 19.1333 18.0659C19.1797 17.9589 19.2427 17.8599 19.32 17.7726C19.399 17.6912 19.4944 17.6276 19.6 17.5859C19.714 17.5597 19.8326 17.5597 19.9466 17.5859C20.0563 17.5608 20.1703 17.5608 20.28 17.5859C20.3855 17.6276 20.4809 17.6912 20.56 17.7726C20.6372 17.8599 20.7002 17.9589 20.7466 18.0659C20.7669 18.1761 20.7669 18.2891 20.7466 18.3993V23.4659C20.7454 23.6956 20.6545 23.9157 20.4933 24.0793C20.3346 24.2397 20.1189 24.3308 19.8933 24.3326H20ZM14.6666 24.3326C14.5524 24.331 14.4394 24.3084 14.3333 24.2659C14.2284 24.223 14.1331 24.1597 14.053 24.0796C13.9729 23.9994 13.9095 23.9042 13.8666 23.7993C13.8466 23.6891 13.8466 23.5762 13.8666 23.4659V13.3326C13.8768 13.11 13.9723 12.9 14.1333 12.7459C14.2759 12.6036 14.4655 12.5183 14.6666 12.5059C14.7775 12.5044 14.8876 12.5247 14.9906 12.5659C15.0936 12.6071 15.1874 12.6683 15.2666 12.7459C15.4276 12.9 15.5231 13.11 15.5333 13.3326V23.4659C15.5533 23.5762 15.5533 23.6891 15.5333 23.7993C15.4904 23.9042 15.427 23.9994 15.3469 24.0796C15.2668 24.1597 15.1715 24.223 15.0666 24.2659C14.9648 24.3071 14.8564 24.3297 14.7466 24.3326H14.6666ZM25.3333 24.3326C25.2235 24.3297 25.1151 24.3071 25.0133 24.2659C24.9084 24.223 24.8131 24.1597 24.733 24.0796C24.6529 23.9994 24.5895 23.9042 24.5466 23.7993C24.5042 23.6932 24.4816 23.5802 24.48 23.4659V15.5993C24.4952 15.378 24.5899 15.1696 24.7466 15.0126C24.9058 14.8586 25.1185 14.7726 25.34 14.7726C25.5614 14.7726 25.7741 14.8586 25.9333 15.0126C26.09 15.1696 26.1847 15.378 26.2 15.5993V23.4659C26.1983 23.5802 26.1757 23.6932 26.1333 23.7993C26.0904 23.9042 26.027 23.9994 25.9469 24.0796C25.8668 24.1597 25.7715 24.223 25.6666 24.2659C25.5605 24.3084 25.4475 24.331 25.3333 24.3326V24.3326Z" fill="currentColor"/>
</svg>
