<svg width="41" height="40" viewBox="0 0 40 38" fill="none" xmlns="http://www.w3.org/2000/svg">
<path d="M26.3444 10.6664C25.9714 10.6664 25.6138 10.5292 25.3501 10.2851C25.0864 10.0409 24.9382 9.70974 24.9382 9.36445C24.9382 9.01915 25.0864 8.68799 25.3501 8.44383C25.6138 8.19967 25.9714 8.0625 26.3444 8.0625H34.7813C35.1543 8.0625 35.5119 8.19967 35.7756 8.44383C36.0394 8.68799 36.1875 9.01915 36.1875 9.36445V17.3766C36.1875 17.7219 36.0394 18.0531 35.7756 18.2972C35.5119 18.5414 35.1543 18.6786 34.7813 18.6786C34.4084 18.6786 34.0507 18.5414 33.787 18.2972C33.5233 18.0531 33.3752 17.7219 33.3752 17.3766V12.5073L23.1214 22.0037C22.9908 22.125 22.8357 22.2212 22.6648 22.2868C22.494 22.3525 22.3108 22.3862 22.1259 22.3862C21.9409 22.3862 21.7578 22.3525 21.587 22.2868C21.4161 22.2212 21.2609 22.125 21.1303 22.0037L16.5012 17.7151L10.466 23.3057C10.202 23.5502 9.84385 23.6875 9.47044 23.6875C9.09703 23.6875 8.73891 23.5502 8.47488 23.3057C8.21084 23.0612 8.0625 22.7296 8.0625 22.3839C8.0625 22.0382 8.21084 21.7066 8.47488 21.4621L15.5057 14.9524C15.6363 14.8312 15.7915 14.735 15.9623 14.6693C16.1331 14.6037 16.3163 14.5699 16.5012 14.5699C16.6862 14.5699 16.8693 14.6037 17.0402 14.6693C17.211 14.735 17.3662 14.8312 17.4968 14.9524L22.1259 19.241L31.3869 10.6664H26.3444Z" fill="url(#paint0_linear)"/>
<path d="M36.4808 37.6695H2.12663C1.88283 37.671 1.64118 37.6239 1.41581 37.5309C1.19045 37.4379 0.985894 37.3008 0.814128 37.1278C0.640755 36.9607 0.503297 36.7599 0.410162 36.5378C0.317028 36.3157 0.270172 36.077 0.272462 35.8362V1.54448C0.242513 1.37217 0.242513 1.19597 0.272462 1.02365C0.337565 0.858788 0.436987 0.709656 0.564129 0.586151C0.680759 0.4462 0.831416 0.338588 1.00163 0.273651C1.17398 0.244113 1.35011 0.244113 1.52246 0.273651C1.70164 0.242116 1.88495 0.242116 2.06413 0.273651C2.23158 0.34364 2.38111 0.450451 2.50163 0.586151C2.6228 0.710438 2.71524 0.859777 2.77246 1.02365C2.81171 1.19504 2.81171 1.37309 2.77246 1.54448V35.0028H36.4808C36.6532 35.0055 36.8233 35.0422 36.9815 35.1107C37.1397 35.1791 37.2829 35.2781 37.4028 35.4019C37.5228 35.5257 37.6171 35.672 37.6806 35.8323C37.744 35.9926 37.7752 36.1638 37.7725 36.3362C37.7733 36.5061 37.7407 36.6746 37.6763 36.8319C37.612 36.9892 37.5172 37.1322 37.3975 37.2528C37.1521 37.4977 36.8266 37.6457 36.4808 37.6695Z" fill="url(#paint1_linear)"/>
<defs>
<linearGradient id="paint0_linear" x1="22.125" y1="8.0625" x2="22.125" y2="23.6875" gradientUnits="userSpaceOnUse">
<stop stop-color="#B07FCD"/>
<stop offset="1" stop-color="#5F4891"/>
</linearGradient>
<linearGradient id="paint1_linear" x1="19.0113" y1="0.25" x2="19.0113" y2="37.6695" gradientUnits="userSpaceOnUse">
<stop stop-color="#B07FCD"/>
<stop offset="1" stop-color="#5F4891"/>
</linearGradient>
</defs>
</svg>
