<svg width="40" height="40" viewBox="0 0 40 40" fill="none" xmlns="http://www.w3.org/2000/svg">
<rect width="40" height="40" rx="4" fill="url(#paint0_linear)"/>
<path d="M29.9416 12.5587C29.4784 10.7647 26.0308 9 20 9C13.9692 9 10.5212 10.7647 10.0584 12.5587C10.0248 12.6202 10 12.6875 10 12.7636V12.9727V17.7818V17.9909V18.2V22.8V23.0091V23.2182V28.2364C10 28.3041 10.0172 28.3681 10.0468 28.425C10.5192 30.472 14.7456 32 20 32C25.2424 32 29.462 30.4782 29.95 28.4388C29.982 28.379 30 28.31 30 28.2364V23.2182V23.0091V22.8V18.2V17.9909V17.7818V12.9727V12.7636C30 12.6875 29.9752 12.6202 29.9416 12.5587ZM29.1684 23.2119C29.1572 23.2625 29.1416 23.3127 29.122 23.3637C29.106 23.4051 29.0864 23.4465 29.0648 23.4879C29.038 23.5393 29.008 23.5908 28.9724 23.6422C28.946 23.6811 28.916 23.7196 28.8848 23.7581C28.8404 23.8128 28.7932 23.8676 28.7396 23.922C28.7072 23.955 28.6716 23.9876 28.6356 24.0207C28.57 24.0805 28.5016 24.1399 28.4252 24.1988C28.3924 24.2243 28.3572 24.249 28.3224 24.2741C28.232 24.3393 28.1376 24.4041 28.034 24.4677C28.0068 24.4849 27.9776 24.5012 27.9492 24.5179C27.83 24.5881 27.7056 24.658 27.5712 24.7257C27.554 24.7345 27.536 24.7429 27.5184 24.7512C27.3684 24.8253 27.2116 24.898 27.044 24.9683C27.0392 24.9704 27.0344 24.972 27.0296 24.9741C26.1212 25.3534 24.9592 25.6725 23.6052 25.8816C23.5984 25.8824 23.5916 25.8833 23.5848 25.8845C23.3216 25.9251 23.0516 25.961 22.7744 25.9928C22.7292 25.9978 22.6816 26.0012 22.636 26.0062C22.394 26.0325 22.1492 26.0568 21.8972 26.076C21.782 26.0848 21.6612 26.089 21.544 26.0965C21.3544 26.1082 21.1668 26.1212 20.9724 26.1283C20.6548 26.1388 20.3308 26.1455 20 26.1455C19.6692 26.1455 19.3452 26.1388 19.0272 26.1271C18.8328 26.1199 18.6452 26.1066 18.4556 26.0953C18.3384 26.0882 18.2176 26.0836 18.1024 26.0748C17.8504 26.0555 17.6056 26.0313 17.3636 26.0049C17.318 25.9999 17.2704 25.9966 17.2252 25.9916C16.948 25.9598 16.678 25.9234 16.4148 25.8833C16.408 25.8824 16.4012 25.8816 16.3944 25.8803C15.0404 25.6712 13.8784 25.3522 12.97 24.9729C12.9652 24.9712 12.9604 24.9691 12.9556 24.967C12.788 24.8968 12.6308 24.824 12.4812 24.75C12.464 24.7412 12.4456 24.7328 12.4284 24.7245C12.294 24.6567 12.1696 24.5873 12.0504 24.5166C12.0224 24.4999 11.9928 24.4836 11.9656 24.4665C11.862 24.4029 11.7676 24.3381 11.6772 24.2728C11.6428 24.2477 11.6072 24.2231 11.5744 24.1976C11.498 24.1386 11.4296 24.0792 11.364 24.0194C11.3284 23.9868 11.2924 23.9542 11.26 23.9207C11.2064 23.8664 11.1592 23.812 11.1148 23.7568C11.0836 23.7183 11.0536 23.6799 11.0272 23.641C10.992 23.5895 10.962 23.5381 10.9348 23.4867C10.9132 23.4453 10.894 23.4039 10.8776 23.3625C10.858 23.3119 10.8424 23.2613 10.8312 23.2107C10.8164 23.1442 10.8 23.0764 10.8 23.0091C10.8 22.9618 10.8052 22.9146 10.8124 22.8677C10.8224 22.8046 10.8168 22.7415 10.8 22.6817V19.5771C10.8112 19.5879 10.8252 19.5984 10.8368 19.6093C10.924 19.6896 11.0128 19.7694 11.1128 19.8464C12.6196 21.0378 15.6328 21.9636 20 21.9636C24.3488 21.9636 27.3544 21.0453 28.8676 19.861C28.9884 19.769 29.0972 19.6741 29.1996 19.5775L29.2 19.5771V22.6817C29.1832 22.7415 29.1776 22.8046 29.1876 22.8677C29.1952 22.9146 29.2 22.9618 29.2 23.0091C29.2 23.0764 29.1836 23.1442 29.1684 23.2119ZM29.2 14.5589V17.6635C29.1832 17.7233 29.1776 17.7864 29.1876 17.8496C29.1952 17.8964 29.2 17.9437 29.2 17.9909C29.2 18.0582 29.1836 18.126 29.1684 18.1937C29.1572 18.2443 29.1416 18.2945 29.122 18.3455C29.106 18.3869 29.0864 18.4283 29.0648 18.4697C29.038 18.5212 29.008 18.5726 28.9724 18.624C28.946 18.6629 28.916 18.7014 28.8848 18.7399C28.8404 18.7947 28.7932 18.8494 28.7396 18.9038C28.7072 18.9368 28.6716 18.9695 28.6356 19.0025C28.57 19.0623 28.5016 19.1217 28.4252 19.1806C28.3924 19.2061 28.3572 19.2308 28.3224 19.2559C28.232 19.3211 28.1376 19.386 28.034 19.4495C28.0068 19.4667 27.9776 19.483 27.9492 19.4997C27.83 19.57 27.7056 19.6398 27.5712 19.7075C27.554 19.7163 27.536 19.7247 27.5184 19.7331C27.3684 19.8071 27.2116 19.8798 27.044 19.9501C27.0392 19.9522 27.0344 19.9539 27.0296 19.9559C26.1212 20.3352 24.9592 20.6543 23.6052 20.8634C23.5984 20.8642 23.5916 20.8651 23.5848 20.8663C23.3216 20.9069 23.0516 20.9429 22.7744 20.9746C22.7292 20.9797 22.6816 20.983 22.636 20.988C22.394 21.0144 22.1492 21.0386 21.8972 21.0579C21.782 21.0666 21.6612 21.0708 21.544 21.0783C21.3544 21.0901 21.1668 21.103 20.9724 21.1101C20.6548 21.1206 20.3308 21.1273 20 21.1273C19.6692 21.1273 19.3452 21.1206 19.0272 21.1089C18.8328 21.1018 18.6452 21.0884 18.4556 21.0771C18.3384 21.07 18.2176 21.0654 18.1024 21.0566C17.8504 21.0374 17.6056 21.0131 17.3636 20.9868C17.318 20.9817 17.2704 20.9784 17.2252 20.9734C16.948 20.9416 16.678 20.9052 16.4148 20.8651C16.408 20.8642 16.4012 20.8634 16.3944 20.8621C15.0404 20.6531 13.8784 20.334 12.97 19.9547C12.9652 19.953 12.9604 19.9509 12.9556 19.9488C12.788 19.8786 12.6308 19.8058 12.4812 19.7318C12.464 19.723 12.4456 19.7147 12.4284 19.7063C12.294 19.6385 12.1696 19.5691 12.0504 19.4985C12.0224 19.4817 11.9928 19.4654 11.9656 19.4483C11.862 19.3847 11.7676 19.3199 11.6772 19.2547C11.6428 19.2296 11.6072 19.2049 11.5744 19.1794C11.498 19.1204 11.4296 19.061 11.364 19.0012C11.3284 18.9686 11.2924 18.936 11.26 18.9025C11.2064 18.8482 11.1592 18.7938 11.1148 18.7386C11.0836 18.7001 11.0536 18.6617 11.0272 18.6228C10.992 18.5713 10.962 18.5199 10.9348 18.4685C10.9132 18.4271 10.894 18.3857 10.8776 18.3443C10.858 18.2937 10.8424 18.2431 10.8312 18.1925C10.8164 18.126 10.8 18.0582 10.8 17.9909C10.8 17.9437 10.8052 17.8964 10.8124 17.8496C10.8224 17.7864 10.8168 17.7233 10.8 17.6635V14.5589C10.848 14.6045 10.9028 14.6492 10.9548 14.6944C10.9836 14.7195 11.0104 14.7446 11.0408 14.7697C11.1608 14.8683 11.2904 14.9658 11.4308 15.0607C11.46 15.0804 11.4928 15.0996 11.5232 15.1193C11.6408 15.1958 11.7652 15.2706 11.896 15.3442C11.9444 15.3714 11.9928 15.3982 12.0428 15.4249C12.1888 15.5027 12.342 15.5784 12.5032 15.6516C12.5296 15.6637 12.5536 15.6763 12.5804 15.688C12.768 15.7712 12.9672 15.8507 13.1744 15.9276C13.2316 15.9489 13.2916 15.969 13.3504 15.9899C13.5152 16.048 13.6856 16.1037 13.862 16.1576C13.9256 16.1768 13.988 16.1969 14.0532 16.2153C14.2872 16.2831 14.5288 16.3475 14.7824 16.4068C14.8172 16.4152 14.8548 16.4219 14.89 16.4298C15.1136 16.4809 15.3456 16.5281 15.584 16.5724C15.6648 16.5875 15.7468 16.6017 15.8292 16.6159C16.056 16.6548 16.2896 16.6904 16.5292 16.723C16.5908 16.7313 16.6496 16.741 16.712 16.7489C17.0096 16.7865 17.3176 16.8187 17.634 16.8463C17.712 16.853 17.7932 16.8581 17.8724 16.8639C18.1256 16.8831 18.3844 16.899 18.6492 16.9116C18.7456 16.9162 18.8416 16.9208 18.94 16.9245C19.2848 16.9367 19.636 16.9455 20 16.9455C20.364 16.9455 20.7152 16.9367 21.06 16.9245C21.158 16.9208 21.254 16.9162 21.3508 16.9116C21.6156 16.899 21.8744 16.8831 22.1276 16.8639C22.2068 16.8576 22.2876 16.853 22.366 16.8463C22.6824 16.8192 22.9904 16.7865 23.288 16.7489C23.3504 16.741 23.4092 16.7313 23.4708 16.723C23.7104 16.6904 23.9436 16.6548 24.1708 16.6159C24.2532 16.6017 24.3352 16.5875 24.416 16.5724C24.6544 16.5281 24.8864 16.4809 25.11 16.4298C25.1452 16.4219 25.1828 16.4148 25.2176 16.4068C25.4712 16.3475 25.7128 16.2826 25.9468 16.2153C26.012 16.1965 26.0744 16.1768 26.138 16.1576C26.3144 16.1037 26.4848 16.048 26.6496 15.9899C26.7084 15.969 26.7684 15.9489 26.8256 15.9276C27.0328 15.8507 27.2324 15.7712 27.4196 15.688C27.4464 15.6763 27.4704 15.6637 27.4968 15.6516C27.658 15.578 27.8112 15.5027 27.9572 15.4249C28.0072 15.3982 28.056 15.3714 28.104 15.3442C28.2348 15.2711 28.3592 15.1962 28.4768 15.1193C28.5072 15.0996 28.54 15.0804 28.5692 15.0607C28.7096 14.9658 28.8392 14.8688 28.9592 14.7697C28.9892 14.7446 29.016 14.7195 29.0452 14.6944C29.0972 14.6492 29.152 14.6045 29.2 14.5589ZM20 9.83636C25.422 9.83636 29.2 11.489 29.2 12.9727C29.2 14.4564 25.422 16.1091 20 16.1091C14.578 16.1091 10.8 14.4564 10.8 12.9727C10.8 11.489 14.578 9.83636 20 9.83636ZM29.2 28.1122C29.1944 28.1306 29.1904 28.1494 29.1872 28.1686C28.9604 29.6151 25.2144 31.1636 20 31.1636C14.7856 31.1636 11.0396 29.6151 10.8128 28.1686C10.8096 28.1498 10.8052 28.1314 10.8 28.1138V24.5953C10.8112 24.6061 10.8252 24.6166 10.8368 24.6275C10.924 24.7077 11.0128 24.7876 11.1128 24.8646C12.6196 26.056 15.6328 26.9818 20 26.9818C24.3488 26.9818 27.3544 26.0635 28.8676 24.8792C28.9884 24.7872 29.0972 24.6923 29.1996 24.5957L29.2 24.5953V28.1122Z" fill="white" stroke="white" stroke-width="0.5"/>
<defs>
<linearGradient id="paint0_linear" x1="20" y1="0" x2="20" y2="40" gradientUnits="userSpaceOnUse">
<stop stop-color="#FFB31F"/>
<stop offset="1" stop-color="#EC7121"/>
</linearGradient>
</defs>
</svg>
