<svg width="24" height="24" viewBox="0 0 24 24" fill="none" xmlns="http://www.w3.org/2000/svg">
<path d="M12 23.5C18.3513 23.5 23.5 18.3513 23.5 12C23.5 5.64873 18.3513 0.5 12 0.5C5.64873 0.5 0.5 5.64873 0.5 12C0.5 18.3513 5.64873 23.5 12 23.5Z" stroke="#DBDBDB"/>
<path d="M13.191 12.0248C13.7822 11.8146 14.296 11.4303 14.6646 10.9225C15.0332 10.4147 15.2393 9.80712 15.256 9.17985C15.2423 8.74795 15.1436 8.32298 14.9656 7.92923C14.7876 7.53548 14.5338 7.18066 14.2186 6.88507C13.9034 6.58947 13.533 6.35888 13.1287 6.20647C12.7243 6.05407 12.2939 5.98283 11.862 5.99685C11.4301 5.98297 10.9998 6.05429 10.5955 6.20674C10.1912 6.3592 9.82089 6.58979 9.50572 6.88537C9.19056 7.18094 8.9367 7.5357 8.75865 7.92939C8.58059 8.32308 8.48183 8.74799 8.468 9.17985C8.48508 9.80609 8.69102 10.4126 9.05881 10.9197C9.42659 11.4269 9.93906 11.811 10.529 12.0218C7.862 12.5898 6 14.2448 6 16.8598V17.7688C6.00622 17.8295 6.03413 17.8859 6.07859 17.9276C6.12306 17.9693 6.18108 17.9935 6.242 17.9958H17.758C17.8189 17.9935 17.8769 17.9693 17.9214 17.9276C17.9659 17.8859 17.9938 17.8295 18 17.7688V16.8598C17.879 14.2448 15.862 12.5898 13.2 12.0218L13.191 12.0248ZM9.282 9.17985C9.31296 8.51761 9.59873 7.89298 10.0796 7.43657C10.5604 6.98015 11.1991 6.72729 11.862 6.73085C12.5326 6.72464 13.1802 6.97463 13.6727 7.42977C14.1652 7.88491 14.4654 8.51087 14.512 9.17985C14.4974 9.51196 14.4171 9.83788 14.2757 10.1388C14.1344 10.4396 13.9347 10.7095 13.6884 10.9327C13.442 11.1559 13.1538 11.328 12.8405 11.4391C12.5272 11.5502 12.1949 11.598 11.863 11.5798C11.2049 11.595 10.5669 11.3526 10.0848 10.9044C9.6027 10.4561 9.31466 9.83733 9.282 9.17985ZM17.201 17.3958H6.758V16.8598C6.758 14.2448 9.074 12.5258 11.858 12.5258C14.642 12.5258 17.197 14.2448 17.197 16.8598L17.201 17.3958Z" fill="#363636"/>
</svg>