<svg width="40" height="40" viewBox="0 0 40 40" fill="none" xmlns="http://www.w3.org/2000/svg">
<rect width="40" height="40" rx="4" fill="url(#paint0_linear)"/>
<path d="M24.7004 14.6665C24.4617 14.6665 24.2328 14.5787 24.064 14.4224C23.8953 14.2662 23.8005 14.0542 23.8005 13.8332C23.8005 13.6123 23.8953 13.4003 24.064 13.2441C24.2328 13.0878 24.4617 13 24.7004 13H30.1001C30.3387 13 30.5676 13.0878 30.7364 13.2441C30.9052 13.4003 31 13.6123 31 13.8332V18.961C31 19.182 30.9052 19.394 30.7364 19.5502C30.5676 19.7065 30.3387 19.7943 30.1001 19.7943C29.8614 19.7943 29.6325 19.7065 29.4637 19.5502C29.2949 19.394 29.2001 19.182 29.2001 18.961V15.8447L22.6377 21.9224C22.5541 22 22.4548 22.0616 22.3455 22.1036C22.2362 22.1456 22.1189 22.1672 22.0006 22.1672C21.8822 22.1672 21.765 22.1456 21.6557 22.1036C21.5463 22.0616 21.447 22 21.3634 21.9224L18.4008 19.1777L14.5382 22.7556C14.3693 22.9121 14.1401 23 13.9011 23C13.6621 23 13.4329 22.9121 13.2639 22.7556C13.0949 22.5992 13 22.387 13 22.1657C13 21.9444 13.0949 21.7322 13.2639 21.5758L17.7636 17.4095C17.8472 17.3319 17.9465 17.2704 18.0559 17.2284C18.1652 17.1864 18.2824 17.1647 18.4008 17.1647C18.5192 17.1647 18.6364 17.1864 18.7457 17.2284C18.855 17.2704 18.9544 17.3319 19.038 17.4095L22.0006 20.1542L27.9276 14.6665H24.7004Z" fill="white"/>
<path d="M31.1877 31.9485H9.20104C9.04501 31.9494 8.89035 31.9193 8.74612 31.8598C8.60189 31.8002 8.47097 31.7125 8.36104 31.6018C8.25008 31.4948 8.16211 31.3663 8.1025 31.2242C8.0429 31.0821 8.01291 30.9293 8.01438 30.7751V8.82847C7.99521 8.71819 7.99521 8.60542 8.01438 8.49514C8.05604 8.38962 8.11967 8.29418 8.20104 8.21514C8.27569 8.12557 8.37211 8.0567 8.48104 8.01514C8.59135 7.99623 8.70407 7.99623 8.81438 8.01514C8.92905 7.99495 9.04637 7.99495 9.16104 8.01514C9.26821 8.05993 9.36391 8.12829 9.44104 8.21514C9.51859 8.29468 9.57776 8.39026 9.61438 8.49514C9.63949 8.60483 9.63949 8.71878 9.61438 8.82847V30.2418H31.1877C31.298 30.2435 31.4069 30.267 31.5082 30.3108C31.6094 30.3546 31.701 30.418 31.7778 30.4972C31.8546 30.5765 31.915 30.6701 31.9556 30.7727C31.9962 30.8752 32.0161 30.9848 32.0144 31.0951C32.0149 31.2039 31.994 31.3117 31.9528 31.4124C31.9117 31.5131 31.851 31.6046 31.7744 31.6818C31.6174 31.8385 31.409 31.9332 31.1877 31.9485Z" fill="white"/>
<defs>
<linearGradient id="paint0_linear" x1="20" y1="0" x2="20" y2="40" gradientUnits="userSpaceOnUse">
<stop stop-color="#B07FCD"/>
<stop offset="1" stop-color="#5F4891"/>
</linearGradient>
</defs>
</svg>
