<?xml version="1.0" encoding="utf-8"?>
<!-- Generator: Adobe Illustrator 22.0.1, SVG Export Plug-In . SVG Version: 6.00 Build 0)  -->
<svg version="1.1" id="Layer_1" xmlns="http://www.w3.org/2000/svg" xmlns:xlink="http://www.w3.org/1999/xlink" x="0px" y="0px"
	 viewBox="0 0 100 100" style="enable-background:new 0 0 100 100;" xml:space="preserve">
<style type="text/css">
	.st0{fill:url(#SVGID_1_);}
	.st1{fill:url(#SVGID_2_);}
</style>
<g>
	<linearGradient id="SVGID_1_" gradientUnits="userSpaceOnUse" x1="128.04" y1="73.65" x2="-58.8035" y2="73.65">
		<stop  offset="0" style="stop-color:#32A2FB"/>
		<stop  offset="1" style="stop-color:#175BEE"/>
	</linearGradient>
	<path class="st0" d="M23.2,48.5H10.9c-4.7,0-8.5,3.8-8.5,8.5v33.3c0,4.7,3.8,8.5,8.5,8.5h12.3V48.5z"/>
	<linearGradient id="SVGID_2_" gradientUnits="userSpaceOnUse" x1="128.04" y1="50.6" x2="-58.8035" y2="50.6">
		<stop  offset="0" style="stop-color:#32A2FB"/>
		<stop  offset="1" style="stop-color:#175BEE"/>
	</linearGradient>
	<path class="st1" d="M94.8,68.1c2-2.6,3-5.3,2.8-8.1c-0.1-3.1-1.5-5.6-2.7-7c1.3-3.3,1.8-8.5-2.6-12.6c-3.3-3-8.8-4.3-16.5-3.9
		c-5.4,0.2-9.9,1.3-10.1,1.3c-1,0.2-2.1,0.4-3.2,0.7c-0.1-1.3,0.1-4.6,2.6-11.9c2.9-8.7,2.7-15.4-0.5-19.9C61.2,2,55.8,1.6,54.2,1.6
		c-1.5,0-3,0.6-4,1.8c-2.3,2.6-2,7.5-1.7,9.8c-2.7,7.3-10.3,25-16.7,30c-0.1,0.1-0.2,0.2-0.3,0.3c-0.4,0.5-0.8,0.9-1.2,1.4v52.5
		l2.8,0.4c0.7,0.1,13.9,1.8,27.3,1.5c2.4,0.2,4.7,0.3,6.9,0.3c3.7,0,6.9-0.3,9.5-0.9c6.3-1.3,10.6-4,12.7-7.9c1.7-3,1.7-6,1.4-7.8
		c4.1-3.7,4.8-7.8,4.7-10.6C95.6,70.6,95.2,69.2,94.8,68.1z"/>
</g>
</svg>
