<svg width="28" height="28" viewBox="0 0 28 28"  xmlns="http://www.w3.org/2000/svg">
<path d="M9.66004 13.1122V14.6829H18.27V13.1122H9.66004ZM9.66004 17.6195V19.1902H18.27V17.6195H9.66004ZM9.66004 13.1122V14.6829H18.27V13.1122H9.66004ZM9.66004 17.6195V19.1902H18.27V17.6195H9.66004ZM9.66004 17.6195V19.1902H18.27V17.6195H9.66004ZM9.66004 13.1122V14.6829H18.27V13.1122H9.66004ZM9.66004 13.1122V14.6829H18.27V13.1122H9.66004ZM9.66004 13.1122V14.6829H18.27V13.1122H9.66004ZM9.66004 17.6195V19.1902H18.27V17.6195H9.66004ZM9.66004 13.1122V14.6829H18.27V13.1122H9.66004ZM9.66004 13.1122V14.6829H18.27V13.1122H9.66004ZM9.66004 13.1122V14.6829H18.27V13.1122H9.66004ZM9.66004 17.6195V19.1902H18.27V17.6195H9.66004ZM9.66004 13.1122V14.6829H18.27V13.1122H9.66004ZM9.66004 13.1122V14.6829H18.27V13.1122H9.66004ZM9.66004 13.1122V14.6829H18.27V13.1122H9.66004ZM9.66004 13.1122V14.6829H18.27V13.1122H9.66004ZM9.66004 13.1122V14.6829H18.27V13.1122H9.66004ZM9.66004 13.1122V14.6829H18.27V13.1122H9.66004ZM9.66004 17.6195V19.1902H18.27V17.6195H9.66004ZM9.66004 19.2585H18.27V17.6878H9.66004V19.2585ZM9.66004 13.1122V14.6829H18.27V13.1122H9.66004ZM18.55 2.86829H7.00004C6.44004 2.86829 5.95004 3.07316 5.60004 3.41463C5.25004 3.75609 5.04004 4.23414 5.04004 4.78048V23.0146C5.04004 23.561 5.25004 24.039 5.60004 24.3805C5.95004 24.7219 6.51004 24.9268 7.00004 24.9268H21C21.56 24.9268 22.05 24.7219 22.4 24.3805C22.75 24.039 22.96 23.561 22.96 23.0146V7.17073L18.55 2.86829ZM21.35 23.3561H6.65004V4.43902H17.85V7.85365H21.35V23.3561ZM9.66004 19.2585H18.27V17.6878H9.66004V19.2585ZM9.66004 14.6829H18.27V13.1122H9.66004V14.6829ZM9.66004 13.1122V14.6829H18.27V13.1122H9.66004ZM9.66004 17.6195V19.1902H18.27V17.6195H9.66004ZM9.66004 13.1122V14.6829H18.27V13.1122H9.66004ZM9.66004 13.1122V14.6829H18.27V13.1122H9.66004ZM9.66004 13.1122V14.6829H18.27V13.1122H9.66004ZM9.66004 13.1122V14.6829H18.27V13.1122H9.66004ZM9.66004 13.1122V14.6829H18.27V13.1122H9.66004ZM9.66004 17.6195V19.1902H18.27V17.6195H9.66004ZM9.66004 13.1122V14.6829H18.27V13.1122H9.66004ZM9.66004 13.1122V14.6829H18.27V13.1122H9.66004ZM9.66004 17.6195V19.1902H18.27V17.6195H9.66004Z" />
<path d="M9.66004 13.1122V14.6829H18.27V13.1122H9.66004ZM9.66004 17.6195V19.1902H18.27V17.6195H9.66004ZM9.66004 17.6195V19.1902H18.27V17.6195H9.66004ZM9.66004 13.1122V14.6829H18.27V13.1122H9.66004ZM9.66004 13.1122V14.6829H18.27V13.1122H9.66004ZM9.66004 13.1122V14.6829H18.27V13.1122H9.66004ZM9.66004 17.6195V19.1902H18.27V17.6195H9.66004ZM9.66004 13.1122V14.6829H18.27V13.1122H9.66004ZM9.66004 13.1122V14.6829H18.27V13.1122H9.66004ZM9.66004 13.1122V14.6829H18.27V13.1122H9.66004ZM9.66004 17.6195V19.1902H18.27V17.6195H9.66004ZM9.66004 13.1122V14.6829H18.27V13.1122H9.66004ZM9.66004 13.1122V14.6829H18.27V13.1122H9.66004ZM9.66004 13.1122V14.6829H18.27V13.1122H9.66004ZM9.66004 13.1122V14.6829H18.27V13.1122H9.66004ZM9.66004 13.1122V14.6829H18.27V13.1122H9.66004ZM9.66004 13.1122V14.6829H18.27V13.1122H9.66004ZM9.66004 17.6195V19.1902H18.27V17.6195H9.66004ZM9.66004 19.2585H18.27V17.6878H9.66004V19.2585ZM9.66004 13.1122V14.6829H18.27V13.1122H9.66004ZM18.55 2.86829H7.00004C6.44004 2.86829 5.95004 3.07316 5.60004 3.41463C5.25004 3.75609 5.04004 4.23414 5.04004 4.78048V23.0146C5.04004 23.561 5.25004 24.039 5.60004 24.3805C5.95004 24.7219 6.51004 24.9268 7.00004 24.9268H21C21.56 24.9268 22.05 24.7219 22.4 24.3805C22.75 24.039 22.96 23.561 22.96 23.0146V7.17073L18.55 2.86829ZM21.35 23.3561H6.65004V4.43902H17.85V7.85365H21.35V23.3561ZM9.66004 19.2585H18.27V17.6878H9.66004V19.2585ZM9.66004 14.6829H18.27V13.1122H9.66004V14.6829ZM9.66004 13.1122V14.6829H18.27V13.1122H9.66004ZM9.66004 17.6195V19.1902H18.27V17.6195H9.66004ZM9.66004 13.1122V14.6829H18.27V13.1122H9.66004ZM9.66004 13.1122V14.6829H18.27V13.1122H9.66004ZM9.66004 13.1122V14.6829H18.27V13.1122H9.66004ZM9.66004 13.1122V14.6829H18.27V13.1122H9.66004ZM9.66004 13.1122V14.6829H18.27V13.1122H9.66004ZM9.66004 17.6195V19.1902H18.27V17.6195H9.66004ZM9.66004 13.1122V14.6829H18.27V13.1122H9.66004ZM9.66004 13.1122V14.6829H18.27V13.1122H9.66004ZM9.66004 17.6195V19.1902H18.27V17.6195H9.66004ZM9.66004 17.6195V19.1902H18.27V17.6195H9.66004ZM9.66004 13.1122V14.6829H18.27V13.1122H9.66004ZM9.66004 13.1122V14.6829H18.27V13.1122H9.66004ZM9.66004 13.1122V14.6829H18.27V13.1122H9.66004ZM9.66004 17.6195V19.1902H18.27V17.6195H9.66004ZM9.66004 13.1122V14.6829H18.27V13.1122H9.66004ZM9.66004 13.1122V14.6829H18.27V13.1122H9.66004ZM9.66004 17.6195V19.1902H18.27V17.6195H9.66004ZM9.66004 17.6195V19.1902H18.27V17.6195H9.66004ZM9.66004 13.1122V14.6829H18.27V13.1122H9.66004ZM9.66004 13.1122V14.6829H18.27V13.1122H9.66004ZM9.66004 13.1122V14.6829H18.27V13.1122H9.66004ZM9.66004 17.6195V19.1902H18.27V17.6195H9.66004ZM9.66004 13.1122V14.6829H18.27V13.1122H9.66004ZM9.66004 13.1122V14.6829H18.27V13.1122H9.66004ZM9.66004 17.6195V19.1902H18.27V17.6195H9.66004ZM9.66004 17.6195V19.1902H18.27V17.6195H9.66004ZM9.66004 13.1122V14.6829H18.27V13.1122H9.66004Z"   />
<path d="M18.55 2.86829H7.00004C6.44004 2.86829 5.95004 3.07316 5.60004 3.41463C5.25004 3.75609 5.04004 4.23414 5.04004 4.78048V23.0146C5.04004 23.561 5.25004 24.039 5.60004 24.3805C5.95004 24.7219 6.51004 24.9268 7.00004 24.9268H21C21.56 24.9268 22.05 24.7219 22.4 24.3805C22.75 24.039 22.96 23.561 22.96 23.0146V7.17073L18.55 2.86829ZM21.35 23.3561H6.65004V4.43902H17.85V7.85365H21.35V23.3561Z"  />
</svg>
