<?xml version="1.0" encoding="utf-8"?>
<!-- Generator: Adobe Illustrator 22.0.0, SVG Export Plug-In . SVG Version: 6.00 Build 0)  -->
<svg version="1.1" id="Layer_1" xmlns="http://www.w3.org/2000/svg" xmlns:xlink="http://www.w3.org/1999/xlink" x="0px" y="0px"
	 viewBox="0 0 100 100" style="enable-background:new 0 0 100 100;" xml:space="preserve">
<style type="text/css">
	.st0{fill:#FFFFFF;}
	.st1{fill-rule:evenodd;clip-rule:evenodd;fill:#EF7524;}
</style>
<g id="XMLID_1_">
	<g id="XMLID_5_">
		<path class="st0" d="M90.7,42.4H76.4C76.4,27.8,64.6,16,49.9,16c-14.6,0-26.5,11.8-26.5,26.5H9.2c0,22.5,18.2,40.7,40.7,40.7
			c11.1,0,21.2-4.5,28.6-11.7l0,0h0v0C86,64.1,90.7,53.8,90.7,42.4"/>
	</g>
	<g id="XMLID_4_">
		<path class="st1" d="M49.9,68.9c-14.6,0-26.5-11.8-26.5-26.5H9.2c0,22.5,18.2,40.7,40.7,40.7c22.5,0,40.7-18.2,40.7-40.7H76.4
			C76.4,57,64.6,68.9,49.9,68.9"/>
	</g>
	<g id="XMLID_3_">
		<path class="st1" d="M62.8,42.4c0,0.6-0.5,1-0.5,1c-0.2,0.2-3.1,2-6.3,5.1c-3.1,3.1-4.9,6.1-5.1,6.3c0,0-0.4,0.4-1,0.4
			c-0.6,0-1-0.4-1-0.4c-0.2-0.2-2-3.1-5.1-6.3c-3.1-3.1-6.1-4.9-6.3-5.1c0,0-0.5-0.4-0.5-1H62.8z"/>
	</g>
	<g id="XMLID_2_">
		<path class="st1" d="M49.9,16c-14.6,0-26.5,11.8-26.5,26.5h13.6c0-0.6,0.5-1,0.5-1c0.2-0.2,3.1-2,6.3-5.1c3.1-3.1,4.9-6.1,5.1-6.3
			c0,0,0.4-0.5,1-0.5c0.6,0,1,0.5,1,0.5c0.2,0.2,2,3.1,5.1,6.3c3.1,3.1,6.1,4.9,6.3,5.1c0,0,0.5,0.4,0.5,1h13.6
			C76.4,27.8,64.6,16,49.9,16"/>
	</g>
</g>
</svg>
