<svg xmlns="http://www.w3.org/2000/svg" width="20" height="14.061" viewBox="0 0 20 14.061">
  <path id="Setting_email" data-name="Setting email" d="M21,17.484V28.708a1.586,1.586,0,0,1-.041.327h0v.02a1.659,1.659,0,0,1-1.612,1.306H2.98a2.01,2.01,0,0,1-1.612-.8A1.85,1.85,0,0,1,1,28.443V17.79A1.445,1.445,0,0,1,2.02,16.4h.02a2.745,2.745,0,0,1,.714-.1H20c.02,0,.061.02.082.02a.979.979,0,0,1,.878.878h0a1.6,1.6,0,0,1,.041.286Zm-9.981,7.449L19.814,17.2c-1.286-.082-17.347-.041-17.531.041Zm2.635-1.217L11.43,25.593a.567.567,0,0,1-.806-.02l-.939-.8L8.44,23.715,2.263,29.524l.02.041H19.814Zm-5.8-.517L1.8,17.928v10.78Zm6.331,0,5.893,5.51V18.2Z" transform="translate(-1 -16.3)" />
</svg>
