<svg width="32" height="32" viewBox="0 0 32 32" fill="none" xmlns="http://www.w3.org/2000/svg">
<path d="M26.9358 7.86818C26.4262 5.91818 22.6339 4 16 4C9.36612 4 5.57332 5.91818 5.06424 7.86818C5.02728 7.935 5 8.00818 5 8.09091V8.31818V13.5455V13.7727V14V19V19.2273V19.4545V24.9091C5 24.9827 5.01892 25.0523 5.05148 25.1141C5.57112 27.3391 10.2202 29 16 29C21.7666 29 26.4082 27.3459 26.945 25.1291C26.9802 25.0641 27 24.9891 27 24.9091V19.4545V19.2273V19V14V13.7727V13.5455V8.31818V8.09091C27 8.00818 26.9727 7.935 26.9358 7.86818ZM26.0852 19.4477C26.0729 19.5027 26.0558 19.5573 26.0342 19.6127C26.0166 19.6577 25.995 19.7027 25.9713 19.7477C25.9418 19.8036 25.9088 19.8595 25.8696 19.9155C25.8406 19.9577 25.8076 19.9995 25.7733 20.0414C25.7244 20.1009 25.6725 20.1605 25.6136 20.2195C25.5779 20.2555 25.5388 20.2909 25.4992 20.3268C25.427 20.3918 25.3518 20.4564 25.2677 20.5205C25.2316 20.5482 25.1929 20.575 25.1546 20.6023C25.0552 20.6732 24.9514 20.7436 24.8374 20.8127C24.8075 20.8314 24.7754 20.8491 24.7441 20.8673C24.613 20.9436 24.4762 21.0195 24.3283 21.0932C24.3094 21.1027 24.2896 21.1118 24.2702 21.1209C24.1052 21.2014 23.9328 21.2805 23.7484 21.3568C23.7431 21.3591 23.7378 21.3609 23.7326 21.3632C22.7333 21.7755 21.4551 22.1223 19.9657 22.3495C19.9582 22.3505 19.9508 22.3514 19.9433 22.3527C19.6538 22.3968 19.3568 22.4359 19.0518 22.4705C19.0021 22.4759 18.9498 22.4795 18.8996 22.485C18.6334 22.5136 18.3641 22.54 18.0869 22.5609C17.9602 22.5705 17.8273 22.575 17.6984 22.5832C17.4898 22.5959 17.2835 22.61 17.0696 22.6177C16.7203 22.6291 16.3639 22.6364 16 22.6364C15.6361 22.6364 15.2797 22.6291 14.9299 22.6164C14.7161 22.6086 14.5097 22.5941 14.3012 22.5818C14.1722 22.5741 14.0394 22.5691 13.9126 22.5595C13.6354 22.5386 13.3662 22.5123 13.1 22.4836C13.0498 22.4782 12.9974 22.4745 12.9477 22.4691C12.6428 22.4345 12.3458 22.395 12.0563 22.3514C12.0488 22.3505 12.0413 22.3495 12.0338 22.3482C10.5444 22.1209 9.26624 21.7741 8.267 21.3618C8.26172 21.36 8.25644 21.3577 8.25116 21.3555C8.0668 21.2791 7.89388 21.2 7.72932 21.1195C7.7104 21.11 7.69016 21.1009 7.67124 21.0918C7.5234 21.0182 7.38656 20.9427 7.25544 20.8659C7.22464 20.8477 7.19208 20.83 7.16216 20.8114C7.0482 20.7423 6.94436 20.6718 6.84492 20.6009C6.80708 20.5736 6.76792 20.5468 6.73184 20.5191C6.6478 20.455 6.57256 20.3905 6.5004 20.3255C6.46124 20.29 6.42164 20.2545 6.386 20.2182C6.32704 20.1591 6.27512 20.1 6.22628 20.04C6.19196 19.9982 6.15896 19.9564 6.12992 19.9141C6.0912 19.8582 6.0582 19.8023 6.02828 19.7464C6.00452 19.7014 5.9834 19.6564 5.96536 19.6114C5.9438 19.5564 5.92664 19.5014 5.91432 19.4464C5.89804 19.3741 5.88 19.3005 5.88 19.2273C5.88 19.1759 5.88572 19.1245 5.89364 19.0736C5.90464 19.005 5.89848 18.9364 5.88 18.8714V15.4968C5.89232 15.5086 5.90772 15.52 5.92048 15.5318C6.0164 15.6191 6.11408 15.7059 6.22408 15.7895C7.88156 17.0845 11.1961 18.0909 16 18.0909C20.7837 18.0909 24.0898 17.0927 25.7544 15.8055C25.8872 15.7055 26.0069 15.6023 26.1196 15.4973L26.12 15.4968V18.8714C26.1015 18.9364 26.0954 19.005 26.1064 19.0736C26.1147 19.1245 26.12 19.1759 26.12 19.2273C26.12 19.3005 26.102 19.3741 26.0852 19.4477ZM26.12 10.0423V13.4168C26.1015 13.4818 26.0954 13.5505 26.1064 13.6191C26.1147 13.67 26.12 13.7214 26.12 13.7727C26.12 13.8459 26.102 13.9195 26.0852 13.9932C26.0729 14.0482 26.0558 14.1027 26.0342 14.1582C26.0166 14.2032 25.995 14.2482 25.9713 14.2932C25.9418 14.3491 25.9088 14.405 25.8696 14.4609C25.8406 14.5032 25.8076 14.545 25.7733 14.5868C25.7244 14.6464 25.6725 14.7059 25.6136 14.765C25.5779 14.8009 25.5388 14.8364 25.4992 14.8723C25.427 14.9373 25.3518 15.0018 25.2677 15.0659C25.2316 15.0936 25.1929 15.1205 25.1546 15.1477C25.0552 15.2186 24.9514 15.2891 24.8374 15.3582C24.8075 15.3768 24.7754 15.3945 24.7441 15.4127C24.613 15.4891 24.4762 15.565 24.3283 15.6386C24.3094 15.6482 24.2896 15.6573 24.2702 15.6664C24.1052 15.7468 23.9328 15.8259 23.7484 15.9023C23.7431 15.9045 23.7378 15.9064 23.7326 15.9086C22.7333 16.3209 21.4551 16.6677 19.9657 16.895C19.9582 16.8959 19.9508 16.8968 19.9433 16.8982C19.6538 16.9423 19.3568 16.9814 19.0518 17.0159C19.0021 17.0214 18.9498 17.025 18.8996 17.0305C18.6334 17.0591 18.3641 17.0855 18.0869 17.1064C17.9602 17.1159 17.8273 17.1205 17.6984 17.1286C17.4898 17.1414 17.2835 17.1555 17.0696 17.1632C16.7203 17.1745 16.3639 17.1818 16 17.1818C15.6361 17.1818 15.2797 17.1745 14.9299 17.1618C14.7161 17.1541 14.5097 17.1395 14.3012 17.1273C14.1722 17.1195 14.0394 17.1145 13.9126 17.105C13.6354 17.0841 13.3662 17.0577 13.1 17.0291C13.0498 17.0236 12.9974 17.02 12.9477 17.0145C12.6428 16.98 12.3458 16.9405 12.0563 16.8968C12.0488 16.8959 12.0413 16.895 12.0338 16.8936C10.5444 16.6664 9.26624 16.3195 8.267 15.9073C8.26172 15.9055 8.25644 15.9032 8.25116 15.9009C8.0668 15.8245 7.89388 15.7455 7.72932 15.665C7.7104 15.6555 7.69016 15.6464 7.67124 15.6373C7.5234 15.5636 7.38656 15.4882 7.25544 15.4114C7.22464 15.3932 7.19208 15.3755 7.16216 15.3568C7.0482 15.2877 6.94436 15.2173 6.84492 15.1464C6.80708 15.1191 6.76792 15.0923 6.73184 15.0645C6.6478 15.0005 6.57256 14.9359 6.5004 14.8709C6.46124 14.8355 6.42164 14.8 6.386 14.7636C6.32704 14.7045 6.27512 14.6455 6.22628 14.5855C6.19196 14.5436 6.15896 14.5018 6.12992 14.4595C6.0912 14.4036 6.0582 14.3477 6.02828 14.2918C6.00452 14.2468 5.9834 14.2018 5.96536 14.1568C5.9438 14.1018 5.92664 14.0468 5.91432 13.9918C5.89804 13.9195 5.88 13.8459 5.88 13.7727C5.88 13.7214 5.88572 13.67 5.89364 13.6191C5.90464 13.5505 5.89848 13.4818 5.88 13.4168V10.0423C5.9328 10.0918 5.99308 10.1405 6.05028 10.1895C6.08196 10.2168 6.11144 10.2441 6.14488 10.2714C6.27688 10.3786 6.41944 10.4845 6.57388 10.5877C6.606 10.6091 6.64208 10.63 6.67552 10.6514C6.80488 10.7345 6.94172 10.8159 7.0856 10.8959C7.13884 10.9255 7.19208 10.9545 7.24708 10.9836C7.40768 11.0682 7.5762 11.1505 7.75352 11.23C7.78256 11.2432 7.80896 11.2568 7.83844 11.2695C8.0448 11.36 8.26392 11.4464 8.49184 11.53C8.55476 11.5532 8.62076 11.575 8.68544 11.5977C8.86672 11.6609 9.05416 11.7214 9.2482 11.78C9.31816 11.8009 9.3868 11.8227 9.45852 11.8427C9.71592 11.9164 9.98168 11.9864 10.2606 12.0509C10.2989 12.06 10.3403 12.0673 10.379 12.0759C10.625 12.1314 10.8802 12.1827 11.1424 12.2309C11.2313 12.2473 11.3215 12.2627 11.4121 12.2782C11.6616 12.3205 11.9186 12.3591 12.1821 12.3945C12.2499 12.4036 12.3146 12.4141 12.3832 12.4227C12.7106 12.4636 13.0494 12.4986 13.3974 12.5286C13.4832 12.5359 13.5725 12.5414 13.6596 12.5477C13.9382 12.5686 14.2228 12.5859 14.5141 12.5995C14.6202 12.6045 14.7258 12.6095 14.834 12.6136C15.2133 12.6268 15.5996 12.6364 16 12.6364C16.4004 12.6364 16.7867 12.6268 17.166 12.6136C17.2738 12.6095 17.3794 12.6045 17.4859 12.5995C17.7772 12.5859 18.0618 12.5686 18.3404 12.5477C18.4275 12.5409 18.5164 12.5359 18.6026 12.5286C18.9506 12.4991 19.2894 12.4636 19.6168 12.4227C19.6854 12.4141 19.7501 12.4036 19.8179 12.3945C20.0814 12.3591 20.338 12.3205 20.5879 12.2782C20.6785 12.2627 20.7687 12.2473 20.8576 12.2309C21.1198 12.1827 21.375 12.1314 21.621 12.0759C21.6597 12.0673 21.7011 12.0595 21.7394 12.0509C22.0183 11.9864 22.2841 11.9159 22.5415 11.8427C22.6132 11.8223 22.6818 11.8009 22.7518 11.78C22.9458 11.7214 23.1333 11.6609 23.3146 11.5977C23.3792 11.575 23.4452 11.5532 23.5082 11.53C23.7361 11.4464 23.9556 11.36 24.1616 11.2695C24.191 11.2568 24.2174 11.2432 24.2465 11.23C24.4238 11.15 24.5923 11.0682 24.7529 10.9836C24.8079 10.9545 24.8616 10.9255 24.9144 10.8959C25.0583 10.8164 25.1951 10.735 25.3245 10.6514C25.3579 10.63 25.394 10.6091 25.4261 10.5877C25.5806 10.4845 25.7231 10.3791 25.8551 10.2714C25.8881 10.2441 25.9176 10.2168 25.9497 10.1895C26.0069 10.1405 26.0672 10.0918 26.12 10.0423ZM16 4.90909C21.9642 4.90909 26.12 6.70545 26.12 8.31818C26.12 9.93091 21.9642 11.7273 16 11.7273C10.0358 11.7273 5.88 9.93091 5.88 8.31818C5.88 6.70545 10.0358 4.90909 16 4.90909ZM26.12 24.7741C26.1138 24.7941 26.1094 24.8145 26.1059 24.8355C25.8564 26.4077 21.7358 28.0909 16 28.0909C10.2642 28.0909 6.14356 26.4077 5.89408 24.8355C5.89056 24.815 5.88572 24.795 5.88 24.7759V20.9514C5.89232 20.9632 5.90772 20.9745 5.92048 20.9864C6.0164 21.0736 6.11408 21.1605 6.22408 21.2441C7.88156 22.5391 11.1961 23.5455 16 23.5455C20.7837 23.5455 24.0898 22.5473 25.7544 21.26C25.8872 21.16 26.0069 21.0568 26.1196 20.9518L26.12 20.9514V24.7741Z" fill="currentColor" stroke="currentColor" stroke-width="0.5"/>
</svg>
