<?xml version="1.0" encoding="utf-8"?>
<!-- Generator: Adobe Illustrator 22.0.0, SVG Export Plug-In . SVG Version: 6.00 Build 0)  -->
<svg version="1.1" id="Layer_1" xmlns="http://www.w3.org/2000/svg" xmlns:xlink="http://www.w3.org/1999/xlink" x="0px" y="0px"
	 viewBox="0 0 26 26" style="enable-background:new 0 0 26 26;" xml:space="preserve">
<g id="Thêm" transform="translate(-1.7 -1.7)">
	<path id="Path_1100" class="st0" d="M11,1.7H4.4c-1.5,0-2.7,1.2-2.7,2.7V11c0,1.5,1.2,2.7,2.7,2.7H11c1.5,0,2.7-1.2,2.7-2.7V4.4
		C13.7,2.9,12.5,1.7,11,1.7z M12.2,10.8c0,0.7-0.6,1.4-1.3,1.4c0,0,0,0,0,0H4.5c-0.7,0-1.4-0.6-1.4-1.3c0,0,0,0,0,0V4.6
		c0-0.7,0.6-1.4,1.3-1.4c0,0,0,0,0,0h6.2c0.7,0,1.4,0.6,1.4,1.3c0,0,0,0,0,0L12.2,10.8z"/>
	<path id="Path_1106" class="st0" d="M11,15.7H4.4c-1.5,0-2.7,1.2-2.7,2.7V25c0,1.5,1.2,2.7,2.7,2.7H11c1.5,0,2.7-1.2,2.7-2.7v-6.5
		C13.7,16.9,12.5,15.7,11,15.7z M12.2,24.8c0,0.7-0.6,1.4-1.3,1.4c0,0,0,0,0,0H4.5c-0.7,0-1.4-0.6-1.4-1.3c0,0,0,0,0,0v-6.2
		c0-0.7,0.6-1.4,1.3-1.4c0,0,0,0,0,0h6.2c0.7,0,1.4,0.6,1.4,1.3c0,0,0,0,0,0L12.2,24.8z"/>
	<path id="Path_1104" class="st0" d="M25,1.7h-6.5c-1.5,0-2.7,1.2-2.7,2.7V11c0,1.5,1.2,2.7,2.7,2.7H25c1.5,0,2.7-1.2,2.7-2.7V4.4
		C27.7,2.9,26.5,1.7,25,1.7z M26.2,10.8c0,0.7-0.6,1.4-1.3,1.4c0,0,0,0,0,0h-6.2c-0.7,0-1.4-0.6-1.4-1.3c0,0,0,0,0,0V4.6
		c0-0.7,0.6-1.4,1.3-1.4c0,0,0,0,0,0h6.2c0.7,0,1.4,0.6,1.4,1.3c0,0,0,0,0,0L26.2,10.8z"/>
	<path id="Path_1105" class="st0" d="M25,15.7h-6.5c-1.5,0-2.7,1.2-2.7,2.7V25c0,1.5,1.2,2.7,2.7,2.7H25c1.5,0,2.7-1.2,2.7-2.7v-6.5
		C27.7,16.9,26.5,15.7,25,15.7z M26.2,24.8c0,0.7-0.6,1.4-1.3,1.4c0,0,0,0,0,0h-6.2c-0.7,0-1.4-0.6-1.4-1.3c0,0,0,0,0,0v-6.2
		c0-0.7,0.6-1.4,1.3-1.4c0,0,0,0,0,0h6.2c0.7,0,1.4,0.6,1.4,1.3c0,0,0,0,0,0L26.2,24.8z"/>
</g>
</svg>
