<svg width="32" height="32" viewBox="0 0 32 32" fill="none" xmlns="http://www.w3.org/2000/svg">
<path d="M17.5117 29.7137H14.6285C14.2065 29.7137 14.0409 29.7137 12.5576 25.9708L11.4099 25.4855C8.30305 26.9139 7.9391 26.9139 7.79984 26.9139H7.57514L7.37892 26.7419L5.33549 24.7376C5.02745 24.4211 4.91351 24.3092 6.5107 20.6233L6.03492 19.5092C2.28564 18.142 2.28564 17.9711 2.28564 17.5133V14.628C2.28564 14.1712 2.28564 14.0278 6.03597 12.5424L6.51175 11.4284C4.83228 7.79935 4.94411 7.68542 5.28063 7.37105L7.49602 5.17149H7.77136C9.03896 5.497 10.2682 5.95675 11.4383 6.54291L12.5861 6.05764C13.9006 2.28516 14.0683 2.28516 14.4882 2.28516H17.3714C17.7933 2.28516 17.959 2.28516 19.4422 6.0281L20.59 6.48489C23.6968 5.0565 24.0608 5.0565 24.2 5.0565H24.4237L24.6199 5.2274L26.6633 7.25606C26.9714 7.57254 27.0853 7.68437 25.4881 11.3703L25.9639 12.5128C29.7142 13.8896 29.7142 14.0278 29.7142 14.4856V17.3709C29.7142 17.7992 29.7142 17.9711 25.9639 19.4565L25.5166 20.5705C27.1961 24.1995 27.0842 24.3135 26.7762 24.6278L24.5376 26.8559H24.258C22.9904 26.5304 21.7612 26.0706 20.5911 25.4845L19.4433 25.9697C18.0993 29.7137 17.9315 29.7137 17.5117 29.7137ZM14.9091 28.5143H17.1762C17.4283 27.971 17.9874 26.5426 18.4632 25.2861L18.5476 25.0287L20.6185 24.1721L20.8421 24.2576C22.0732 24.8008 23.5291 25.4001 24.1125 25.572L25.7075 23.9717C25.5113 23.3999 24.8963 22 24.3361 20.8005L24.2243 20.5716L25.0914 18.4859L25.3151 18.4005C26.5747 17.9152 28.002 17.315 28.5337 17.0291V14.8C27.9736 14.5426 26.5462 13.9718 25.3151 13.5425L25.0725 13.457L24.2053 11.3714L24.3171 11.1425C24.8446 9.91346 25.4364 8.48507 25.6326 7.88481L24.0323 6.28551C23.528 6.45746 22.0732 7.11364 20.8421 7.68542L20.6185 7.79936L18.5476 6.94168L18.4632 6.71276C17.959 5.45527 17.3439 3.99839 17.0918 3.48463H14.8247C14.5726 4.02793 14.0135 5.45632 13.5377 6.71276L13.4533 6.94168L11.3824 7.79936L11.1577 7.7139C9.92661 7.17061 8.47079 6.5714 7.88318 6.39944L6.28811 7.99979C6.48433 8.57157 7.09936 9.97149 7.65953 11.171L7.77136 11.3999L6.90419 13.4855L6.68055 13.571C5.44942 14.0562 3.9936 14.6565 3.46191 14.9424V17.2C4.02208 17.4574 5.44942 18.0281 6.68055 18.4859L6.93268 18.5714L7.79984 20.657L7.68802 20.8575C7.16055 22.0865 6.56872 23.5149 6.3725 24.0856L7.96758 25.6859C8.47184 25.4855 9.92661 24.8578 11.1577 24.286L11.3814 24.1721L13.4522 25.0298L13.5366 25.2587C14.0409 26.5426 14.658 27.9994 14.9091 28.5143ZM15.9999 20.7994C15.05 20.8022 14.1206 20.523 13.3295 19.9972C12.5383 19.4714 11.9209 18.7227 11.5555 17.8458C11.1901 16.969 11.0931 16.0035 11.2768 15.0714C11.4604 14.1394 11.9165 13.2829 12.5873 12.6102C13.258 11.9375 14.1132 11.479 15.0447 11.2927C15.9762 11.1064 16.942 11.2006 17.8199 11.5635C18.6978 11.9264 19.4483 12.5416 19.9763 13.3313C20.5043 14.1209 20.7862 15.0495 20.7862 15.9994C20.7871 17.2704 20.2835 18.4897 19.3861 19.3896C18.4887 20.2896 17.2709 20.7966 15.9999 20.7994ZM15.9999 12.4C15.0422 12.4016 14.1235 12.7801 13.4426 13.4537C12.7617 14.1272 12.3733 15.0417 12.3614 15.9994C12.3564 16.7168 12.5644 17.4196 12.959 18.0187C13.3537 18.6178 13.9172 19.0863 14.5783 19.365C15.2394 19.6436 15.9683 19.7198 16.6727 19.5839C17.3771 19.448 18.0254 19.1062 18.5354 18.6016C19.0454 18.0971 19.3942 17.4526 19.5377 16.7497C19.6812 16.0467 19.6128 15.3171 19.3413 14.653C19.0699 13.989 18.6074 13.4204 18.0126 13.0193C17.4178 12.6182 16.7173 12.4027 15.9999 12.4Z" fill="black" fill-opacity="0.56"/>
</svg>
