<svg width="32" height="32" viewBox="0 0 32 32" fill="none" xmlns="http://www.w3.org/2000/svg">
<path d="M27.2712 16.3367C27.1666 16.1226 27.1666 15.8772 27.2712 15.6632L28.2409 13.6794C28.7808 12.5749 28.353 11.2584 27.267 10.6822L25.3166 9.64734C25.1061 9.53572 24.9619 9.33707 24.9207 9.10252L24.5392 6.92765C24.3268 5.71674 23.2067 4.90304 21.9896 5.07523L19.8034 5.38448C19.5674 5.4178 19.3341 5.34193 19.1629 5.17634L17.576 3.64115C16.6923 2.78631 15.3081 2.78626 14.4245 3.64115L12.8375 5.17649C12.6663 5.34213 12.4329 5.41785 12.197 5.38464L10.0108 5.07538C8.7933 4.90309 7.67359 5.71689 7.46118 6.9278L7.07972 9.10257C7.03854 9.33717 6.89427 9.53577 6.68389 9.64744L4.73342 10.6823C3.64743 11.2585 3.21965 12.5751 3.75955 13.6796L4.7292 15.6633C4.83381 15.8773 4.83381 16.1228 4.7292 16.3368L3.7595 18.3205C3.2196 19.425 3.64738 20.7415 4.73336 21.3177L6.68384 22.3526C6.89427 22.4642 7.03854 22.6628 7.07972 22.8974L7.46118 25.0723C7.65455 26.1746 8.59978 26.9477 9.68612 26.9476C9.79311 26.9476 9.90168 26.9401 10.0108 26.9246L12.1971 26.6154C12.4328 26.5819 12.6663 26.6579 12.8375 26.8235L14.4245 28.3587C14.8664 28.7862 15.4332 28.9999 16.0002 28.9998C16.5671 28.9998 17.1342 28.7861 17.5759 28.3587L19.1629 26.8235C19.3341 26.6579 19.5675 26.5823 19.8034 26.6154L21.9896 26.9246C23.2072 27.0969 24.3268 26.2831 24.5392 25.0722L24.9207 22.8974C24.9619 22.6628 25.1062 22.4642 25.3166 22.3526L27.267 21.3177C28.353 20.7415 28.7808 19.4249 28.2409 18.3204L27.2712 16.3367ZM26.5642 19.993L24.6137 21.0279C23.9918 21.3579 23.5653 21.9448 23.4437 22.6383L23.0623 24.8131C22.9904 25.2228 22.6116 25.498 22.1997 25.4398L20.0134 25.1306C19.3162 25.0318 18.6263 25.2562 18.1203 25.7457L16.5333 27.2808C16.2344 27.5699 15.766 27.5699 15.4671 27.2808L13.8801 25.7456C13.4524 25.3319 12.8934 25.1077 12.3097 25.1077C12.2027 25.1077 12.0949 25.1152 11.987 25.1305L9.80073 25.4398C9.38911 25.498 9.01003 25.2227 8.93813 24.813L8.55661 22.6382C8.43494 21.9447 8.00849 21.3577 7.38658 21.0278L5.43611 19.9929C5.06867 19.798 4.92394 19.3526 5.1066 18.9789L6.0763 16.9951C6.38545 16.3626 6.38545 15.6372 6.0763 15.0047L5.1066 13.0209C4.92394 12.6472 5.06867 12.2018 5.43611 12.0069L7.38658 10.972C8.00844 10.642 8.43494 10.0551 8.55656 9.3616L8.93802 7.18678C9.00993 6.77708 9.38865 6.50185 9.80063 6.56005L11.9869 6.8693C12.6838 6.96797 13.374 6.74367 13.88 6.2542L15.467 4.71901C15.7659 4.42987 16.2342 4.42987 16.5332 4.71901L18.1202 6.2542C18.6262 6.74372 19.3162 6.96797 20.0133 6.8693L22.1996 6.56005C22.6112 6.5018 22.9903 6.77708 23.0622 7.18678L23.4436 9.36165C23.5653 10.0551 23.9917 10.6421 24.6136 10.972L26.5641 12.0069C26.9316 12.2018 27.0763 12.6472 26.8936 13.0209L25.9239 15.0046C25.6148 15.6371 25.6148 16.3626 25.9239 16.9951L26.8936 18.9788C27.0763 19.3526 26.9316 19.798 26.5642 19.993Z" fill="currentColor"/>
<path d="M21.4782 10.5214C21.1855 10.2286 20.7107 10.2286 20.4179 10.5214L10.5214 20.4179C10.2286 20.7107 10.2286 21.1855 10.5214 21.4783C10.6678 21.6247 10.8597 21.6979 11.0515 21.6979C11.2434 21.6979 11.4353 21.6247 11.5817 21.4783L21.4782 11.5818C21.7711 11.2889 21.7711 10.8142 21.4782 10.5214Z" fill="currentColor"/>
<path d="M13.0011 9.25195C11.4853 9.25195 10.252 10.4853 10.252 12.0011C10.252 13.517 11.4853 14.7503 13.0011 14.7503C14.517 14.7503 15.7503 13.517 15.7503 12.0011C15.7503 10.4853 14.517 9.25195 13.0011 9.25195ZM13.0011 13.2507C12.3121 13.2507 11.7515 12.6902 11.7515 12.0011C11.7515 11.3121 12.3121 10.7515 13.0011 10.7515C13.6902 10.7515 14.2508 11.3121 14.2508 12.0011C14.2508 12.6902 13.6902 13.2507 13.0011 13.2507Z" fill="currentColor"/>
<path d="M18.9992 17.2495C17.4833 17.2495 16.25 18.4828 16.25 19.9987C16.25 21.5146 17.4833 22.7479 18.9992 22.7479C20.5151 22.7479 21.7484 21.5146 21.7484 19.9987C21.7484 18.4828 20.5151 17.2495 18.9992 17.2495ZM18.9992 21.2483C18.3102 21.2483 17.7495 20.6877 17.7495 19.9987C17.7495 19.3097 18.3101 18.7491 18.9992 18.7491C19.6882 18.7491 20.2488 19.3097 20.2488 19.9987C20.2488 20.6877 19.6882 21.2483 18.9992 21.2483Z" fill="currentColor"/>
</svg>
