<svg width="32" height="32" viewBox="0 0 32 32" fill="none" xmlns="http://www.w3.org/2000/svg">
<path d="M21.2233 3.42773H7.96436C7.3215 3.42773 6.759 3.66126 6.35721 4.05047C5.95543 4.43968 5.71436 4.98457 5.71436 5.6073V26.391C5.71436 27.0138 5.95543 27.5586 6.35721 27.9479C6.759 28.3371 7.40186 28.5706 7.96436 28.5706H24.0358C24.6786 28.5706 25.2411 28.3371 25.6429 27.9479C26.0447 27.5586 26.2858 27.0138 26.2858 26.391V8.33176L21.2233 3.42773ZM24.4376 26.7802H7.56257V5.21809H20.4197V9.11018H24.4376V26.7802Z" fill="currentColor" fill-opacity="0.7"/>
<path d="M21.7142 16.0675L20.3726 14.8574L15.4533 19.2944L12.7701 16.8742L11.4285 18.0843L15.4533 21.7146L21.7142 16.0675Z" fill="currentColor" fill-opacity="0.7"/>
</svg>
