<svg width="32" height="32" viewBox="0 0 32 32" fill="none" xmlns="http://www.w3.org/2000/svg">
<path d="M15.9999 2.28516C8.45707 2.28516 2.28564 8.45658 2.28564 15.9994C2.28564 23.5423 8.45707 29.7137 15.9999 29.7137C23.5428 29.7137 29.7142 23.5423 29.7142 15.9994C29.7142 8.45658 23.5428 2.28516 15.9999 2.28516ZM15.9999 27.9994C13.4856 27.9994 11.1999 27.1994 9.25707 25.9423C9.94279 24.9137 10.8571 23.9994 11.9999 23.3137C13.2571 22.628 14.6285 22.2852 15.9999 22.2852C17.3714 22.2852 18.7428 22.628 19.9999 23.3137C21.1428 23.8852 22.0571 24.7994 22.7428 25.9423C20.7999 27.1994 18.5142 27.9994 15.9999 27.9994ZM13.0285 19.6566C12.2285 18.8566 11.7714 17.828 11.7714 16.7994C11.7714 15.9994 11.9999 15.1994 12.4571 14.5137C12.9142 13.828 13.5999 13.2566 14.3999 13.028C15.1999 12.6852 15.9999 12.6852 16.7999 12.7994C17.5999 12.9137 18.3999 13.3709 18.9714 13.9423C19.5428 14.5137 19.9999 15.1994 20.1142 15.9994C20.2285 16.7994 20.2285 17.5994 19.8856 18.3994C19.5428 19.1994 18.9714 19.7709 18.2856 20.228C17.5999 20.6852 16.7999 20.9137 15.9999 20.9137C14.8571 20.7994 13.8285 20.4566 13.0285 19.6566ZM23.8856 25.028C22.7428 23.3137 21.1428 22.0566 19.1999 21.3709C20.1142 20.7994 20.7999 19.9994 21.2571 19.0852C21.8285 17.9423 21.9428 16.6852 21.5999 15.428C21.2571 14.1709 20.5714 13.1423 19.5428 12.3423C18.5142 11.5423 17.2571 11.1994 15.9999 11.1994C14.7428 11.1994 13.4856 11.6566 12.4571 12.3423C11.4285 13.028 10.7428 14.1709 10.3999 15.428C10.0571 16.6852 10.1714 17.9423 10.7428 19.0852C11.1999 19.9994 11.8856 20.7994 12.7999 21.3709C10.8571 22.0566 9.25707 23.3137 8.11422 25.028C5.59993 22.8566 3.99993 19.6566 3.99993 15.9994C3.99993 9.37087 9.37136 3.99944 15.9999 3.99944C22.6285 3.99944 27.9999 9.37087 27.9999 15.9994C27.9999 19.6566 26.3999 22.8566 23.8856 25.028Z" fill="currentColor" fill-opacity="0.7"/>
</svg>
