<svg width="32" height="32" viewBox="0 0 32 32" fill="none" xmlns="http://www.w3.org/2000/svg">
<path d="M25.6688 26.4123H6.63358C6.36263 26.4123 6.10278 26.3046 5.91119 26.1131C5.71961 25.9215 5.61197 25.6616 5.61197 25.3907V6.35547C5.6087 6.25587 5.6255 6.15664 5.66136 6.06366C5.69721 5.97069 5.7514 5.88587 5.8207 5.81426C5.89 5.74265 5.97299 5.68571 6.06474 5.64682C6.15649 5.60793 6.25512 5.58789 6.35477 5.58789C6.45442 5.58789 6.55306 5.60793 6.64481 5.64682C6.73656 5.68571 6.81954 5.74265 6.88884 5.81426C6.95814 5.88587 7.01233 5.97069 7.04819 6.06366C7.08405 6.15664 7.10084 6.25587 7.09757 6.35547V24.9267H25.6688C25.8616 24.933 26.0443 25.014 26.1785 25.1526C26.3126 25.2913 26.3876 25.4766 26.3876 25.6695C26.3876 25.8624 26.3126 26.0477 26.1785 26.1863C26.0443 26.3249 25.8616 26.4059 25.6688 26.4123Z" fill="currentColor" fill-opacity="0.7"/>
<path d="M10.1552 23.2269C10.0576 23.227 9.9609 23.2078 9.87069 23.1705C9.78047 23.1332 9.6985 23.0785 9.62946 23.0094C9.56043 22.9404 9.50569 22.8584 9.46838 22.7682C9.43107 22.678 9.41192 22.5813 9.41202 22.4837V15.6589C9.40875 15.5593 9.42555 15.46 9.46141 15.3671C9.49727 15.2741 9.55145 15.1893 9.62075 15.1177C9.69005 15.046 9.77304 14.9891 9.86479 14.9502C9.95654 14.9113 10.0552 14.8913 10.1548 14.8913C10.2545 14.8913 10.3531 14.9113 10.4449 14.9502C10.5366 14.9891 10.6196 15.046 10.6889 15.1177C10.7582 15.1893 10.8124 15.2741 10.8482 15.3671C10.8841 15.46 10.9009 15.5593 10.8976 15.6589V22.4837C10.8977 22.5812 10.8786 22.6778 10.8413 22.768C10.8041 22.8582 10.7494 22.9401 10.6805 23.0091C10.6115 23.0782 10.5296 23.1329 10.4395 23.1703C10.3494 23.2076 10.2528 23.2269 10.1552 23.2269ZM19.4568 23.2269C19.3592 23.227 19.2625 23.2078 19.1723 23.1705C19.0821 23.1332 19.0001 23.0785 18.9311 23.0094C18.862 22.9404 18.8073 22.8584 18.77 22.7682C18.7327 22.678 18.7135 22.5813 18.7136 22.4837V18.0837C18.7104 17.9841 18.7272 17.8848 18.763 17.7919C18.7989 17.6989 18.8531 17.6141 18.9224 17.5425C18.9917 17.4708 19.0746 17.4139 19.1664 17.375C19.2581 17.3361 19.3568 17.3161 19.4564 17.3161C19.5561 17.3161 19.6547 17.3361 19.7465 17.375C19.8382 17.4139 19.9212 17.4708 19.9905 17.5425C20.0598 17.6141 20.114 17.6989 20.1498 17.7919C20.1857 17.8848 20.2025 17.9841 20.1992 18.0837V22.4837C20.1992 22.6806 20.121 22.8695 19.9818 23.0089C19.8426 23.1483 19.6538 23.2266 19.4568 23.2269ZM14.8048 23.2269C14.7072 23.227 14.6105 23.2078 14.5203 23.1705C14.4301 23.1332 14.3481 23.0785 14.2791 23.0094C14.21 22.9404 14.1553 22.8584 14.118 22.7682C14.0807 22.678 14.0615 22.5813 14.0616 22.4837V13.6837C14.068 13.4909 14.149 13.3081 14.2876 13.174C14.4262 13.0398 14.6115 12.9648 14.8044 12.9648C14.9973 12.9648 15.1827 13.0398 15.3213 13.174C15.4599 13.3081 15.5409 13.4909 15.5472 13.6837V22.4837C15.5473 22.5812 15.5282 22.6778 15.4909 22.768C15.4537 22.8582 15.399 22.9401 15.3301 23.0091C15.2611 23.0782 15.1792 23.1329 15.0891 23.1703C14.999 23.2076 14.9024 23.2269 14.8048 23.2269ZM24.1064 23.2269C24.0088 23.227 23.9121 23.2078 23.8219 23.1705C23.7317 23.1332 23.6497 23.0785 23.5807 23.0094C23.5116 22.9404 23.4569 22.8584 23.4196 22.7682C23.3823 22.678 23.3631 22.5813 23.3632 22.4837V15.6589C23.3696 15.4661 23.4506 15.2833 23.5892 15.1492C23.7278 15.015 23.9131 14.94 24.106 14.94C24.2989 14.94 24.4842 15.015 24.6229 15.1492C24.7615 15.2833 24.8425 15.4661 24.8488 15.6589V22.4837C24.8489 22.5812 24.8298 22.6778 24.7925 22.768C24.7553 22.8582 24.7006 22.9401 24.6317 23.0091C24.5627 23.0782 24.4808 23.1329 24.3907 23.1703C24.3006 23.2076 24.204 23.2269 24.1064 23.2269Z" fill="currentColor" fill-opacity="0.7"/>
</svg>
