<svg width="32" height="32" viewBox="0 0 32 32" fill="none" xmlns="http://www.w3.org/2000/svg">
<path d="M15.8516 12.6956V12.6957L15.8557 12.6955C16.2944 12.6814 16.7303 12.7717 17.1272 12.959C17.5242 13.1464 17.871 13.4255 18.1389 13.7732L18.217 13.8744L18.3164 13.7941L18.9833 13.2559L19.0788 13.1788L19.0035 13.0819C18.6935 12.6832 18.3077 12.3498 17.8684 12.1007C17.4613 11.8699 17.0156 11.7157 16.5535 11.6456V10.4277V10.3027H16.4285H15.5714H15.4464V10.4277V11.6068C14.7023 11.6716 14.0738 11.9162 13.6228 12.3066C13.1464 12.7191 12.8749 13.2892 12.8749 13.96C12.8749 14.4839 12.9811 14.9003 13.1681 15.2319C13.3554 15.5639 13.6193 15.8031 13.9228 15.979C14.5196 16.3249 15.2804 16.4305 15.9313 16.5208L15.9428 16.5224C16.6468 16.6204 17.1658 16.7088 17.5121 16.9071C17.6804 17.0035 17.8039 17.1242 17.8869 17.2837C17.9707 17.4446 18.0178 17.654 18.0178 17.9342C18.0178 18.2363 17.9402 18.4668 17.8175 18.6448C17.6942 18.8239 17.5203 18.9573 17.3169 19.0557C16.9068 19.2543 16.3939 19.3027 15.9999 19.3027C15.276 19.3027 14.7732 19.2009 14.3844 19.0188C13.9969 18.8373 13.7119 18.5711 13.4306 18.2229L13.3521 18.1257L13.2548 18.2042L12.588 18.7425L12.4936 18.8187L12.5669 18.9153C12.9184 19.3785 13.3731 19.7534 13.8947 20.0102C14.3787 20.2485 14.9081 20.3791 15.4464 20.3936V21.5706V21.6956H15.5714H16.4285H16.5535V21.5706V20.3795C17.3193 20.2989 17.95 20.0471 18.3968 19.6441C18.868 19.2191 19.1249 18.6342 19.1249 17.9342C19.1249 17.4224 19.02 17.0152 18.8351 16.6908C18.65 16.3661 18.3891 16.132 18.0895 15.9598C17.5005 15.6214 16.7499 15.5171 16.1077 15.4279L16.0956 15.4262C15.3794 15.3267 14.8511 15.2364 14.4987 15.0311C14.3273 14.9313 14.201 14.8058 14.116 14.6392C14.0302 14.471 13.9821 14.2522 13.9821 13.96C13.9821 13.5011 14.2184 13.1911 14.5713 12.9894C14.9299 12.7845 15.4049 12.6956 15.8516 12.6956Z" fill="currentColor" fill-opacity="0.7" stroke="currentColor" stroke-width="0.25"/>
<path d="M21.2233 3.42773H7.96436C7.3215 3.42773 6.759 3.66126 6.35721 4.05047C5.95543 4.43968 5.71436 4.98457 5.71436 5.6073V26.391C5.71436 27.0138 5.95543 27.5586 6.35721 27.9479C6.759 28.3371 7.40186 28.5706 7.96436 28.5706H24.0358C24.6786 28.5706 25.2411 28.3371 25.6429 27.9479C26.0447 27.5586 26.2858 27.0138 26.2858 26.391V8.33176L21.2233 3.42773ZM24.4376 26.7802H7.56257V5.21809H20.4197V9.11018H24.4376V26.7802Z" fill="currentColor" fill-opacity="0.7"/>
</svg>
