<svg width="16" height="16" viewBox="0 0 16 16" fill="none" xmlns="http://www.w3.org/2000/svg">
<path d="M3.38478 1.3335C2.25401 1.3335 1.3335 2.25401 1.3335 3.38478V12.6155C1.3335 13.7463 2.25401 14.6668 3.38478 14.6668H10.0514C10.5966 14.6668 11.3535 13.8797 12.2309 12.9843C12.354 12.8591 12.472 12.7417 12.5997 12.6155C12.7258 12.4884 12.8591 12.354 12.9843 12.2309C13.8802 11.353 14.6668 10.5966 14.6668 10.0514V3.38478C14.6668 2.25401 13.7463 1.3335 12.6155 1.3335H3.38478ZM3.38478 2.35914H12.6155C12.8876 2.35914 13.1484 2.4672 13.3408 2.65954C13.5331 2.85189 13.6412 3.11276 13.6412 3.38478V10.0514C13.6412 10.5617 13.1273 10.5643 12.6155 10.5643H11.0771C10.7945 10.5643 10.5643 10.7945 10.5643 11.0771V12.6479C10.5643 13.1027 10.5653 13.5468 10.1955 13.6412H3.38478C3.11276 13.6412 2.85189 13.5331 2.65954 13.3408C2.4672 13.1484 2.35914 12.8876 2.35914 12.6155V3.38478C2.35914 3.11276 2.4672 2.85189 2.65954 2.65954C2.85189 2.4672 3.11276 2.35914 3.38478 2.35914ZM4.82734 5.43606C4.69133 5.44878 4.56595 5.515 4.47877 5.62017C4.39159 5.72533 4.34975 5.86082 4.36247 5.99683C4.37519 6.13284 4.44141 6.25822 4.54658 6.3454C4.65174 6.43258 4.78723 6.47442 4.92324 6.4617H11.0771C11.2131 6.4617 11.3435 6.40767 11.4397 6.3115C11.5359 6.21533 11.5899 6.08489 11.5899 5.94888C11.5899 5.81287 11.5359 5.68243 11.4397 5.58626C11.3435 5.49009 11.2131 5.43606 11.0771 5.43606H4.92324C4.90718 5.4353 4.89109 5.4353 4.87503 5.43606C4.85915 5.43532 4.84323 5.43532 4.82734 5.43606ZM4.82734 8.00016C4.76 8.00646 4.69455 8.02596 4.63474 8.05755C4.57494 8.08914 4.52193 8.1322 4.47877 8.18427C4.39159 8.28943 4.34975 8.42492 4.36247 8.56093C4.37519 8.69694 4.44141 8.82233 4.54658 8.90951C4.65174 8.99669 4.78723 9.03852 4.92324 9.0258H10.0514C10.1875 9.0258 10.3179 8.97178 10.4141 8.8756C10.5102 8.77943 10.5643 8.64899 10.5643 8.51298C10.5643 8.37698 10.5102 8.24654 10.4141 8.15036C10.3179 8.05419 10.1875 8.00016 10.0514 8.00016H4.92324C4.90718 7.99941 4.89109 7.99941 4.87503 8.00016C4.85915 7.99942 4.84323 7.99942 4.82734 8.00016Z" fill="currentColor"/>
</svg>
