<svg width="28" height="28" viewBox="0 0 28 28"  xmlns="http://www.w3.org/2000/svg">
<path d="M12.7857 17.2597C17.0292 17.9917 21.0759 21.9466 21.1202 21.9909C21.2077 22.0777 21.319 22.1365 21.44 22.1598C21.561 22.1832 21.6862 22.17 21.7997 22.122C21.9134 22.0737 22.0103 21.993 22.0784 21.8899C22.1465 21.7869 22.1827 21.666 22.1825 21.5425V15.8851C22.8413 15.8732 23.469 15.6032 23.9307 15.1331C24.3924 14.663 24.6511 14.0304 24.6511 13.3716C24.6511 12.7127 24.3924 12.0801 23.9307 11.61C23.469 11.1399 22.8413 10.8699 22.1825 10.858V5.20221C22.1827 5.07869 22.1465 4.95786 22.0784 4.85479C22.0103 4.75173 21.9134 4.671 21.7997 4.62269C21.6863 4.57488 21.5613 4.56182 21.4404 4.58517C21.3196 4.60852 21.2084 4.66722 21.121 4.75384C21.0718 4.8022 16.1619 9.60061 11.4857 9.60061H7.11431C6.16836 9.60198 5.25748 9.95887 4.56237 10.6005C3.86727 11.2421 3.43872 12.1215 3.36175 13.0643C3.28478 14.0072 3.56501 14.9445 4.14685 15.6903C4.72869 16.4362 5.56963 16.9361 6.50283 17.0908C6.6323 19.124 7.06381 21.1266 7.78317 23.0327C7.82943 23.1488 7.90946 23.2484 8.01292 23.3185C8.11638 23.3887 8.23851 23.4262 8.36351 23.4262H11.4832C11.5938 23.4259 11.7023 23.3962 11.7977 23.3402C11.893 23.2842 11.9718 23.2038 12.0258 23.1073C12.0803 23.0105 12.1084 22.901 12.1071 22.7899C12.1058 22.6788 12.0752 22.57 12.0185 22.4745C11.5164 21.5776 11.1046 20.633 10.7889 19.6548C10.5157 18.8405 10.3389 17.9971 10.2619 17.1417C11.1042 17.0505 11.9556 17.0903 12.7857 17.2597ZM4.61675 13.3728C4.61522 12.7084 4.87734 12.0706 5.34559 11.5993C5.81383 11.1279 6.44994 10.8616 7.11431 10.8588H10.8603V15.8851H7.11431C6.45023 15.8823 5.81437 15.6162 5.34617 15.1453C4.87797 14.6743 4.61566 14.0369 4.61675 13.3728ZM8.79712 22.1704C8.22851 20.5483 7.8779 18.8578 7.75448 17.1433H9.00859C9.18006 18.8923 9.66776 20.5957 10.448 22.1704H8.79712ZM20.9341 20.1474C18.562 18.1638 15.4046 16.2367 12.3349 15.9318C12.263 15.9037 12.1866 15.8892 12.1094 15.8892V10.8359C15.2619 10.6039 18.5128 8.62273 20.9341 6.60058V20.1474ZM22.1825 14.6326V12.1146C22.5159 12.1146 22.8356 12.247 23.0713 12.4827C23.307 12.7185 23.4395 13.0382 23.4395 13.3716C23.4395 13.7049 23.307 14.0246 23.0713 14.2604C22.8356 14.4961 22.5159 14.6285 22.1825 14.6285V14.6326Z" />
</svg>
