<svg width="34" height="34" viewBox="0 0 34 34" fill="none" xmlns="http://www.w3.org/2000/svg">
<path d="M32.1078 33.2686H2.36532C1.94197 33.2686 1.53596 33.1004 1.2366 32.801C0.937248 32.5017 0.769069 32.0957 0.769069 31.6723V1.92981C0.763961 1.77419 0.790203 1.61914 0.846231 1.47386C0.902259 1.32859 0.986928 1.19606 1.09521 1.08417C1.20349 0.972282 1.33316 0.883309 1.47652 0.822546C1.61988 0.761783 1.77399 0.730469 1.9297 0.730469C2.0854 0.730469 2.23951 0.761783 2.38287 0.822546C2.52623 0.883309 2.6559 0.972282 2.76418 1.08417C2.87246 1.19606 2.95713 1.32859 3.01315 1.47386C3.06918 1.61914 3.09542 1.77419 3.09032 1.92981V30.9473H32.1078C32.409 30.9572 32.6946 31.0838 32.9042 31.3004C33.1138 31.517 33.231 31.8066 33.231 32.1079C33.231 32.4093 33.1138 32.6989 32.9042 32.9155C32.6946 33.1321 32.409 33.2587 32.1078 33.2686Z" fill="url(#paint0_linear)"/>
<path d="M7.86801 28.2922C7.71547 28.2924 7.56439 28.2625 7.42343 28.2042C7.28246 28.1459 7.15438 28.0603 7.04652 27.9525C6.93865 27.8446 6.85312 27.7165 6.79482 27.5756C6.73652 27.4346 6.7066 27.2835 6.70676 27.131V16.4672C6.70165 16.3116 6.7279 16.1565 6.78393 16.0113C6.83996 15.866 6.92462 15.7335 7.0329 15.6216C7.14118 15.5097 7.27086 15.4207 7.41421 15.36C7.55757 15.2992 7.7117 15.2679 7.8674 15.2679C8.0231 15.2679 8.17721 15.2992 8.32057 15.36C8.46393 15.4207 8.59361 15.5097 8.70188 15.6216C8.81016 15.7335 8.89482 15.866 8.95085 16.0113C9.00688 16.1565 9.03313 16.3116 9.02802 16.4672V27.131C9.02819 27.2834 8.9983 27.4344 8.94007 27.5753C8.88185 27.7161 8.79644 27.8442 8.6887 27.952C8.58097 28.0599 8.45303 28.1454 8.31221 28.2038C8.17139 28.2622 8.02045 28.2922 7.86801 28.2922ZM22.4018 28.2922C22.2492 28.2924 22.0981 28.2625 21.9572 28.2042C21.8162 28.1459 21.6881 28.0603 21.5803 27.9525C21.4724 27.8446 21.3869 27.7165 21.3286 27.5756C21.2703 27.4346 21.2404 27.2835 21.2405 27.131V20.256C21.2354 20.1004 21.2617 19.9453 21.3177 19.8C21.3737 19.6547 21.4584 19.5222 21.5667 19.4103C21.6749 19.2984 21.8046 19.2095 21.948 19.1487C22.0913 19.0879 22.2454 19.0566 22.4011 19.0566C22.5569 19.0566 22.711 19.0879 22.8543 19.1487C22.9977 19.2095 23.1274 19.2984 23.2356 19.4103C23.3439 19.5222 23.4286 19.6547 23.4846 19.8C23.5406 19.9453 23.5669 20.1004 23.5618 20.256V27.131C23.5618 27.4387 23.4396 27.7339 23.2221 27.9517C23.0046 28.1694 22.7095 28.2919 22.4018 28.2922ZM15.133 28.2922C14.9805 28.2924 14.8294 28.2625 14.6884 28.2042C14.5475 28.1459 14.4194 28.0603 14.3115 27.9525C14.2037 27.8446 14.1181 27.7165 14.0598 27.5756C14.0015 27.4346 13.9716 27.2835 13.9718 27.131V13.381C13.9817 13.0797 14.1083 12.7942 14.3248 12.5846C14.5414 12.375 14.831 12.2578 15.1324 12.2578C15.4338 12.2578 15.7234 12.375 15.9399 12.5846C16.1565 12.7942 16.2831 13.0797 16.293 13.381V27.131C16.2932 27.2834 16.2633 27.4344 16.2051 27.5753C16.1468 27.7161 16.0614 27.8442 15.9537 27.952C15.846 28.0599 15.718 28.1454 15.5772 28.2038C15.4364 28.2622 15.2855 28.2922 15.133 28.2922ZM29.6668 28.2922C29.5142 28.2924 29.3632 28.2625 29.2222 28.2042C29.0812 28.1459 28.9531 28.0603 28.8453 27.9525C28.7374 27.8446 28.6519 27.7165 28.5936 27.5756C28.5353 27.4346 28.5054 27.2835 28.5055 27.131V16.4672C28.5154 16.166 28.642 15.8804 28.8586 15.6708C29.0752 15.4612 29.3648 15.3441 29.6661 15.3441C29.9675 15.3441 30.2571 15.4612 30.4737 15.6708C30.6903 15.8804 30.8169 16.166 30.8268 16.4672V27.131C30.8269 27.2834 30.797 27.4344 30.7388 27.5753C30.6806 27.7161 30.5952 27.8442 30.4874 27.952C30.3797 28.0599 30.2518 28.1454 30.111 28.2038C29.9702 28.2622 29.8192 28.2922 29.6668 28.2922Z" fill="url(#paint1_linear)"/>
<defs>
<linearGradient id="paint0_linear" x1="16.9997" y1="0.730469" x2="16.9997" y2="33.2686" gradientUnits="userSpaceOnUse">
<stop stop-color="#66E6D6"/>
<stop offset="1" stop-color="#27A394"/>
</linearGradient>
<linearGradient id="paint1_linear" x1="18.7665" y1="12.2578" x2="18.7665" y2="28.2922" gradientUnits="userSpaceOnUse">
<stop stop-color="#66E6D6"/>
<stop offset="1" stop-color="#27A394"/>
</linearGradient>
</defs>
</svg>
