<svg width="22" height="22" viewBox="0 0 22 22" fill="none" xmlns="http://www.w3.org/2000/svg">
<path d="M16.5 20.487H6.3938C5.73121 20.4834 5.09678 20.2186 4.62825 19.75C4.15972 19.2815 3.89491 18.6471 3.8913 17.9845V3.80824C3.89129 3.14327 4.1545 2.50532 4.62342 2.03383C5.09234 1.56233 5.72883 1.29563 6.3938 1.29199H13.4888C13.6188 1.2953 13.7423 1.34963 13.8325 1.44324L18.8925 6.50324C18.9811 6.59573 19.0304 6.71894 19.03 6.84699V17.9845C19.0282 18.3149 18.9614 18.6418 18.8333 18.9464C18.7051 19.251 18.5183 19.5274 18.2833 19.7597C18.0484 19.9921 17.77 20.1759 17.464 20.3007C17.158 20.4255 16.8305 20.4888 16.5 20.487ZM6.3938 2.25449C5.9841 2.25812 5.59242 2.42342 5.30401 2.71441C5.01559 3.0054 4.85378 3.39853 4.8538 3.80824V17.9845C4.8538 18.3929 5.01605 18.7846 5.30485 19.0734C5.59366 19.3622 5.98536 19.5245 6.3938 19.5245H16.5C16.9085 19.5245 17.3002 19.3622 17.589 19.0734C17.8778 18.7846 18.04 18.3929 18.04 17.9845V6.98449L13.2825 2.25449H6.3938Z" fill="#EA4335"/>
<path d="M18.5488 7.32824H14.4238C14.0396 7.31046 13.6773 7.1443 13.4131 6.86476C13.1489 6.58521 13.0036 6.21408 13.0075 5.82949V1.77324C13.0075 1.64561 13.0582 1.5232 13.1485 1.43295C13.2387 1.3427 13.3611 1.29199 13.4888 1.29199C13.6164 1.29199 13.7388 1.3427 13.8291 1.43295C13.9193 1.5232 13.97 1.64561 13.97 1.77324V5.89824C13.97 6.03811 14.0246 6.17247 14.1222 6.27265C14.2198 6.37283 14.3527 6.43091 14.4925 6.43449H18.6175C18.7452 6.43449 18.8676 6.4852 18.9578 6.57545C19.0481 6.6657 19.0988 6.78811 19.0988 6.91574C19.0904 6.97921 19.0694 7.04037 19.037 7.09563C19.0047 7.15088 18.9617 7.19913 18.9104 7.23755C18.8592 7.27596 18.8009 7.30377 18.7388 7.31934C18.6766 7.33492 18.6121 7.33794 18.5488 7.32824Z" fill="#EA4335"/>
<path d="M16.0189 13.392C15.4964 12.8833 13.9976 13.0208 13.2689 13.117C12.5166 12.6638 11.951 11.9567 11.6739 11.1233C11.9335 10.3493 12.0134 9.52645 11.9076 8.71703C11.8863 8.50486 11.7941 8.30608 11.6459 8.15274C11.4977 7.9994 11.3022 7.90045 11.0909 7.87185C10.8796 7.84326 10.6648 7.88668 10.4812 7.99511C10.2976 8.10354 10.1559 8.27067 10.0789 8.46953C9.94221 9.43775 10.0461 10.4247 10.3814 11.3433C9.94139 12.3745 9.30889 13.7495 8.85514 14.547C7.98889 14.987 6.87514 15.6745 6.66889 16.4995C6.46264 17.3245 7.78264 18.8783 9.92764 15.1245C10.8865 14.7658 11.8699 14.4763 12.8701 14.2583C13.6077 14.6779 14.4299 14.9269 15.2764 14.987C15.4579 14.9796 15.6339 14.9224 15.7851 14.8216C15.9362 14.7208 16.0567 14.5804 16.1334 14.4157C16.2101 14.251 16.24 14.0683 16.2198 13.8878C16.1996 13.7072 16.1301 13.5357 16.0189 13.392ZM7.50764 16.7333C7.86192 16.1474 8.32934 15.6379 8.88264 15.2345C8.04389 16.4995 7.56264 16.7333 7.50764 16.7333ZM11.0001 8.55203C11.3164 8.55203 11.2889 9.92703 11.0826 10.2983C10.9087 9.73239 10.8804 9.13179 11.0001 8.55203ZM9.95514 14.4233C10.3595 13.6656 10.7087 12.8799 11.0001 12.072C11.3426 12.6743 11.8117 13.1951 12.3751 13.5983C11.548 13.794 10.7421 14.0703 9.96889 14.4233H9.95514ZM15.6064 14.2033C15.6064 14.2033 15.4001 14.4645 14.0114 13.8733C15.5239 13.7495 15.7714 14.0933 15.6201 14.2033H15.6064Z" fill="#EA4335"/>
</svg>
