<svg xmlns="http://www.w3.org/2000/svg" width="17.39" height="17.377" viewBox="0 0 17.39 17.377">
  <path id="Header_Edit" data-name="Header Edit" d="M17.552,1.875a2.848,2.848,0,0,0-4.009,0L2.189,13.229a.017.017,0,0,1-.018.018l-.018.018a.134.134,0,0,0-.035.071.017.017,0,0,1-.018.018v.018L1,18.036v.089a.225.225,0,0,0,.018.106.017.017,0,0,0,.018.018.388.388,0,0,0,.053.089.371.371,0,0,0,.106.071.263.263,0,0,0,.124.018H1.39l4.666-1.118a.017.017,0,0,0,.018-.018c.018,0,.018,0,.035-.018s.035-.018.071-.035L6.2,17.22h0L17.552,5.866A2.8,2.8,0,0,0,17.552,1.875ZM5.7,16.741l-3.371.8.231-.231a.314.314,0,1,0-.444-.444l-.231.231.8-3.371,1.384-.16L3.892,15.18v.106c0,.018.018.035.018.053s.018.035.035.053.018.035.035.035c.018.018.035.035.053.035a.055.055,0,0,0,.035.018c.018.018.035.018.071.018.018,0,.018.018.035.018h.071l1.614-.177Zm9.846-9.757h0l-.444.444h0l-8.71,8.71.089-.852L5.914,14.7l-1.366.16.16-1.4-.514-.532-.9.106L11.68,4.642,12,4.323l.444-.444.231-.231.213-.213,3.122,3.1Zm.9-.887L13.33,2.975l.444-.444L16.9,5.654Zm.869-.9L14.234,2.106a2.207,2.207,0,0,1,3.087,3.087Z" transform="translate(-1 -1.05)"/>
</svg>
