<svg width="16" height="17" viewBox="0 0 16 17" fill="none" xmlns="http://www.w3.org/2000/svg">
<path d="M9.1679 8.20161C9.82643 7.93238 10.3675 7.45421 10.6996 6.84792C11.0317 6.24163 11.1345 5.5444 10.9907 4.87405C10.8468 4.20371 10.4651 3.60136 9.9101 3.1688C9.35507 2.73624 8.66073 2.5 7.94442 2.5C7.22812 2.5 6.53378 2.73624 5.97875 3.1688C5.42371 3.60136 5.04202 4.20371 4.89818 4.87405C4.75433 5.5444 4.85715 6.24163 5.18926 6.84792C5.52138 7.45421 6.06242 7.93238 6.72094 8.20161C5.506 8.48339 4.42704 9.15053 3.66042 10.094C2.89379 11.0375 2.48485 12.2015 2.50043 13.3957V14.2793C2.50328 14.3356 2.52736 14.3889 2.56821 14.4295C2.60906 14.47 2.66391 14.4951 2.72261 14.5H13.2778C13.3365 14.4951 13.3914 14.47 13.4322 14.4295C13.4731 14.3889 13.4971 14.3356 13.5 14.2793V13.3957C13.4715 12.1967 13.0326 11.0397 12.2504 10.1017C11.4682 9.16361 10.3858 8.49622 9.16888 8.20161H9.1679ZM5.61394 5.43859C5.60471 4.83635 5.84443 4.25492 6.28108 3.82045C6.71774 3.38599 7.31611 3.13352 7.94638 3.11783C8.57657 3.13376 9.17479 3.3863 9.61139 3.82072C10.048 4.25513 10.2878 4.83642 10.2788 5.43859C10.2927 5.73909 10.2426 6.03916 10.1316 6.32063C10.0206 6.60209 9.85086 6.8591 9.63279 7.07608C9.41472 7.29305 9.15281 7.46549 8.86294 7.58293C8.57306 7.70038 8.26125 7.76039 7.94638 7.75934C7.31628 7.74317 6.7182 7.49055 6.28165 7.05619C5.8451 6.62183 5.60522 6.04068 5.61394 5.43859ZM12.6113 13.7267H3.2815V13.3948C3.26457 12.1907 3.74451 11.0287 4.6175 10.1601C5.49049 9.29148 6.68635 8.7861 7.94638 8.75328C9.20642 8.7861 10.4023 9.29148 11.2753 10.1601C12.1483 11.0287 12.6282 12.1907 12.6113 13.3948V13.7267Z" fill="#363636"/>
</svg>
