<!-- <?xml version="1.0" encoding="utf-8"?>
Generator: Adobe Illustrator 22.0.1, SVG Export Plug-In . SVG Version: 6.00 Build 0) 
<svg version="1.1" id="Capa_1" xmlns="http://www.w3.org/2000/svg" xmlns:xlink="http://www.w3.org/1999/xlink" x="0px" y="0px"
	 viewBox="0 0 100 100" style="enable-background:new 0 0 100 100;" xml:space="preserve">
<style type="text/css">
	.st0{fill:#363636;}
</style>
<g>
	<path class="st0" d="M25.7,27.5c-4.3,0-7.8,3.5-7.8,7.8s3.5,7.8,7.8,7.8c4.3,0,7.8-3.5,7.8-7.8S30,27.5,25.7,27.5z M25.7,39.1
		c-2.1,0-3.9-1.7-3.9-3.9c0-2.1,1.7-3.9,3.9-3.9s3.9,1.7,3.9,3.9C29.5,37.4,27.8,39.1,25.7,39.1z"/>
	<path class="st0" d="M15.5,67.8l11.3-11.3c0,0,4.1-5.2,8.5,0s4.4,5.2,4.4,5.2s1.1,2.2,2.7,0c1.6-2.2,15.9-18.6,15.9-18.6
		s3.9-5.4,8.4,0s20,24.7,20,24.7s0.8,1.1-1.1,2.8c0,0-0.9,1.3-2.7,0C81.2,69.4,64,46.7,64,46.7s-1.7-2.2-3.6,0
		c-1.9,2.2-16.7,20.5-16.7,20.5s-3,2.2-5,0c-2.2-2.7-5.2-6.9-5.2-6.9s-2-2.4-3.9-0.2S19.3,71.2,19.3,71.2s-1.7,1.2-3,0
		C15.2,70,13.8,69.6,15.5,67.8z"/>
	<path class="st0" d="M84.2,12.8H15.8C7.7,12.8,1,19.5,1,27.6v45.5C1,81.3,7.7,88,15.8,88h68.4C92.3,88,99,81.3,99,73.2V27.6
		C99,19.5,92.3,12.8,84.2,12.8z M94.1,72.9c0,5.7-4.7,10.4-10.4,10.4H16.3c-5.7,0-10.4-4.7-10.4-10.4V28c0-5.7,4.7-10.4,10.4-10.4
		h67.4c5.7,0,10.4,4.7,10.4,10.4V72.9z"/>
</g>
</svg> -->

<svg xmlns="http://www.w3.org/2000/svg" width="22" height="16.882" viewBox="0 0 22 16.882">
  <g id="Post_Picture" data-name="Post Picture" transform="translate(-1 -12.8)">
    <path id="Path_312" data-name="Path 312" d="M19.651,27.5A1.751,1.751,0,1,0,21.4,29.251,1.753,1.753,0,0,0,19.651,27.5Zm0,2.6a.876.876,0,0,1,0-1.751.863.863,0,0,1,.876.876A.891.891,0,0,1,19.651,30.1Z" transform="translate(-13.106 -11.4)" fill="#363636"/>
    <path id="Path_313" data-name="Path 313" d="M14.885,46.784l2.537-2.537a1.162,1.162,0,0,1,1.908,0l.988,1.167s.247.494.606,0,3.569-4.176,3.569-4.176a1.114,1.114,0,0,1,1.886,0c1.01,1.212,4.49,5.545,4.49,5.545s.18.247-.247.629c0,0-.2.292-.606,0-.382-.269-4.243-5.365-4.243-5.365a.491.491,0,0,0-.808,0c-.427.494-3.749,4.6-3.749,4.6s-.673.494-1.122,0c-.494-.606-1.167-1.549-1.167-1.549s-.449-.539-.876-.045-2.312,2.492-2.312,2.492a.563.563,0,0,1-.673,0C14.818,47.278,14.5,47.188,14.885,46.784Z" transform="translate(-10.63 -21.637)" fill="#363636"/>
    <path id="Path_314" data-name="Path 314" d="M19.678,12.8H4.322A3.344,3.344,0,0,0,1,16.122V26.337a3.349,3.349,0,0,0,3.322,3.345H19.678A3.344,3.344,0,0,0,23,26.359V16.122A3.344,3.344,0,0,0,19.678,12.8ZM21.9,26.292a2.347,2.347,0,0,1-2.335,2.335H4.435A2.347,2.347,0,0,1,2.1,26.292V16.212a2.347,2.347,0,0,1,2.335-2.335H19.565A2.347,2.347,0,0,1,21.9,16.212Z" fill="#363636"/>
  </g>
</svg>
