<svg width="16" height="16" viewBox="0 0 16 16" fill="none" xmlns="http://www.w3.org/2000/svg">
<path d="M8.00016 2.00016C8.00016 1.82335 7.92992 1.65378 7.8049 1.52876C7.67988 1.40373 7.51031 1.3335 7.3335 1.3335C7.15669 1.3335 6.98712 1.40373 6.86209 1.52876C6.73707 1.65378 6.66683 1.82335 6.66683 2.00016V6.66683H2.00016C1.82335 6.66683 1.65378 6.73707 1.52876 6.86209C1.40373 6.98712 1.3335 7.15669 1.3335 7.3335C1.3335 7.51031 1.40373 7.67988 1.52876 7.8049C1.65378 7.92992 1.82335 8.00016 2.00016 8.00016H6.66683V12.6668C6.66683 12.8436 6.73707 13.0132 6.86209 13.1382C6.98712 13.2633 7.15669 13.3335 7.3335 13.3335C7.51031 13.3335 7.67988 13.2633 7.8049 13.1382C7.92992 13.0132 8.00016 12.8436 8.00016 12.6668V8.00016H12.6668C12.8436 8.00016 13.0132 7.92992 13.1382 7.8049C13.2633 7.67988 13.3335 7.51031 13.3335 7.3335C13.3335 7.15669 13.2633 6.98712 13.1382 6.86209C13.0132 6.73707 12.8436 6.66683 12.6668 6.66683H8.00016V2.00016Z" fill="currentColor"/>
</svg>
