<svg width="32" height="32" viewBox="0 0 32 32" fill="none" xmlns="http://www.w3.org/2000/svg">
<path d="M28.25 9.11021L24.88 4.11021C24.7268 3.87617 24.5176 3.68407 24.2714 3.55135C24.0252 3.41864 23.7497 3.3495 23.47 3.35021H8.53999C8.25842 3.3469 7.98058 3.41484 7.73231 3.54772C7.48405 3.68059 7.27341 3.87409 7.11999 4.11021L3.74999 9.11021C3.45618 9.55529 3.29969 10.0769 3.29999 10.6102V27.0002C3.29999 27.4511 3.47909 27.8835 3.79791 28.2023C4.11672 28.5211 4.54912 28.7002 4.99999 28.7002H27C27.4509 28.7002 27.8833 28.5211 28.2021 28.2023C28.5209 27.8835 28.7 27.4511 28.7 27.0002V10.6102C28.7003 10.0769 28.5438 9.55529 28.25 9.11021ZM13.35 9.30021L14.24 4.70021H17.76L18.65 9.30021H13.35ZM12 17.4902C12.0648 17.5572 12.1426 17.6103 12.2285 17.6464C12.3144 17.6825 12.4068 17.7008 12.5 17.7002C12.6224 17.7 12.7427 17.6691 12.85 17.6102L16 15.8102L19.15 17.6102C19.2573 17.6691 19.3776 17.7 19.5 17.7002C19.6233 17.6999 19.7444 17.6674 19.8514 17.606C19.9583 17.5447 20.0475 17.4565 20.11 17.3502C20.1688 17.2429 20.1998 17.1226 20.2 17.0002V10.7002H27.3V27.0002C27.3014 27.04 27.2946 27.0796 27.28 27.1167C27.2654 27.1537 27.2434 27.1873 27.2152 27.2155C27.1871 27.2436 27.1535 27.2656 27.1164 27.2802C27.0794 27.2948 27.0398 27.3016 27 27.3002H4.99999C4.96022 27.3016 4.92058 27.2948 4.88355 27.2802C4.84652 27.2656 4.81289 27.2436 4.78475 27.2155C4.75661 27.1873 4.73456 27.1537 4.71998 27.1167C4.7054 27.0796 4.69859 27.04 4.69999 27.0002V10.7002H11.8V17.0002C11.7989 17.0911 11.816 17.1813 11.8504 17.2655C11.8847 17.3496 11.9356 17.4261 12 17.4902ZM12.82 4.70021L11.92 9.30021H5.30999L8.30999 4.83021C8.33783 4.78973 8.37518 4.7567 8.41878 4.73404C8.46237 4.71137 8.51086 4.69975 8.55999 4.70021H12.82ZM18.82 15.7902L16.37 14.3902C16.2627 14.3316 16.1423 14.3008 16.02 14.3008C15.8977 14.3008 15.7773 14.3316 15.67 14.3902L13.22 15.7902V10.7002H18.82V15.7902ZM20.08 9.30021L19.18 4.70021H23.46C23.5093 4.69884 23.5581 4.71006 23.6018 4.73281C23.6456 4.75556 23.6828 4.78908 23.71 4.83021L26.71 9.30021H20.08Z" fill="currentColor"/>
</svg>
