<?xml version="1.0" encoding="utf-8"?>
<!-- Generator: Adobe Illustrator 24.2.0, SVG Export Plug-In . SVG Version: 6.00 Build 0)  -->
<svg version="1.1" id="Layer_1" xmlns="http://www.w3.org/2000/svg" xmlns:xlink="http://www.w3.org/1999/xlink" x="0px" y="0px"
	 viewBox="0 0 40 40" style="enable-background:new 0 0 40 40;" xml:space="preserve">
<style type="text/css">
	.st0{fill:url(#SVGID_1_);}
	.st1{fill:#FFFFFF;}
</style>
<linearGradient id="SVGID_1_" gradientUnits="userSpaceOnUse" x1="20" y1="42" x2="20" y2="2" gradientTransform="matrix(1 0 0 -1 0 42)">
	<stop  offset="0" style="stop-color:#8EA1E3"/>
	<stop  offset="1" style="stop-color:#395498"/>
</linearGradient>
<path class="st0" d="M4,0h32c2.2,0,4,1.8,4,4v32c0,2.2-1.8,4-4,4H4c-2.2,0-4-1.8-4-4V4C0,1.8,1.8,0,4,0z"/>
<path class="st1" d="M30.8,13.9l-3-4.4c-0.3-0.4-0.7-0.7-1.2-0.7h0H13.4c-0.5,0-1,0.2-1.2,0.7l-3,4.4c-0.3,0.4-0.4,0.8-0.4,1.3v14.4
	c0,0.8,0.7,1.5,1.5,1.5h19.4c0.8,0,1.5-0.7,1.5-1.5V15.3C31.2,14.8,31,14.3,30.8,13.9z M17.6,14.1l0.8-4.1h3.1l0.8,4.1H17.6z
	 M16.9,21.5c0.1,0,0.2,0,0.3-0.1l2.8-1.6l2.8,1.6c0.1,0.1,0.2,0.1,0.3,0.1c0.2,0,0.4-0.1,0.5-0.3c0.1-0.1,0.1-0.2,0.1-0.3v-5.6H30
	v14.4c0,0.2-0.1,0.3-0.3,0.3H10.3c-0.2,0-0.3-0.1-0.3-0.3V15.3h6.3v5.6C16.3,21.2,16.6,21.5,16.9,21.5z M22.5,19.8l-2.2-1.2
	c-0.1-0.1-0.2-0.1-0.3-0.1s-0.2,0-0.3,0.1l-2.2,1.2v-4.5h5V19.8z M23.6,14.1L22.8,10h3.8c0.1,0,0.2,0,0.2,0.1l0,0l2.6,4H23.6z
	 M10.6,14.1l2.6-4c0.1-0.1,0.1-0.1,0.2-0.1h3.8l-0.8,4.1H10.6z"/>
</svg>