<svg width="32" height="32" viewBox="0 0 32 32" fill="none" xmlns="http://www.w3.org/2000/svg">
<path d="M29.9951 16.5411C29.9997 16.5101 29.9997 16.4786 29.9951 16.4476C30.0016 16.4077 30.0016 16.3672 29.9951 16.3273L28.8195 14.0962C28.7721 14.0037 28.6985 13.9258 28.6069 13.8715C28.5153 13.8171 28.4095 13.7885 28.3017 13.7889H21.8359V8.76553C21.8445 8.74403 21.8445 8.72024 21.8359 8.69873C21.8485 8.64597 21.8485 8.59118 21.8359 8.53841L20.6743 6.30728C20.6233 6.21471 20.5469 6.13717 20.4532 6.08302C20.3594 6.02887 20.252 6.00016 20.1425 6H11.9133C11.8055 5.9996 11.6997 6.02821 11.6081 6.08256C11.5165 6.1369 11.4428 6.21479 11.3955 6.30728L10.2339 8.52505C10.2273 8.55141 10.2273 8.57886 10.2339 8.60521C10.2274 8.64953 10.2274 8.6945 10.2339 8.73881V12.6667H3.7541C3.64626 12.6663 3.54048 12.6949 3.44889 12.7492C3.35731 12.8036 3.28362 12.8815 3.23627 12.9739L2.0047 15.2051C2.0047 15.2051 2.0047 15.2719 2.0047 15.312C1.99843 15.3473 1.99843 15.3835 2.0047 15.4188V25.4389C2.0047 25.5877 2.06663 25.7304 2.17686 25.8357C2.28709 25.9409 2.4366 26 2.5925 26H29.4073C29.5632 26 29.7127 25.9409 29.8229 25.8357C29.9332 25.7304 29.9951 25.5877 29.9951 25.4389V16.5411ZM21.8359 14.8978H27.8818L28.4696 16.0067H21.8359V14.8978ZM12.2772 7.09553H19.7226L20.2964 8.21777H11.6894L12.2772 7.09553ZM4.11797 13.7756H10.1639V14.8978H3.53017L4.11797 13.7756ZM28.8335 24.9178H3.1663V16.0067H10.7517C10.9076 16.0067 11.0571 15.9476 11.1673 15.8423C11.2776 15.7371 11.3395 15.5944 11.3395 15.4456V9.32666H20.6603V14.3367V16.5678C20.6603 16.6409 20.6756 16.7132 20.7053 16.7806C20.735 16.8479 20.7785 16.9089 20.8333 16.9599C20.888 17.011 20.953 17.051 21.0242 17.0778C21.0954 17.1045 21.1716 17.1173 21.2481 17.1156H28.8335V24.9178Z" fill="currentColor"/>
<path d="M16.7733 11.6011C16.6711 11.5561 16.5575 11.5434 16.4478 11.5649C16.3382 11.5863 16.2377 11.6409 16.16 11.7211L15.0533 12.8278C14.9681 12.9355 14.9254 13.0707 14.9333 13.2078C14.9412 13.3449 14.9993 13.4743 15.0964 13.5714C15.1935 13.6685 15.3229 13.7266 15.46 13.7345C15.5971 13.7424 15.7323 13.6997 15.84 13.6145L16 13.4545V17.6678C16 17.8163 16.059 17.9588 16.164 18.0638C16.269 18.1688 16.4115 18.2278 16.56 18.2278C16.6329 18.2278 16.7051 18.2133 16.7723 18.185C16.8395 18.1567 16.9004 18.1152 16.9513 18.063C17.0023 18.0108 17.0423 17.949 17.0689 17.8811C17.0956 17.8132 17.1084 17.7407 17.1067 17.6678V12.1078C17.1073 11.9999 17.076 11.8942 17.0167 11.804C16.9574 11.7139 16.8727 11.6433 16.7733 11.6011Z" fill="currentColor"/>
<path d="M24.8934 22.6666C24.8198 22.6666 24.747 22.6521 24.679 22.6239C24.6111 22.5958 24.5494 22.5545 24.4974 22.5025C24.4454 22.4505 24.4041 22.3888 24.376 22.3209C24.3478 22.2529 24.3334 22.1801 24.3334 22.1066C24.3334 22.0336 24.3188 21.9614 24.2905 21.8942C24.2622 21.827 24.2207 21.7662 24.1686 21.7152C24.1164 21.6643 24.0545 21.6243 23.9866 21.5976C23.9188 21.5709 23.8463 21.5581 23.7734 21.5599C23.6284 21.5599 23.4893 21.6175 23.3868 21.72C23.2843 21.8225 23.2267 21.9616 23.2267 22.1066C23.2267 22.5486 23.4023 22.9725 23.7148 23.2851C24.0274 23.5976 24.4513 23.7732 24.8934 23.7732C25.3354 23.7732 25.7593 23.5976 26.0719 23.2851C26.3844 22.9725 26.56 22.5486 26.56 22.1066C26.5608 21.6974 26.4087 21.3026 26.1334 20.9999C26.4087 20.6972 26.5608 20.3024 26.56 19.8932C26.56 19.4512 26.3844 19.0273 26.0719 18.7147C25.7593 18.4022 25.3354 18.2266 24.8934 18.2266C24.4513 18.2266 24.0274 18.4022 23.7148 18.7147C23.4023 19.0273 23.2267 19.4512 23.2267 19.8932C23.2267 20.0382 23.2843 20.1773 23.3868 20.2798C23.4893 20.3823 23.6284 20.4399 23.7734 20.4399C23.8463 20.4417 23.9188 20.4288 23.9866 20.4022C24.0545 20.3755 24.1164 20.3355 24.1686 20.2846C24.2207 20.2336 24.2622 20.1728 24.2905 20.1056C24.3188 20.0383 24.3334 19.9662 24.3334 19.8932C24.3334 19.8197 24.3478 19.7469 24.376 19.6789C24.4041 19.611 24.4454 19.5493 24.4974 19.4972C24.5494 19.4452 24.6111 19.404 24.679 19.3759C24.747 19.3477 24.8198 19.3332 24.8934 19.3332C24.9663 19.3332 25.0385 19.3478 25.1057 19.3761C25.1729 19.4044 25.2338 19.4458 25.2847 19.498C25.3356 19.5502 25.3756 19.6121 25.4023 19.6799C25.429 19.7478 25.4418 19.8203 25.44 19.8932C25.44 20.0382 25.3824 20.1773 25.2799 20.2798C25.1774 20.3823 25.0383 20.4399 24.8934 20.4399C24.7448 20.4399 24.6024 20.4989 24.4974 20.6039C24.3923 20.7089 24.3334 20.8514 24.3334 20.9999C24.3334 21.1484 24.3923 21.2909 24.4974 21.3959C24.6024 21.5009 24.7448 21.5599 24.8934 21.5599C25.0383 21.5599 25.1774 21.6175 25.2799 21.72C25.3824 21.8225 25.44 21.9616 25.44 22.1066C25.4418 22.1795 25.429 22.252 25.4023 22.3199C25.3756 22.3877 25.3356 22.4496 25.2847 22.5018C25.2338 22.5539 25.1729 22.5954 25.1057 22.6237C25.0385 22.652 24.9663 22.6666 24.8934 22.6666Z" fill="currentColor"/>
<path d="M8.77334 18.7741C8.77334 18.3321 8.59774 17.9081 8.28518 17.5956C7.97262 17.283 7.5487 17.1074 7.10667 17.1074C6.66464 17.1074 6.24072 17.283 5.92816 17.5956C5.6156 17.9081 5.44 18.3321 5.44 18.7741C5.44 18.9226 5.499 19.065 5.60402 19.1701C5.70904 19.2751 5.85148 19.3341 6 19.3341C6.14852 19.3341 6.29096 19.2751 6.39598 19.1701C6.501 19.065 6.56 18.9226 6.56 18.7741C6.56 18.6291 6.6176 18.4901 6.72012 18.3875C6.82264 18.285 6.96168 18.2274 7.10667 18.2274C7.17957 18.2256 7.2521 18.2385 7.31997 18.2651C7.38784 18.2918 7.44969 18.3318 7.50187 18.3827C7.55405 18.4337 7.59552 18.4946 7.62382 18.5618C7.65212 18.629 7.66669 18.7012 7.66667 18.7741C7.66692 19.0542 7.61167 19.3315 7.5041 19.5901C7.39654 19.8487 7.23881 20.0835 7.04 20.2808L5.6 21.7208C5.52673 21.8 5.47676 21.898 5.45558 22.0039C5.43441 22.1097 5.44286 22.2194 5.48 22.3208C5.52241 22.4237 5.59452 22.5116 5.68715 22.5734C5.77977 22.6351 5.88869 22.6679 6 22.6674H8.22667C8.29959 22.6674 8.37179 22.6529 8.439 22.6246C8.5062 22.5963 8.56707 22.5548 8.61801 22.5026C8.66895 22.4504 8.70894 22.3886 8.73561 22.3207C8.76229 22.2528 8.77511 22.1803 8.77334 22.1074C8.77334 21.9624 8.71574 21.8234 8.61322 21.7209C8.5107 21.6184 8.37165 21.5608 8.22667 21.5608H7.34667L7.82667 21.0674C8.12858 20.767 8.36775 20.4095 8.53026 20.0158C8.69278 19.6221 8.77541 19.2 8.77334 18.7741Z" fill="currentColor"/>
</svg>