<svg xmlns="http://www.w3.org/2000/svg" width="15" height="17" viewBox="0 0 15 17">
  <g id="Vector_Smart_Object" data-name="Vector Smart Object" transform="translate(0.395 5.026)">
    <path id="Color_Overlay" data-name="Color Overlay" d="M2.874,17a2.246,2.246,0,0,1-2.3-2.185V5.484a.562.562,0,0,1,.577-.548.563.563,0,0,1,.577.548v9.331A1.117,1.117,0,0,0,2.873,15.9h9.251a1.116,1.116,0,0,0,1.142-1.087V5.484a.577.577,0,0,1,1.153,0v9.331A2.246,2.246,0,0,1,12.122,17Zm5.779-4.388V7.13a.577.577,0,0,1,1.153,0v5.482a.577.577,0,0,1-1.153,0Zm-3.46,0V7.13a.577.577,0,0,1,1.153,0v5.482a.577.577,0,0,1-1.153,0ZM.579,3.839a.549.549,0,1,1,0-1.1H14.421a.549.549,0,1,1,0,1.1ZM8.052,1.608a.441.441,0,0,0-.443-.44H7.391a.442.442,0,0,0-.315.129.427.427,0,0,0-.13.309.589.589,0,0,1-1.178,0A1.593,1.593,0,0,1,6.244.47,1.617,1.617,0,0,1,7.389,0h.218A1.617,1.617,0,0,1,9.229,1.608a.589.589,0,0,1-1.177,0Z" transform="translate(-0.395 -5.026)"/>
  </g>
</svg>
