<svg width="28" height="28" viewBox="0 0 28 28"  xmlns="http://www.w3.org/2000/svg">
<path d="M15.3228 26H12.8C12.4308 26 12.2858 26 10.988 22.7249L9.98369 22.3003C7.26523 23.5502 6.94677 23.5502 6.82492 23.5502H6.62831L6.45662 23.3997L4.66862 21.6458C4.39908 21.3689 4.29938 21.2711 5.69692 18.0458L5.28062 17.0711C2 15.8748 2 15.7252 2 15.3246V12.8C2 12.4003 2 12.2748 5.28154 10.9751L5.69785 10.0003C4.22831 6.82492 4.32615 6.72523 4.62062 6.45015L6.55908 4.52554H6.8C7.90915 4.81037 8.98476 5.21264 10.0086 5.72554L11.0129 5.30092C12.1631 2 12.3098 2 12.6772 2H15.2C15.5692 2 15.7142 2 17.012 5.27508L18.0163 5.67477C20.7348 4.42492 21.0532 4.42492 21.1751 4.42492H21.3708L21.5425 4.57446L23.3305 6.34954C23.6 6.62646 23.6997 6.72431 22.3022 9.94954L22.7185 10.9492C26 12.1538 26 12.2748 26 12.6754V15.2C26 15.5748 26 15.7252 22.7185 17.0249L22.3271 17.9997C23.7966 21.1751 23.6988 21.2748 23.4292 21.5498L21.4705 23.4994H21.2258C20.1167 23.2146 19.0411 22.8123 18.0172 22.2994L17.0129 22.724C15.8369 26 15.6902 26 15.3228 26ZM13.0455 24.9505H15.0292C15.2498 24.4751 15.7391 23.2252 16.1554 22.1258L16.2292 21.9006L18.0412 21.1511L18.2369 21.2258C19.3142 21.7012 20.588 22.2255 21.0985 22.376L22.4942 20.9757C22.3225 20.4754 21.7843 19.2505 21.2942 18.2009L21.1963 18.0006L21.9551 16.1757L22.1508 16.1009C23.2529 15.6763 24.5018 15.1511 24.9671 14.9009V12.9505C24.4769 12.7252 23.228 12.2258 22.1508 11.8502L21.9385 11.7754L21.1797 9.95046L21.2775 9.75015C21.7391 8.67477 22.2569 7.42492 22.4286 6.89969L21.0283 5.50031C20.5871 5.65077 19.3142 6.22492 18.2369 6.72523L18.0412 6.82492L16.2292 6.07446L16.1554 5.87415C15.7142 4.77385 15.176 3.49908 14.9554 3.04954H12.9717C12.7511 3.52492 12.2618 4.77477 11.8455 5.87415L11.7717 6.07446L9.95969 6.82492L9.76308 6.75015C8.68585 6.27477 7.412 5.75046 6.89785 5.6L5.50215 7.00031C5.67385 7.50062 6.212 8.72554 6.70215 9.77508L6.8 9.97539L6.04123 11.8003L5.84554 11.8751C4.76831 12.2997 3.49446 12.8249 3.02923 13.0751V15.0505C3.51938 15.2757 4.76831 15.7751 5.84554 16.1757L6.06615 16.2505L6.82492 18.0754L6.72708 18.2508C6.26554 19.3262 5.74769 20.576 5.576 21.0754L6.97169 22.4757C7.41292 22.3003 8.68585 21.7511 9.76308 21.2508L9.95877 21.1511L11.7708 21.9015L11.8446 22.1018C12.2858 23.2252 12.8258 24.5 13.0455 24.9505ZM14 18.2C13.1688 18.2024 12.3556 17.9581 11.6633 17.498C10.9711 17.038 10.4309 16.3828 10.1112 15.6156C9.79143 14.8484 9.70654 14.0035 9.86724 13.188C10.0279 12.3725 10.427 11.623 11.0139 11.0344C11.6008 10.4458 12.3492 10.0446 13.1642 9.8816C13.9792 9.71857 14.8243 9.80104 15.5925 10.1186C16.3606 10.4361 17.0173 10.9744 17.4793 11.6654C17.9414 12.3563 18.188 13.1688 18.188 14C18.1887 15.1121 17.7481 16.179 16.9629 16.9664C16.1777 17.7539 15.1121 18.1976 14 18.2ZM14 10.8505C13.162 10.8519 12.3581 11.183 11.7624 11.7724C11.1666 12.3618 10.8267 13.162 10.8163 14C10.8119 14.6277 10.9939 15.2426 11.3392 15.7668C11.6845 16.2911 12.1776 16.701 12.7561 16.9448C13.3345 17.1886 13.9723 17.2553 14.5887 17.1364C15.205 17.0175 15.7723 16.7184 16.2185 16.2769C16.6648 15.8354 16.97 15.2715 17.0955 14.6564C17.2211 14.0414 17.1613 13.4029 16.9237 12.8219C16.6862 12.2408 16.2816 11.7433 15.7611 11.3924C15.2406 11.0415 14.6277 10.8529 14 10.8505Z" />
</svg>
