<svg class="color" xmlns="http://www.w3.org/2000/svg" xmlns:xlink="http://www.w3.org/1999/xlink" width="20" height="20" viewBox="0 0 100 100">
                      <defs>
                        <clipPath id="clip-Share_">
                          <rect width="100" height="100" />
                        </clipPath>
                      </defs>
                      <g id="Share_" data-name="Share " clip-path="url(#clip-Share_)">
                        <rect width="100" height="100" fill="transparent" />
                        <g id="share" transform="translate(-87.399 -62.667)">
                          <path
                            id="Path_1"
                            data-name="Path 1"
                            d="M172.337,92.964a15.148,15.148,0,1,1,15.148-15.148,15.165,15.165,0,0,1-15.148,15.148Zm0-24.577a9.429,9.429,0,1,0,9.429,9.429A9.44,9.44,0,0,0,172.337,68.386Zm-57.786,59.655A15.148,15.148,0,1,1,129.7,112.893,15.165,15.165,0,0,1,114.551,128.041Zm0-24.577a9.429,9.429,0,1,0,9.429,9.429A9.44,9.44,0,0,0,114.551,103.464Zm57.566,59.218a15.148,15.148,0,1,1,15.148-15.148A15.165,15.165,0,0,1,172.117,162.683Zm0-24.577a9.429,9.429,0,1,0,9.429,9.429A9.44,9.44,0,0,0,172.117,138.106Z"
                            transform="translate(0 0)"
                          />
                          <path
                            id="Path_2"
                            data-name="Path 2"
                            d="M346.067,226.566l3.127,4.789L314.821,253.8l-3.127-4.789Zm-31.248,35.577,34.373,22.447-3.127,4.789-34.373-22.447Z"
                            transform="translate(-188.559 -145.578)"
                          />
                        </g>
                      </g>
                    </svg>