<!-- <?xml version="1.0" encoding="iso-8859-1"?>
Generator: Adobe Illustrator 19.0.0, SVG Export Plug-In . SVG Version: 6.00 Build 0)
<svg version="1.1" id="Capa_1" xmlns="http://www.w3.org/2000/svg" xmlns:xlink="http://www.w3.org/1999/xlink" x="0px" y="0px"
	 viewBox="0 0 368 368" style="enable-background:new 0 0 368 368;" xml:space="preserve">
<g>
	<g>
		<g>
			<path d="M261.336,226.04c-3.296-2.952-8.36-2.664-11.296,0.624C233.352,245.312,209.288,256,184,256
				c-25.28,0-49.352-10.688-66.04-29.336c-2.952-3.288-8-3.576-11.296-0.624c-3.296,2.944-3.568,8-0.624,11.296
				C125.76,259.368,154.176,272,184,272c29.832,0,58.248-12.64,77.96-34.664C264.904,234.04,264.624,228.984,261.336,226.04z"/>
			<path d="M184,0C82.544,0,0,82.544,0,184s82.544,184,184,184s184-82.544,184-184S285.456,0,184,0z M184,352
				c-92.64,0-168-75.36-168-168S91.36,16,184,16s168,75.36,168,168S276.64,352,184,352z"/>
			<path d="M248,128c-22.056,0-40,17.944-40,40c0,4.416,3.584,8,8,8c4.416,0,8-3.584,8-8c0-13.232,10.768-24,24-24s24,10.768,24,24
				c0,4.416,3.584,8,8,8c4.416,0,8-3.584,8-8C288,145.944,270.056,128,248,128z"/>
			<path d="M144,168c0,4.416,3.584,8,8,8s8-3.584,8-8c0-22.056-17.944-40-40-40c-22.056,0-40,17.944-40,40c0,4.416,3.584,8,8,8
				s8-3.584,8-8c0-13.232,10.768-24,24-24S144,154.768,144,168z"/>
		</g>
	</g>
</g>
<g>
</g>
<g>
</g>
<g>
</g>
<g>
</g>
<g>
</g>
<g>
</g>
<g>
</g>
<g>
</g>
<g>
</g>
<g>
</g>
<g>
</g>
<g>
</g>
<g>
</g>
<g>
</g>
<g>
</g>
</svg> -->


<svg xmlns="http://www.w3.org/2000/svg" width="20" height="20" viewBox="0 0 20 20">
  <path id="Color_Overlay" data-name="Color Overlay" d="M629,285a10.187,10.187,0,0,1,20-2.54v5.079A10.186,10.186,0,0,1,629,285Zm.884,0a9.283,9.283,0,1,0,9.282-9.13A9.217,9.217,0,0,0,629.884,285Zm4.975,2.9a.43.43,0,0,1,.034-.614.446.446,0,0,1,.624.033,4.971,4.971,0,0,0,7.3,0,.447.447,0,0,1,.625-.033.43.43,0,0,1,.034.614,5.866,5.866,0,0,1-8.614,0Zm9.168-3.768a1.326,1.326,0,0,0-2.651,0,.442.442,0,0,1-.884,0,2.21,2.21,0,0,1,4.42,0,.442.442,0,0,1-.885,0Zm-7.071,0a1.326,1.326,0,0,0-2.652,0,.442.442,0,0,1-.884,0,2.21,2.21,0,0,1,4.42,0,.442.442,0,0,1-.884,0Z" transform="translate(-629 -275)" fill="#262626"/>
</svg>
