<svg width="13" height="12" viewBox="0 0 13 12" fill="none" xmlns="http://www.w3.org/2000/svg">
<path d="M7.41654 0.666667C7.41654 0.489856 7.34631 0.320286 7.22128 0.195262C7.09626 0.0702379 6.92669 0 6.74988 0C6.57307 0 6.4035 0.0702379 6.27847 0.195262C6.15345 0.320286 6.08321 0.489856 6.08321 0.666667V5.33333H1.41654C1.23973 5.33333 1.07016 5.40357 0.94514 5.5286C0.820116 5.65362 0.749878 5.82319 0.749878 6C0.749878 6.17681 0.820116 6.34638 0.94514 6.4714C1.07016 6.59643 1.23973 6.66667 1.41654 6.66667H6.08321V11.3333C6.08321 11.5101 6.15345 11.6797 6.27847 11.8047C6.4035 11.9298 6.57307 12 6.74988 12C6.92669 12 7.09626 11.9298 7.22128 11.8047C7.34631 11.6797 7.41654 11.5101 7.41654 11.3333V6.66667H12.0832C12.26 6.66667 12.4296 6.59643 12.5546 6.4714C12.6796 6.34638 12.7499 6.17681 12.7499 6C12.7499 5.82319 12.6796 5.65362 12.5546 5.5286C12.4296 5.40357 12.26 5.33333 12.0832 5.33333H7.41654V0.666667Z" fill="#2769b1"/>
</svg>