<svg width="50" height="50" viewBox="0 0 50 50" fill="none" xmlns="http://www.w3.org/2000/svg">
<path d="M42.1875 13.0685L42.092 12.9293V12.81L33.8611 3.48352C33.7696 3.40139 33.6666 3.33432 33.5556 3.28466H33.4601C33.3142 3.19559 33.1511 3.14126 32.9826 3.12557H13.3316C11.8913 3.10429 10.5017 3.6784 9.46715 4.72208C8.43264 5.76577 7.83763 7.19393 7.8125 8.69361V41.3064C7.83763 42.8061 8.43264 44.2342 9.46715 45.2779C10.5017 46.3216 11.8913 46.8957 13.3316 46.8744H36.6684C38.1087 46.8957 39.4983 46.3216 40.5328 45.2779C41.5674 44.2342 42.1624 42.8061 42.1875 41.3064V13.3071C42.1875 13.3071 42.1875 13.1679 42.1875 13.0685ZM34.1667 12.2134V7.22206L38.559 12.2134H34.1667ZM33.0208 14.4406H39.934V41.2666C39.9342 41.7095 39.8492 42.1479 39.6842 42.5561C39.5191 42.9643 39.2774 43.334 38.9731 43.6435C38.6688 43.9529 38.3081 44.1958 37.9123 44.358C37.5165 44.5201 37.0936 44.5982 36.6684 44.5876H13.3316C12.9103 44.5955 12.4915 44.5169 12.0994 44.3562C11.7072 44.1956 11.3493 43.9561 11.046 43.6514C10.7428 43.3467 10.5001 42.9828 10.332 42.5804C10.1638 42.1781 10.0734 41.7451 10.066 41.3064V8.63395C10.0734 8.19521 10.1638 7.76229 10.332 7.35993C10.5001 6.95757 10.7428 6.59364 11.046 6.28895C11.3493 5.98425 11.7072 5.74475 12.0994 5.58412C12.4915 5.42349 12.9103 5.34488 13.3316 5.35279H31.8941V13.3071C31.904 13.6113 32.0271 13.8997 32.2373 14.1112C32.4476 14.3227 32.7285 14.4408 33.0208 14.4406Z" fill="url(#paint0_linear)"/>
<path d="M30.6875 30.2077C30.3383 29.6746 29.8479 29.249 29.2708 28.9785C28.1051 28.4872 26.8662 28.1915 25.6042 28.1035C24.6187 28.0492 23.6482 27.8382 22.7292 27.4785C22.4603 27.3532 22.2352 27.15 22.0833 26.8952C21.9179 26.5737 21.8389 26.2147 21.8542 25.8535C21.8569 25.5385 21.9535 25.2315 22.1316 24.9717C22.3098 24.712 22.5613 24.5112 22.8542 24.3952C23.5756 24.0775 24.3577 23.9211 25.1458 23.9368C25.9234 23.9178 26.6965 24.0597 27.4167 24.3535C28.1109 24.6412 28.7307 25.0828 29.2292 25.6452L29.4583 25.8952L31.25 24.6035L31.0208 24.3535C30.438 23.6822 29.7305 23.1304 28.9375 22.7285C28.1991 22.3515 27.4038 22.0981 26.5833 21.9785V19.791H24.2917V21.8743C23.1102 21.9474 21.9715 22.3438 21 23.0202C20.5597 23.3401 20.2017 23.7601 19.9554 24.2454C19.7091 24.7307 19.5816 25.2676 19.5833 25.8118C19.5783 26.5418 19.7651 27.2602 20.125 27.8952C20.4864 28.4306 20.9821 28.8616 21.5625 29.1452C22.7507 29.6602 24.0198 29.9634 25.3125 30.041C26.2822 30.097 27.2376 30.3008 28.1458 30.6452C28.4093 30.7689 28.633 30.9637 28.7917 31.2077C28.9502 31.5167 29.029 31.8605 29.0208 32.2077C29.0289 32.5921 28.9037 32.9675 28.6667 33.2702C28.4455 33.5538 28.1497 33.7702 27.8125 33.8952C27.054 34.1798 26.2473 34.3142 25.4375 34.291C24.4513 34.333 23.4667 34.1772 22.5417 33.8327C21.8797 33.5599 21.2936 33.1311 20.8333 32.5827L20.6042 32.3327L18.75 33.7077L18.9792 33.9785C19.6558 34.7646 20.504 35.3847 21.4583 35.791C22.3334 36.1749 23.274 36.3871 24.2292 36.416V38.4993H26.5208V36.416C27.7253 36.3435 28.883 35.9238 29.8542 35.2077C30.2975 34.8682 30.6548 34.4292 30.8973 33.9262C31.1398 33.4231 31.2606 32.8702 31.25 32.3118C31.2699 31.5708 31.0745 30.8399 30.6875 30.2077Z" fill="url(#paint1_linear)"/>
<defs>
<linearGradient id="paint0_linear" x1="25" y1="3.125" x2="25" y2="46.875" gradientUnits="userSpaceOnUse">
<stop stop-color="#B07FCD"/>
<stop offset="1" stop-color="#5F4891"/>
</linearGradient>
<linearGradient id="paint1_linear" x1="25.0007" y1="19.791" x2="25.0007" y2="38.4993" gradientUnits="userSpaceOnUse">
<stop stop-color="#B07FCD"/>
<stop offset="1" stop-color="#5F4891"/>
</linearGradient>
</defs>
</svg>
