<svg width="41" height="40" viewBox="0 0 41 40" fill="none" xmlns="http://www.w3.org/2000/svg">
<path d="M20.1929 0.078125C16.2527 0.078125 12.401 1.24652 9.12488 3.43557C5.84874 5.62461 3.29531 8.73598 1.78747 12.3762C0.279628 16.0165 -0.114892 20.0221 0.653798 23.8866C1.42249 27.751 3.31986 31.3008 6.10599 34.0869C8.89211 36.873 12.4419 38.7704 16.3063 39.5391C20.1708 40.3078 24.1764 39.9133 27.8167 38.4054C31.4569 36.8976 34.5683 34.3441 36.7573 31.068C38.9464 27.7919 40.1148 23.9402 40.1148 20C40.1088 14.7182 38.008 9.65446 34.2732 5.91967C30.5384 2.18488 25.4747 0.0840699 20.1929 0.078125ZM20.1929 37.5781C16.7163 37.5781 13.3177 36.5472 10.427 34.6157C7.53629 32.6842 5.28326 29.9388 3.95281 26.7269C2.62236 23.5149 2.27426 19.9805 2.95251 16.5707C3.63077 13.1609 5.30492 10.0287 7.76327 7.57039C10.2216 5.11204 13.3537 3.43789 16.7636 2.75963C20.1734 2.08138 23.7078 2.42948 26.9197 3.75993C30.1317 5.09038 32.8771 7.34341 34.8086 10.2341C36.7401 13.1248 37.771 16.5234 37.771 20C37.7657 24.6604 35.9121 29.1284 32.6167 32.4238C29.3213 35.7192 24.8533 37.5729 20.1929 37.5781ZM27.6148 23.9062C27.6133 25.2526 27.0778 26.5434 26.1258 27.4954C25.1737 28.4474 23.883 28.9829 22.5366 28.9844H21.3648V30.9375C21.3648 31.2483 21.2413 31.5464 21.0215 31.7661C20.8018 31.9859 20.5037 32.1094 20.1929 32.1094C19.8821 32.1094 19.584 31.9859 19.3642 31.7661C19.1445 31.5464 19.021 31.2483 19.021 30.9375V28.9844H15.5054C15.1946 28.9844 14.8965 28.8609 14.6767 28.6411C14.457 28.4214 14.3335 28.1233 14.3335 27.8125C14.3335 27.5017 14.457 27.2036 14.6767 26.9839C14.8965 26.7641 15.1946 26.6406 15.5054 26.6406H22.5366C23.2618 26.6406 23.9573 26.3525 24.4701 25.8397C24.9829 25.327 25.271 24.6315 25.271 23.9062C25.271 23.181 24.9829 22.4855 24.4701 21.9728C23.9573 21.46 23.2618 21.1719 22.5366 21.1719H17.8491C16.5023 21.1719 15.2107 20.6369 14.2584 19.6845C13.306 18.7322 12.771 17.4406 12.771 16.0938C12.771 14.7469 13.306 13.4553 14.2584 12.503C15.2107 11.5506 16.5023 11.0156 17.8491 11.0156H19.021V9.0625C19.021 8.7517 19.1445 8.45363 19.3642 8.23386C19.584 8.01409 19.8821 7.89062 20.1929 7.89062C20.5037 7.89062 20.8018 8.01409 21.0215 8.23386C21.2413 8.45363 21.3648 8.7517 21.3648 9.0625V11.0156H24.8804C25.1912 11.0156 25.4893 11.1391 25.709 11.3589C25.9288 11.5786 26.0523 11.8767 26.0523 12.1875C26.0523 12.4983 25.9288 12.7964 25.709 13.0161C25.4893 13.2359 25.1912 13.3594 24.8804 13.3594H17.8491C17.1239 13.3594 16.4284 13.6475 15.9156 14.1603C15.4028 14.673 15.1148 15.3685 15.1148 16.0938C15.1148 16.819 15.4028 17.5145 15.9156 18.0272C16.4284 18.54 17.1239 18.8281 17.8491 18.8281H22.5366C23.883 18.8296 25.1737 19.3651 26.1258 20.3171C27.0778 21.2691 27.6133 22.5599 27.6148 23.9062Z" fill="url(#paint0_linear)"/>
<defs>
<linearGradient id="paint0_linear" x1="20.1929" y1="0.078125" x2="20.1929" y2="39.9219" gradientUnits="userSpaceOnUse">
<stop stop-color="#6CD05C"/>
<stop offset="1" stop-color="#20842A"/>
</linearGradient>
</defs>
</svg>
