<svg width="11" height="18" viewBox="0 0 11 18" fill="none" xmlns="http://www.w3.org/2000/svg">
<path d="M5.76818 3.76814V3.7682L5.77222 3.76807C6.4689 3.74557 7.16095 3.88898 7.79131 4.1865C8.42167 4.48402 8.97228 4.92712 9.39774 5.47926L9.47578 5.58053L9.57527 5.50023L10.6172 4.65915L10.7127 4.58205L10.6374 4.48515C10.1587 3.86958 9.56307 3.3547 8.88473 2.97009C8.23852 2.60371 7.5294 2.36244 6.79452 2.25854V0.294922V0.169922H6.66952H5.33024H5.20524V0.294922V2.20194C4.02579 2.29362 3.03558 2.67435 2.3317 3.28379C1.60258 3.91509 1.18738 4.78654 1.18738 5.81412C1.18738 6.62307 1.35125 7.26134 1.63644 7.76693C1.92182 8.27286 2.32437 8.6383 2.78963 8.90795C3.71018 9.44149 4.88747 9.60486 5.90924 9.74665L5.92036 9.74819C5.92038 9.7482 5.9204 9.7482 5.92042 9.7482C7.01645 9.90083 7.84243 10.0399 8.39759 10.358C8.67032 10.5142 8.87381 10.712 9.01066 10.9749C9.14829 11.2392 9.22309 11.5783 9.22309 12.0237C9.22309 12.5086 9.09826 12.8829 8.8978 13.174C8.69666 13.4661 8.41424 13.6817 8.08835 13.8394C7.43317 14.1567 6.61888 14.2324 5.99988 14.2324C4.86255 14.2324 4.06575 14.0725 3.44581 13.7822C2.82714 13.4924 2.37387 13.0679 1.9306 12.5191L1.85209 12.4218L1.75485 12.5003L0.712884 13.3414L0.61849 13.4176L0.691822 13.5142C1.23443 14.2293 1.93624 14.808 2.74154 15.2045C3.50919 15.5824 4.35074 15.7848 5.20524 15.7977V17.7056V17.8306H5.33024H6.66952H6.79452V17.7056V15.7809C8.00897 15.6635 9.0014 15.2715 9.69783 14.6434C10.4184 13.9934 10.8124 13.099 10.8124 12.0237C10.8124 11.2338 10.6505 10.6101 10.3687 10.1157C10.0867 9.6211 9.6891 9.26369 9.22982 8.99979C8.32143 8.47784 7.15986 8.31644 6.15166 8.17636L6.13963 8.17468C5.02444 8.0197 4.18386 7.87762 3.61877 7.54846C3.34112 7.38674 3.13343 7.18132 2.99362 6.90731C2.85297 6.63168 2.77667 6.27811 2.77667 5.81412C2.77667 5.06684 3.16408 4.56147 3.7328 4.23649C4.30717 3.90828 5.06268 3.76814 5.76818 3.76814Z" fill="url(#paint0_linear)" stroke="url(#paint1_linear)" stroke-width="0.25"/>
<defs>
<linearGradient id="paint0_linear" x1="5.73939" y1="0.294922" x2="5.73939" y2="17.7056" gradientUnits="userSpaceOnUse">
<stop stop-color="#8EA1E3"/>
<stop offset="1" stop-color="#395498"/>
</linearGradient>
<linearGradient id="paint1_linear" x1="5.73939" y1="0.294922" x2="5.73939" y2="17.7056" gradientUnits="userSpaceOnUse">
<stop stop-color="#8EA1E3"/>
<stop offset="1" stop-color="#395498"/>
</linearGradient>
</defs>
</svg>
