<svg width="16.67px" height="13.33px" viewBox="0 0 18 14" fill="none" xmlns="http://www.w3.org/2000/svg">
<path d="M14.4167 12.0007H3.58334C3.35417 12.0007 3.16667 12.1882 3.16667 12.4173V13.2507C3.16667 13.4798 3.35417 13.6673 3.58334 13.6673H14.4167C14.6458 13.6673 14.8333 13.4798 14.8333 13.2507V12.4173C14.8333 12.1882 14.6458 12.0007 14.4167 12.0007ZM16.0833 3.66732C15.3932 3.66732 14.8333 4.22721 14.8333 4.91732C14.8333 5.10221 14.875 5.27409 14.9479 5.43294L13.0625 6.56315C12.6615 6.80273 12.1432 6.66732 11.9115 6.26107L9.78907 2.54753C10.0677 2.31836 10.25 1.97461 10.25 1.58398C10.25 0.89388 9.69011 0.333984 9 0.333984C8.3099 0.333984 7.75 0.89388 7.75 1.58398C7.75 1.97461 7.9323 2.31836 8.21094 2.54753L6.08855 6.26107C5.85678 6.66732 5.33594 6.80273 4.9375 6.56315L3.05469 5.43294C3.12501 5.27669 3.16928 5.10221 3.16928 4.91732C3.16928 4.22721 2.60938 3.66732 1.91928 3.66732C1.22917 3.66732 0.666672 4.22721 0.666672 4.91732C0.666672 5.60742 1.22657 6.16732 1.91667 6.16732C1.98438 6.16732 2.05209 6.1569 2.11719 6.14648L4.00001 11.1673H14L15.8828 6.14648C15.9479 6.1569 16.0156 6.16732 16.0833 6.16732C16.7734 6.16732 17.3333 5.60742 17.3333 4.91732C17.3333 4.22721 16.7734 3.66732 16.0833 3.66732Z" fill="#F07525"/>
</svg>