<svg width="24" height="24" viewBox="0 0 24 24" fill="none" xmlns="http://www.w3.org/2000/svg">
<path d="M10.8334 19H13.1667V16.6667H10.8334V19ZM12 0.333328C5.56004 0.333328 0.333374 5.56 0.333374 12C0.333374 18.44 5.56004 23.6667 12 23.6667C18.44 23.6667 23.6667 18.44 23.6667 12C23.6667 5.56 18.44 0.333328 12 0.333328ZM12 21.3333C6.85504 21.3333 2.66671 17.145 2.66671 12C2.66671 6.855 6.85504 2.66666 12 2.66666C17.145 2.66666 21.3334 6.855 21.3334 12C21.3334 17.145 17.145 21.3333 12 21.3333ZM12 5C9.42171 5 7.33337 7.08833 7.33337 9.66666H9.66671C9.66671 8.38333 10.7167 7.33333 12 7.33333C13.2834 7.33333 14.3334 8.38333 14.3334 9.66666C14.3334 12 10.8334 11.7083 10.8334 15.5H13.1667C13.1667 12.875 16.6667 12.5833 16.6667 9.66666C16.6667 7.08833 14.5784 5 12 5Z" fill="#B0B0B0"/>
</svg>
