<svg xmlns="http://www.w3.org/2000/svg" width="38" height="38" viewBox="0 0 38 38" fill="none">
<rect x="1" y="1" width="36" height="36" rx="4" fill="white"/>
<path d="M16.6 10.9H12.4C11.5726 10.9 10.9 11.5726 10.9 12.4V16.6C10.9 17.4273 11.5726 18.1 12.4 18.1H16.6C17.4273 18.1 18.1 17.4274 18.1 16.6V12.4C18.1 11.5726 17.4273 10.9 16.6 10.9ZM17.2 16.6C17.2 16.9306 16.9306 17.2 16.6 17.2H12.4C12.0694 17.2 11.8 16.9306 11.8 16.6V12.4C11.8 12.0694 12.0694 11.8 12.4 11.8H16.6C16.9306 11.8 17.2 12.0694 17.2 12.4V16.6Z" fill="currentColor" stroke="currentColor" stroke-width="0.2"/>
<path d="M25.6 10.9H21.4C20.5726 10.9 19.9 11.5726 19.9 12.4V16.6C19.9 17.4273 20.5726 18.1 21.4 18.1H25.6C26.4273 18.1 27.1 17.4274 27.1 16.6V12.4C27.1 11.5726 26.4273 10.9 25.6 10.9ZM26.2 16.6C26.2 16.9306 25.9306 17.2 25.6 17.2H21.4C21.0694 17.2 20.8 16.9306 20.8 16.6V12.4C20.8 12.0694 21.0694 11.8 21.4 11.8H25.6C25.9306 11.8 26.2 12.0694 26.2 12.4V16.6Z" fill="currentColor" stroke="currentColor" stroke-width="0.2"/>
<path d="M16.6 19.9H12.4C11.5726 19.9 10.9 20.5726 10.9 21.4V25.6C10.9 26.4273 11.5726 27.1 12.4 27.1H16.6C17.4273 27.1 18.1 26.4274 18.1 25.6V21.4C18.1 20.5726 17.4273 19.9 16.6 19.9ZM17.2 25.6C17.2 25.9306 16.9306 26.2 16.6 26.2H12.4C12.0694 26.2 11.8 25.9306 11.8 25.6V21.4C11.8 21.0694 12.0694 20.8 12.4 20.8H16.6C16.9306 20.8 17.2 21.0694 17.2 21.4V25.6Z" fill="currentColor" stroke="currentColor" stroke-width="0.2"/>
<path d="M25.5834 22.9833H24.0167V21.4167C24.0167 21.1311 23.7856 20.9 23.5 20.9C23.2145 20.9 22.9833 21.1311 22.9833 21.4167V22.9833H21.4167C21.1311 22.9833 20.9 23.2145 20.9 23.5C20.9 23.7856 21.1311 24.0167 21.4167 24.0167H22.9834V25.5833C22.9834 25.8689 23.2145 26.1 23.5001 26.1C23.7856 26.1 24.0167 25.8689 24.0167 25.5833V24.0167H25.5834C25.8689 24.0167 26.1 23.7855 26.1 23.5C26.1 23.2145 25.8689 22.9833 25.5834 22.9833Z" fill="currentColor" stroke="currentColor" stroke-width="0.2"/>
<rect x="1" y="1" width="36" height="36" rx="4" stroke="#fff"/>
</svg>