<svg width="40" height="40" viewBox="0 0 40 40" fill="none" xmlns="http://www.w3.org/2000/svg">
<rect width="40" height="40" fill="white"/>
<g clip-path="url(#clip0)">
<path d="M5.0105 19.8872C5.0105 15.1898 5.00146 10.4919 5.0105 5.79318C5.0216 2.00381 7.00504 0.0174949 10.7632 0.0150294C14.8098 0.0117422 18.858 0.0380402 22.9026 0.00352412C23.7402 -0.0256694 24.5742 0.126796 25.3473 0.450447C26.1205 0.774098 26.8144 1.26127 27.3814 1.87849C29.6551 4.26886 31.9425 6.64732 34.2435 9.01386C34.7673 9.54588 35.1789 10.1775 35.4542 10.8715C35.7294 11.5654 35.8627 12.3075 35.8461 13.0539C35.8576 20.2632 35.8777 27.4726 35.8403 34.6815C35.8235 37.9252 33.7127 39.978 30.4764 39.9867C23.7792 40.0042 17.0814 40.0042 10.3831 39.9867C7.14803 39.978 5.04954 37.9231 5.0216 34.6778C4.9801 29.7477 5.01132 24.8173 5.0105 19.8872ZM7.02887 19.9879C7.02887 24.6867 7.02887 29.3848 7.02887 34.082C7.0338 36.8067 8.22296 38.0176 10.9325 38.023C17.2604 38.0353 23.5874 38.0353 29.9134 38.023C32.6307 38.018 33.8273 36.812 33.8306 34.0963C33.8384 27.3045 33.808 20.5118 33.8524 13.72C33.8752 13.0017 33.744 12.2869 33.4676 11.6236C33.1912 10.9602 32.776 10.3638 32.2498 9.87429C30.1678 7.81525 28.1059 5.72908 26.1236 3.57388C25.686 3.06373 25.1388 2.65901 24.5228 2.38992C23.9069 2.12084 23.2381 1.99433 22.5664 2.01984C18.6587 2.05353 14.751 2.02189 10.8429 2.03422C8.19543 2.04285 7.03503 3.22584 7.03216 5.88933C7.02531 10.5893 7.02421 15.2887 7.02887 19.9875V19.9879Z" fill="#2C4098"/>
<path d="M27.9165 19.3633L24.8413 30.5841H22.7364L20.6002 22.7358C20.5116 22.4019 20.4568 22.0368 20.4359 21.6403H20.4046C20.3785 22.0107 20.3159 22.3706 20.2168 22.7201L18.0728 30.5841H15.921L12.7832 19.3633H14.8255L16.86 27.5794C16.9434 27.9237 16.9956 28.2836 17.0165 28.6592H17.0556C17.0764 28.3932 17.1495 28.0332 17.2747 27.5794L19.5752 19.3633H21.4923L23.6206 27.642C23.6937 27.9237 23.7484 28.2575 23.785 28.6436H23.8163C23.8319 28.3827 23.8919 28.0384 23.9962 27.6107L25.9916 19.3633H27.9165Z" fill="#2C4098"/>
</g>
<defs>
<clipPath id="clip0">
<rect width="30.8623" height="40" fill="white" transform="translate(5)"/>
</clipPath>
</defs>
</svg>