<svg width="40" height="40" viewBox="0 0 40 40" fill="none" xmlns="http://www.w3.org/2000/svg">
<path d="M5.0105 19.8836C5.0105 15.187 5.00146 10.4899 5.0105 5.79211C5.02159 2.00344 7.00467 0.0174916 10.7621 0.0150266C14.808 0.01174 18.8555 0.0380331 22.8992 0.00352347C23.7367 -0.0256647 24.5706 0.126772 25.3436 0.450364C26.1166 0.773955 26.8104 1.26103 27.3773 1.87814C29.6505 4.26807 31.9375 6.64609 34.2381 9.01219C34.7618 9.54411 35.1733 10.1757 35.4486 10.8695C35.7238 11.5633 35.857 12.3053 35.8404 13.0515C35.8519 20.2595 35.872 27.4675 35.8346 34.6751C35.8178 37.9182 33.7073 39.9707 30.4717 39.9793C23.7757 39.9968 17.0792 39.9968 10.3821 39.9793C7.14764 39.9707 5.04953 37.9161 5.02159 34.6714C4.9801 29.7422 5.01132 24.8127 5.0105 19.8836ZM7.02849 19.9842C7.02849 24.6822 7.02849 29.3793 7.02849 34.0757C7.03342 36.7999 8.22237 38.0106 10.9314 38.0159C17.2581 38.0283 23.584 38.0283 29.9088 38.0159C32.6256 38.011 33.822 36.8052 33.8253 34.09C33.8331 27.2994 33.8027 20.508 33.847 13.7174C33.8699 12.9993 33.7387 12.2846 33.4623 11.6214C33.186 10.9582 32.7708 10.3619 32.2448 9.87247C30.1631 7.8138 28.1016 5.72802 26.1197 3.57322C25.6822 3.06317 25.135 2.65852 24.5192 2.38948C23.9034 2.12044 23.2347 1.99396 22.5632 2.01946C18.6562 2.05315 14.7492 2.02152 10.8418 2.03384C8.19484 2.04247 7.03466 3.22525 7.03178 5.88825C7.02493 10.5873 7.02384 15.2858 7.02849 19.9838V19.9842Z" fill="#363636"/>
<path d="M20.54 21.3643H17.8672V22.7007H20.54V21.3643Z" fill="#363636"/>
<path d="M20.54 33.0195H17.8672V34.356H20.54V33.0195Z" fill="#363636"/>
<path d="M20.54 25.5215H17.8672V26.8579H20.54V25.5215Z" fill="#363636"/>
<path d="M20.54 29.3076H17.8672V30.644H20.54V29.3076Z" fill="#363636"/>
<path d="M20.54 36.8438H17.8672V38.1802H20.54V36.8438Z" fill="#363636"/>
<path d="M17.6074 23.1836H14.9346V24.52H17.6074V23.1836Z" fill="#363636"/>
<path d="M17.6074 34.8389H14.9346V36.1753H17.6074V34.8389Z" fill="#363636"/>
<path d="M17.6074 27.3408H14.9346V28.6772H17.6074V27.3408Z" fill="#363636"/>
<path d="M17.6074 31.127H14.9346V32.4634H17.6074V31.127Z" fill="#363636"/>
<path d="M17.6074 38.6631H14.9346V39.9995H17.6074V38.6631Z" fill="#363636"/>
<path d="M15.5605 12.6104V19.3299H19.7321V12.6104H15.5605ZM18.5539 15.0511C18.5555 15.1715 18.5097 15.2877 18.4262 15.3745C18.3428 15.4614 18.2285 15.5118 18.1081 15.5149H17.1657C17.0453 15.5118 16.931 15.4614 16.8475 15.3745C16.7641 15.2877 16.7182 15.1715 16.7199 15.0511V14.1091C16.7194 14.0511 16.7303 13.9935 16.7519 13.9397C16.7736 13.8859 16.8057 13.837 16.8464 13.7956C16.887 13.7542 16.9354 13.7212 16.9887 13.6985C17.0421 13.6758 17.0994 13.6638 17.1574 13.6633H18.1081C18.1661 13.6627 18.2237 13.6736 18.2775 13.6952C18.3313 13.7169 18.3803 13.749 18.4217 13.7896C18.4631 13.8303 18.4961 13.8787 18.5188 13.9321C18.5414 13.9855 18.5534 14.0428 18.5539 14.1008V15.0511Z" fill="#363636"/>
</svg>
